M48
; DRILL file {KiCad 9.0.4} date 2026-08-03T03:57:57-0400
; FORMAT={-:-/ absolute / metric / decimal}
; #@! TF.CreationDate,2026-08-03T03:57:57-04:00
; #@! TF.GenerationSoftware,Kicad,Pcbnew,9.0.4
; #@! TF.FileFunction,MixedPlating,1,4
FMAT,2
METRIC
; #@! TA.AperFunction,Plated,PTH,ViaDrill
T1C0.300
; #@! TA.AperFunction,Plated,PTH,ViaDrill
T2C0.400
; #@! TA.AperFunction,Plated,PTH,ComponentDrill
T3C1.000
; #@! TA.AperFunction,NonPlated,NPTH,ComponentDrill
T4C3.200
%
G90
G05
T1
X49.9Y-116.6
X52.2Y-127.0
X59.1Y-144.6
X72.8Y-65.8
X73.4Y-152.0
X73.7Y-101.8
X73.8Y-55.6
X73.8Y-92.9
X73.8Y-120.8
X73.8Y-140.5
X74.0Y-37.5
X74.0Y-76.1
X74.1Y-47.1
X74.2Y-27.2
X74.2Y-132.4
X74.3Y-111.1
X74.8Y-21.9
X74.85Y-20.25
X75.5Y-143.5
X75.5Y-145.2
X75.6Y-123.6
X75.6Y-125.1
X75.6Y-133.5
X75.6Y-135.0
X75.7Y-103.6
X75.7Y-105.2
X75.7Y-113.8
X75.7Y-115.1
X75.8Y-29.2
X75.8Y-30.4
X75.8Y-38.9
X75.8Y-50.8
X75.8Y-68.9
X75.8Y-70.4
X75.8Y-84.3
X75.8Y-93.8
X75.8Y-95.2
X75.9Y-40.4
X75.9Y-58.9
X75.9Y-60.3
X75.9Y-85.8
X76.0Y-49.3
X76.5Y-93.7
X76.5Y-152.0
X76.6Y-123.1
X76.7Y-68.2
X76.7Y-132.3
X76.8Y-143.2
X76.9Y-58.2
X77.0Y-38.3
X77.0Y-48.8
X77.0Y-103.3
X77.0Y-153.2
X77.1Y-19.4
X77.2Y-110.9
X77.5Y-27.1
X77.7Y-57.5
X77.7Y-61.1
X77.7Y-78.6
X77.7Y-141.9
X77.7Y-146.2
X77.7Y-152.1
X77.7Y-156.4
X77.8Y-47.6
X77.8Y-51.2
X77.8Y-67.5
X77.8Y-71.1
X77.8Y-112.3
X77.8Y-115.9
X77.8Y-122.2
X77.8Y-125.8
X77.8Y-132.1
X77.8Y-135.7
X77.9Y-102.4
X77.9Y-106.0
X78.0Y-37.6
X78.0Y-41.2
X78.0Y-92.7
X78.0Y-96.3
X78.2Y-120.0
X78.3Y-28.0
X78.3Y-31.6
X78.7Y-167.6
X78.924Y-162.176
X78.999Y-90.0
X78.999Y-97.7
X78.999Y-107.9
X78.999Y-117.5
X78.999Y-128.0
X78.999Y-137.7
X79.7Y-92.0
X79.9Y-75.9
X80.0Y-84.5
X80.044Y-137.756
X80.1Y-161.2
X80.194Y-108.106
X80.296Y-93.304
X80.3Y-89.1
X80.3Y-118.6
X80.3Y-165.8
X80.345Y-157.1
X80.4Y-114.45
X80.4Y-116.05
X80.4Y-121.0
X80.4Y-124.275
X80.4Y-125.875
X80.4Y-134.175
X80.4Y-135.775
X80.5Y-49.775
X80.5Y-51.375
X80.5Y-58.7
X80.5Y-59.6
X80.5Y-61.2
X80.5Y-69.5
X80.5Y-71.1
X80.5Y-79.1
X80.5Y-144.3
X80.5Y-145.9
X80.5Y-154.2
X80.5Y-155.8
X80.524Y-130.5
X80.527Y-148.281
X80.575Y-104.475
X80.575Y-106.075
X80.6Y-128.5
X80.6Y-158.2
X80.625Y-94.525
X80.625Y-96.125
X80.675Y-39.8
X80.675Y-41.4
X80.7Y-53.6
X80.7Y-73.4
X80.7Y-84.975
X80.7Y-86.575
X80.725Y-29.85
X80.725Y-31.45
X80.745Y-63.755
X80.8Y-20.3
X80.8Y-21.9
X80.8Y-23.9
X80.8Y-55.9
X80.8Y-91.8
X80.8Y-98.7
X80.9Y-43.5
X80.9Y-46.0
X81.0Y-92.593
X81.4Y-33.7
X81.5Y-48.3
X82.0Y-133.3
X82.1Y-19.5
X82.1Y-153.3
X83.2Y-57.7
X83.3Y-165.2
X83.6Y-131.9
X83.6Y-163.2
X84.3Y-46.7
X88.6Y-77.3
X92.2Y-78.7
X93.0Y-67.6
X93.0Y-71.2
X93.076Y-74.224
X93.1Y-132.2
X93.1Y-135.8
X93.1Y-141.9
X93.1Y-146.2
X93.1Y-152.2
X93.1Y-155.8
X93.3Y-37.7
X93.3Y-41.3
X93.3Y-47.6
X93.3Y-51.2
X93.3Y-57.7
X93.3Y-61.3
X93.4Y-28.0
X93.4Y-31.6
X93.4Y-122.3
X93.4Y-125.9
X93.7Y-92.8
X93.7Y-96.4
X93.7Y-169.6
X93.8Y-102.5
X93.8Y-106.1
X93.8Y-112.2
X93.8Y-116.3
X93.8Y-163.0
X93.8Y-164.8
X93.8Y-167.8
X94.069Y-62.6
X94.5Y-107.4
X94.5Y-117.9
X94.5Y-128.0
X94.5Y-137.9
X94.5Y-148.1
X94.9Y-77.1
X95.3Y-79.1
X95.3Y-82.1
X95.3Y-88.6
X95.4Y-143.6
X95.6Y-114.5
X95.6Y-116.1
X95.6Y-124.325
X95.6Y-125.925
X95.6Y-134.225
X95.6Y-135.825
X95.7Y-49.825
X95.7Y-51.425
X95.7Y-59.65
X95.7Y-61.25
X95.7Y-69.55
X95.7Y-71.15
X95.7Y-144.35
X95.7Y-145.95
X95.7Y-154.25
X95.7Y-155.85
X95.775Y-104.525
X95.775Y-106.125
X95.782Y-138.193
X95.8Y-127.9
X95.8Y-160.607
X95.825Y-94.575
X95.825Y-96.175
X95.875Y-39.85
X95.875Y-41.45
X95.887Y-85.013
X95.895Y-118.305
X95.9Y-24.394
X95.9Y-53.9
X95.9Y-73.0
X95.9Y-86.625
X95.9Y-148.5
X95.925Y-29.9
X95.925Y-31.5
X96.0Y-20.35
X96.0Y-21.95
X96.0Y-158.3
X96.2Y-43.7
X96.3Y-33.4
X96.34Y-68.95
X96.345Y-108.255
X96.5Y-98.5
X96.55Y-88.65
X96.6Y-49.225
X96.7Y-113.9
X97.0Y-155.725
X98.3Y-103.925
X98.4Y-28.5
X99.6Y-163.0
X100.3Y-161.4
X100.8Y-103.4
X106.4Y-22.2
X106.6Y-156.86
X107.0Y-161.3
X107.248Y-156.391
X107.9Y-77.3
X107.9Y-79.0
X107.9Y-152.3
X107.9Y-155.9
X108.1Y-83.0
X108.3Y-112.3
X108.3Y-115.9
X108.4Y-122.4
X108.4Y-126.0
X108.4Y-132.4
X108.4Y-136.0
X108.4Y-140.9
X108.5Y-145.8
X108.6Y-28.1
X108.6Y-31.7
X108.6Y-37.8
X108.6Y-41.4
X108.6Y-57.8
X108.6Y-61.4
X108.6Y-67.8
X108.6Y-71.4
X108.6Y-89.4
X108.7Y-47.7
X108.7Y-51.3
X108.7Y-92.7
X108.7Y-96.3
X108.7Y-102.4
X108.7Y-106.0
X108.8Y-157.4
X108.9Y-155.9
X109.1Y-162.9
X109.2Y-165.0
X109.2Y-167.8
X109.2Y-170.5
X110.1Y-81.5
X110.7Y-148.1
X110.725Y-114.575
X110.725Y-116.175
X110.725Y-124.4
X110.725Y-126.0
X110.725Y-134.3
X110.725Y-135.9
X110.8Y-151.5
X110.8Y-161.5
X110.825Y-49.9
X110.825Y-51.5
X110.825Y-59.725
X110.825Y-61.325
X110.825Y-69.625
X110.825Y-71.225
X110.825Y-144.425
X110.825Y-146.025
X110.825Y-154.325
X110.825Y-155.925
X110.9Y-52.95
X110.9Y-104.6
X110.9Y-106.2
X110.95Y-94.65
X110.95Y-96.25
X110.962Y-85.037
X110.982Y-33.118
X111.0Y-39.925
X111.0Y-41.525
X111.0Y-72.9
X111.0Y-138.2
X111.025Y-86.7
X111.05Y-29.975
X111.05Y-31.575
X111.1Y-118.1
X111.1Y-123.575
X111.1Y-128.2
X111.125Y-20.425
X111.125Y-22.025
X111.2Y-63.4
X111.2Y-108.6
X111.5Y-43.8
X111.7Y-98.7
X111.738Y-157.902
X111.75Y-88.65
X112.0Y-51.3
X112.2Y-151.7
X113.474Y-152.574
X113.9Y-51.3
X114.1Y-112.2
X114.2Y-142.6
X115.8Y-71.6
X115.9Y-155.725
X116.8Y-39.325
X119.8Y-165.6
X119.8Y-167.7
X119.8Y-171.4
X122.0Y-141.7
X122.1Y-151.1
X122.3Y-162.9
X122.4Y-156.1
X122.744Y-132.175
X122.744Y-135.775
X123.044Y-122.275
X123.044Y-125.875
X123.1Y-150.3
X123.3Y-57.6
X123.3Y-61.2
X123.3Y-67.5
X123.3Y-71.1
X123.3Y-92.7
X123.3Y-96.3
X123.4Y-28.1
X123.4Y-31.7
X123.4Y-37.8
X123.4Y-41.4
X123.4Y-47.7
X123.4Y-51.3
X123.4Y-102.3
X123.4Y-105.9
X123.4Y-112.3
X123.4Y-115.9
X123.401Y-151.5
X123.5Y-158.8
X123.6Y-89.0
X123.7Y-82.2
X124.7Y-69.825
X125.1Y-79.599
X125.2Y-157.0
X125.25Y-114.487
X125.25Y-116.087
X125.25Y-124.312
X125.25Y-125.912
X125.25Y-134.213
X125.25Y-135.812
X125.345Y-117.855
X125.35Y-49.812
X125.35Y-51.412
X125.35Y-144.338
X125.35Y-145.938
X125.35Y-154.237
X125.35Y-155.838
X125.392Y-77.192
X125.425Y-104.512
X125.425Y-106.112
X125.475Y-94.562
X125.475Y-96.162
X125.5Y-71.6
X125.5Y-137.8
X125.5Y-148.5
X125.5Y-151.5
X125.525Y-39.837
X125.525Y-41.438
X125.55Y-85.013
X125.55Y-86.612
X125.575Y-29.887
X125.575Y-31.487
X125.6Y-24.0
X125.6Y-88.6
X125.6Y-107.6
X125.65Y-20.337
X125.65Y-21.938
X125.695Y-128.105
X125.7Y-32.8
X125.7Y-52.9
X125.7Y-72.6
X125.8Y-59.637
X125.8Y-61.237
X125.9Y-43.2
X125.9Y-63.3
X126.0Y-161.8
X126.1Y-76.8
X126.122Y-49.602
X126.375Y-98.775
X126.5Y-69.825
X126.5Y-114.1
X126.7Y-154.1
X127.0Y-161.2
X127.8Y-114.5
X128.1Y-162.0
X129.241Y-40.125
X130.1Y-50.202
X130.842Y-71.742
X131.5Y-30.4
X132.6Y-104.7
X133.5Y-77.9
X134.4Y-161.9
X135.2Y-142.2
X135.326Y-103.6
X135.8Y-146.5
X135.901Y-64.985
X136.124Y-59.424
X136.2Y-160.5
X136.302Y-80.6
X136.302Y-81.5
X136.302Y-82.6
X136.302Y-83.4
X136.302Y-84.3
X136.302Y-86.1
X136.302Y-87.075
X136.302Y-88.0
X136.302Y-89.1
X136.326Y-85.124
X136.401Y-124.5
X136.7Y-153.5
X136.8Y-161.8
X137.001Y-107.5
X137.001Y-109.2
X137.001Y-117.9
X137.001Y-120.0
X137.5Y-57.08
X138.2Y-38.8
X138.4Y-119.4
X138.625Y-87.625
X138.7Y-148.8
X139.192Y-119.287
X139.6Y-33.6
X139.864Y-118.853
X140.3Y-164.303
X140.5Y-118.1
X140.8Y-149.5
X140.9Y-35.1
X141.2Y-119.0
X141.249Y-157.349
X141.501Y-43.9
X141.8Y-45.7
X141.9Y-143.7
X142.0Y-146.3
X142.1Y-101.3
X142.1Y-158.5
X142.2Y-154.4
X142.3Y-144.9
X142.6Y-22.6
X143.3Y-163.6
X148.4Y-123.0
X150.5Y-119.293
X150.5Y-155.9
X150.7Y-109.7
X150.7Y-146.3
X150.8Y-102.7
X150.8Y-112.2
X150.8Y-134.2
X150.8Y-157.0
X150.9Y-113.3
X150.9Y-145.0
X150.9Y-153.3
X151.0Y-101.3
X151.0Y-108.4
X151.1Y-79.5
X151.3Y-37.5
X151.4Y-30.0
X151.4Y-38.7
X151.4Y-64.2
X151.4Y-73.5
X151.4Y-93.4
X151.5Y-24.0
X151.5Y-26.5
X151.5Y-74.5
X151.6Y-27.7
X151.6Y-62.8
X151.9Y-70.025
X151.9Y-151.3
X152.1Y-34.5
X152.7Y-69.0
X152.8Y-30.3
X152.8Y-66.1
X152.9Y-149.1
X153.0Y-143.5
X153.0Y-153.2
X153.3Y-32.3
X153.3Y-104.4
X153.6Y-140.5
X153.7Y-45.6
X153.7Y-98.6
X153.7Y-108.6
X153.8Y-70.7
X155.5Y-108.7
X156.5Y-89.1
X156.7Y-37.7
X156.8Y-63.2
X156.8Y-74.6
X156.9Y-78.9
X157.0Y-42.0
X157.0Y-52.1
X158.1Y-148.3
X158.1Y-156.1
X159.0Y-27.3
X159.1Y-24.0
X160.7Y-26.0
X160.9Y-171.2
X161.0Y-174.003
X163.2Y-51.9
X163.662Y-140.2
X163.762Y-115.0
X163.924Y-127.1
X164.262Y-152.9
X164.7Y-40.2
X166.4Y-86.9
X169.0Y-35.8
X169.2Y-169.5
X173.4Y-90.0
X176.262Y-157.1
X176.4Y-170.7
X176.524Y-131.8
X176.7Y-118.4
X177.062Y-143.6
X182.75Y-80.05
X183.1Y-71.1
X183.9Y-163.6
X184.7Y-161.3
X188.5Y-37.8
X188.6Y-46.4
X188.75Y-54.15
X188.8Y-79.1
X189.0Y-87.2
X189.3Y-70.1
X189.8Y-164.8
X190.9Y-37.5
X191.0Y-45.9
X191.0Y-62.1
X191.2Y-53.7
X191.3Y-70.0
X191.3Y-79.1
X191.5Y-87.1
X191.5Y-170.4
X191.9Y-169.1
X193.349Y-35.799
X193.4Y-94.6
X193.44Y-43.423
X193.44Y-76.723
X193.54Y-51.723
X193.64Y-60.323
X193.84Y-68.323
X194.7Y-64.6
X195.0Y-87.9
X195.0Y-167.1
X195.4Y-105.9
X196.9Y-68.6
X197.0Y-52.0
X197.2Y-60.9
X197.5Y-45.6
X197.6Y-64.9
X197.9Y-76.8
X198.4Y-89.7
X199.9Y-158.9
X200.0Y-60.9
X200.1Y-76.9
X200.2Y-145.6
X200.3Y-51.9
X202.6Y-132.3
X203.5Y-100.9
X205.6Y-130.0
X206.5Y-128.6
X209.713Y-94.5
X210.4Y-88.1
T2
X56.8Y-78.1
X59.4Y-78.4
X60.999Y-55.567
X61.236Y-43.317
X61.425Y-107.0
X61.5Y-117.825
X61.5Y-128.85
X61.6Y-74.0
X61.736Y-67.317
X61.9Y-75.8
X62.075Y-140.6
X66.337Y-42.317
X66.399Y-54.567
X66.4Y-41.2
X66.4Y-53.5
X66.8Y-105.0
X66.8Y-115.7
X66.807Y-127.748
X66.825Y-106.1
X66.9Y-74.6
X66.9Y-116.725
X66.9Y-126.8
X67.1Y-75.7
X67.136Y-66.317
X67.2Y-78.0
X67.237Y-65.2
X67.275Y-139.6
X67.376Y-138.5
X79.4Y-25.2
X79.4Y-33.0
X79.5Y-43.4
X79.6Y-53.8
X79.645Y-158.855
X79.7Y-63.7
X79.795Y-148.805
X79.8Y-73.5
X80.1Y-81.9
X82.5Y-82.1
X87.85Y-126.05
X88.15Y-71.25
X88.25Y-116.45
X88.25Y-122.15
X88.25Y-136.05
X88.25Y-141.75
X88.25Y-156.05
X88.337Y-61.85
X88.337Y-67.55
X88.45Y-92.75
X88.45Y-106.45
X88.55Y-41.85
X88.55Y-47.55
X88.7Y-22.2
X88.7Y-27.9
X88.75Y-96.45
X88.75Y-102.15
X89.15Y-31.75
X89.15Y-37.45
X89.7Y-57.3
X89.8Y-83.3
X90.4Y-74.2
X90.4Y-86.6
X90.7Y-51.5
X90.8Y-146.4
X91.2Y-131.9
X91.4Y-112.175
X91.7Y-161.0
X92.1Y-151.6
X93.0Y-97.563
X93.7Y-79.2
X94.5Y-89.3
X94.5Y-100.076
X94.555Y-90.955
X94.569Y-25.169
X94.569Y-32.969
X94.669Y-43.369
X94.769Y-53.769
X94.869Y-63.669
X94.9Y-97.9
X94.969Y-73.469
X95.295Y-158.905
X102.9Y-79.2
X103.0Y-125.8
X103.3Y-71.0
X103.4Y-82.8
X103.4Y-116.2
X103.4Y-135.8
X103.4Y-155.8
X103.487Y-61.6
X103.6Y-86.8
X103.6Y-92.5
X103.6Y-106.2
X103.7Y-41.6
X103.7Y-47.3
X103.7Y-51.8
X103.8Y-146.3
X103.85Y-21.95
X103.85Y-27.65
X103.9Y-31.6
X103.9Y-37.3
X103.9Y-96.2
X103.9Y-101.9
X104.7Y-83.8
X104.7Y-162.9
X104.8Y-67.6
X105.7Y-77.2
X105.7Y-112.0
X105.9Y-132.0
X106.0Y-141.8
X106.3Y-57.5
X106.6Y-122.1
X107.1Y-150.0
X107.7Y-86.7
X107.7Y-91.0
X107.7Y-96.2
X109.4Y-97.4
X109.445Y-158.355
X109.712Y-25.175
X109.712Y-32.837
X109.8Y-100.076
X109.8Y-117.9
X109.8Y-128.0
X109.8Y-138.0
X109.8Y-148.8
X109.812Y-43.237
X109.895Y-108.305
X109.912Y-53.637
X110.012Y-63.537
X110.1Y-73.6
X115.1Y-79.7
X116.5Y-72.4
X117.3Y-156.425
X117.545Y-83.845
X118.4Y-126.1
X118.8Y-116.5
X118.8Y-122.2
X118.8Y-136.1
X118.8Y-141.8
X118.887Y-61.3
X118.9Y-69.3
X119.0Y-87.1
X119.0Y-92.8
X119.0Y-106.5
X119.1Y-41.9
X119.1Y-47.6
X119.1Y-52.1
X119.25Y-27.95
X119.25Y-31.95
X119.25Y-37.65
X119.3Y-96.5
X119.3Y-102.2
X119.6Y-163.1
X120.5Y-132.2
X120.6Y-74.3
X120.7Y-22.4
X120.7Y-57.585
X120.9Y-67.3
X121.0Y-146.2
X121.0Y-152.0
X121.6Y-72.8
X122.1Y-111.6
X122.2Y-69.4
X122.407Y-96.188
X122.6Y-76.4
X122.6Y-86.6
X122.6Y-90.902
X124.0Y-100.076
X124.101Y-107.1
X124.101Y-117.6
X124.101Y-127.5
X124.101Y-137.5
X124.101Y-148.7
X124.3Y-72.2
X124.562Y-158.138
X124.625Y-25.175
X124.625Y-32.837
X124.725Y-43.237
X124.8Y-53.3
X124.925Y-63.537
X125.5Y-100.7
X131.1Y-66.6
X131.1Y-142.0
X131.1Y-160.1
X131.2Y-76.8
X131.2Y-151.0
X131.3Y-85.3
X131.3Y-112.1
X131.394Y-90.994
X131.5Y-100.7
X131.6Y-116.4
X131.8Y-122.2
X131.95Y-132.15
X132.0Y-47.8
X132.0Y-57.8
X132.15Y-37.85
X132.8Y-28.3
X132.9Y-61.2
X132.9Y-146.3
X133.1Y-126.0
X133.3Y-31.7
X133.4Y-71.2
X133.5Y-136.0
X133.5Y-156.0
X133.7Y-106.4
X133.8Y-41.8
X133.8Y-52.0
X133.95Y-22.15
X134.0Y-96.4
X134.938Y-91.4
X137.4Y-90.0
X141.5Y-105.3
X141.8Y-115.7
X141.9Y-30.0
X142.0Y-148.7
X142.2Y-66.7
X142.2Y-159.6
X142.6Y-77.2
X142.895Y-41.495
X150.6Y-150.6
X150.6Y-154.5
X150.7Y-103.8
X150.7Y-110.8
X150.7Y-158.3
X150.8Y-100.0
X150.8Y-139.8
X150.8Y-143.7
X150.8Y-147.4
X150.9Y-96.1
X150.9Y-107.0
X150.9Y-114.5
X151.2Y-39.9
X151.3Y-36.1
X151.4Y-25.2
X151.4Y-28.9
X151.4Y-72.1
X151.4Y-75.9
X151.5Y-20.9
X151.5Y-57.7
X151.5Y-61.5
X151.5Y-68.2
X151.6Y-65.4
X151.633Y-31.433
X154.7Y-29.7
X154.9Y-47.3
X154.9Y-57.0
X154.9Y-79.9
X155.0Y-67.7
X165.387Y-78.949
X165.387Y-80.049
X165.412Y-68.199
X165.512Y-69.199
X165.743Y-45.443
X165.781Y-56.399
X165.843Y-46.891
X165.881Y-57.499
X166.462Y-118.7
X166.512Y-117.65
X166.562Y-142.8
X166.562Y-143.8
X166.837Y-130.4
X166.906Y-131.398
X167.062Y-155.4
X167.162Y-156.4
X170.687Y-78.049
X171.012Y-67.199
X171.281Y-55.299
X171.843Y-44.843
X171.963Y-141.9
X172.237Y-129.4
X172.362Y-116.7
X172.362Y-154.6
X176.262Y-156.1
X176.725Y-130.8
X176.799Y-117.4
X177.062Y-142.5
X178.463Y-159.8
X178.7Y-134.3
X178.799Y-121.3
X179.162Y-146.3
X181.762Y-155.1
X182.024Y-129.737
X182.2Y-116.5
X182.463Y-141.7
X183.937Y-120.4
X183.963Y-159.4
X183.999Y-133.2
X184.362Y-146.1
X185.999Y-40.249
X185.999Y-46.249
X186.0Y-122.6
X186.099Y-38.349
X186.199Y-32.449
X186.212Y-48.324
X186.274Y-73.499
X186.312Y-54.424
X186.349Y-62.999
X186.349Y-65.149
X186.374Y-79.799
X186.374Y-81.799
X186.449Y-56.799
X186.449Y-71.349
X186.474Y-88.399
X186.574Y-90.599
X186.674Y-97.199
X189.8Y-123.1
X191.162Y-155.5
X191.162Y-156.5
X191.325Y-129.7
X191.325Y-130.7
X191.325Y-143.6
X191.387Y-142.45
X191.599Y-117.8
X191.599Y-116.7
X192.549Y-35.274
X192.649Y-76.199
X192.749Y-42.899
X192.749Y-51.099
X192.849Y-84.699
X192.949Y-59.799
X193.049Y-67.699
X193.049Y-93.299
X196.561Y-154.6
X196.624Y-128.7
X196.662Y-141.5
X196.7Y-115.7
X197.362Y-156.4
X197.425Y-142.75
X198.399Y-116.8
X198.599Y-130.0
X202.812Y-64.824
X202.825Y-141.75
X203.062Y-155.5
X203.7Y-115.8
X203.999Y-129.0
X208.312Y-63.924
X208.412Y-62.724
T3
X48.0Y-81.1
X48.0Y-93.8
X48.1Y-87.6
X48.5Y-74.9
X49.036Y-42.417
X49.1Y-24.4
X49.2Y-29.8
X49.436Y-65.617
X49.499Y-53.267
X205.4Y-74.1
T4
X44.564Y-15.164
X44.564Y-174.336
X211.936Y-15.164
X211.936Y-174.336
M30
