%TF.GenerationSoftware,KiCad,Pcbnew,9.0.4*%
%TF.CreationDate,2026-08-03T03:57:57-04:00*%
%TF.ProjectId,analog_NN,616e616c-6f67-45f4-9e4e-2e6b69636164,rev?*%
%TF.SameCoordinates,Original*%
%TF.FileFunction,Drillmap*%
%TF.FilePolarity,Positive*%
%FSLAX45Y45*%
G04 Gerber Fmt 4.5, Leading zero omitted, Abs format (unit mm)*
G04 Created by KiCad (PCBNEW 9.0.4) date 2026-08-03 03:57:57*
%MOMM*%
%LPD*%
G01*
G04 APERTURE LIST*
%ADD10C,0.050000*%
%ADD11C,0.200000*%
%ADD12C,0.100000*%
%ADD13C,0.320000*%
G04 APERTURE END LIST*
D10*
X21740000Y-1470000D02*
X21740000Y-17480000D01*
X3910000Y-17480000D02*
X3910000Y-1470000D01*
X4410000Y-17980000D02*
G75*
G02*
X3910000Y-17480000I0J500000D01*
G01*
X21240000Y-17980000D02*
X4410000Y-17980000D01*
X21740000Y-17480000D02*
G75*
G02*
X21240000Y-17980000I-500000J0D01*
G01*
X21240000Y-970000D02*
G75*
G02*
X21740000Y-1470000I0J-500000D01*
G01*
X4410000Y-970000D02*
X21240000Y-970000D01*
X3910000Y-1470000D02*
G75*
G02*
X4410000Y-970000I500000J0D01*
G01*
D11*
D12*
X4975000Y-11645000D02*
X5005000Y-11675000D01*
X5005000Y-11645000D02*
X4975000Y-11675000D01*
X5205000Y-12685000D02*
X5235000Y-12715000D01*
X5235000Y-12685000D02*
X5205000Y-12715000D01*
X5895000Y-14445000D02*
X5925000Y-14475000D01*
X5925000Y-14445000D02*
X5895000Y-14475000D01*
X7265000Y-6565000D02*
X7295000Y-6595000D01*
X7295000Y-6565000D02*
X7265000Y-6595000D01*
X7325000Y-15185000D02*
X7355000Y-15215000D01*
X7355000Y-15185000D02*
X7325000Y-15215000D01*
X7355000Y-10165000D02*
X7385000Y-10195000D01*
X7385000Y-10165000D02*
X7355000Y-10195000D01*
X7365000Y-5545000D02*
X7395000Y-5575000D01*
X7395000Y-5545000D02*
X7365000Y-5575000D01*
X7365000Y-9275000D02*
X7395000Y-9305000D01*
X7395000Y-9275000D02*
X7365000Y-9305000D01*
X7365000Y-12065000D02*
X7395000Y-12095000D01*
X7395000Y-12065000D02*
X7365000Y-12095000D01*
X7365000Y-14035000D02*
X7395000Y-14065000D01*
X7395000Y-14035000D02*
X7365000Y-14065000D01*
X7385000Y-3735000D02*
X7415000Y-3765000D01*
X7415000Y-3735000D02*
X7385000Y-3765000D01*
X7385000Y-7595000D02*
X7415000Y-7625000D01*
X7415000Y-7595000D02*
X7385000Y-7625000D01*
X7395000Y-4695000D02*
X7425000Y-4725000D01*
X7425000Y-4695000D02*
X7395000Y-4725000D01*
X7405000Y-2705000D02*
X7435000Y-2735000D01*
X7435000Y-2705000D02*
X7405000Y-2735000D01*
X7405000Y-13225000D02*
X7435000Y-13255000D01*
X7435000Y-13225000D02*
X7405000Y-13255000D01*
X7415000Y-11095000D02*
X7445000Y-11125000D01*
X7445000Y-11095000D02*
X7415000Y-11125000D01*
X7465000Y-2175000D02*
X7495000Y-2205000D01*
X7495000Y-2175000D02*
X7465000Y-2205000D01*
X7470000Y-2010000D02*
X7500000Y-2040000D01*
X7500000Y-2010000D02*
X7470000Y-2040000D01*
X7535000Y-14335000D02*
X7565000Y-14365000D01*
X7565000Y-14335000D02*
X7535000Y-14365000D01*
X7535000Y-14505000D02*
X7565000Y-14535000D01*
X7565000Y-14505000D02*
X7535000Y-14535000D01*
X7545000Y-12345000D02*
X7575000Y-12375000D01*
X7575000Y-12345000D02*
X7545000Y-12375000D01*
X7545000Y-12495000D02*
X7575000Y-12525000D01*
X7575000Y-12495000D02*
X7545000Y-12525000D01*
X7545000Y-13335000D02*
X7575000Y-13365000D01*
X7575000Y-13335000D02*
X7545000Y-13365000D01*
X7545000Y-13485000D02*
X7575000Y-13515000D01*
X7575000Y-13485000D02*
X7545000Y-13515000D01*
X7555000Y-10345000D02*
X7585000Y-10375000D01*
X7585000Y-10345000D02*
X7555000Y-10375000D01*
X7555000Y-10505000D02*
X7585000Y-10535000D01*
X7585000Y-10505000D02*
X7555000Y-10535000D01*
X7555000Y-11365000D02*
X7585000Y-11395000D01*
X7585000Y-11365000D02*
X7555000Y-11395000D01*
X7555000Y-11495000D02*
X7585000Y-11525000D01*
X7585000Y-11495000D02*
X7555000Y-11525000D01*
X7565000Y-2905000D02*
X7595000Y-2935000D01*
X7595000Y-2905000D02*
X7565000Y-2935000D01*
X7565000Y-3025000D02*
X7595000Y-3055000D01*
X7595000Y-3025000D02*
X7565000Y-3055000D01*
X7565000Y-3875000D02*
X7595000Y-3905000D01*
X7595000Y-3875000D02*
X7565000Y-3905000D01*
X7565000Y-5065000D02*
X7595000Y-5095000D01*
X7595000Y-5065000D02*
X7565000Y-5095000D01*
X7565000Y-6875000D02*
X7595000Y-6905000D01*
X7595000Y-6875000D02*
X7565000Y-6905000D01*
X7565000Y-7025000D02*
X7595000Y-7055000D01*
X7595000Y-7025000D02*
X7565000Y-7055000D01*
X7565000Y-8415000D02*
X7595000Y-8445000D01*
X7595000Y-8415000D02*
X7565000Y-8445000D01*
X7565000Y-9365000D02*
X7595000Y-9395000D01*
X7595000Y-9365000D02*
X7565000Y-9395000D01*
X7565000Y-9505000D02*
X7595000Y-9535000D01*
X7595000Y-9505000D02*
X7565000Y-9535000D01*
X7575000Y-4025000D02*
X7605000Y-4055000D01*
X7605000Y-4025000D02*
X7575000Y-4055000D01*
X7575000Y-5875000D02*
X7605000Y-5905000D01*
X7605000Y-5875000D02*
X7575000Y-5905000D01*
X7575000Y-6015000D02*
X7605000Y-6045000D01*
X7605000Y-6015000D02*
X7575000Y-6045000D01*
X7575000Y-8565000D02*
X7605000Y-8595000D01*
X7605000Y-8565000D02*
X7575000Y-8595000D01*
X7585000Y-4915000D02*
X7615000Y-4945000D01*
X7615000Y-4915000D02*
X7585000Y-4945000D01*
X7635000Y-9355000D02*
X7665000Y-9385000D01*
X7665000Y-9355000D02*
X7635000Y-9385000D01*
X7635000Y-15185000D02*
X7665000Y-15215000D01*
X7665000Y-15185000D02*
X7635000Y-15215000D01*
X7645000Y-12295000D02*
X7675000Y-12325000D01*
X7675000Y-12295000D02*
X7645000Y-12325000D01*
X7655000Y-6805000D02*
X7685000Y-6835000D01*
X7685000Y-6805000D02*
X7655000Y-6835000D01*
X7655000Y-13215000D02*
X7685000Y-13245000D01*
X7685000Y-13215000D02*
X7655000Y-13245000D01*
X7665000Y-14305000D02*
X7695000Y-14335000D01*
X7695000Y-14305000D02*
X7665000Y-14335000D01*
X7675000Y-5805000D02*
X7705000Y-5835000D01*
X7705000Y-5805000D02*
X7675000Y-5835000D01*
X7685000Y-3815000D02*
X7715000Y-3845000D01*
X7715000Y-3815000D02*
X7685000Y-3845000D01*
X7685000Y-4865000D02*
X7715000Y-4895000D01*
X7715000Y-4865000D02*
X7685000Y-4895000D01*
X7685000Y-10315000D02*
X7715000Y-10345000D01*
X7715000Y-10315000D02*
X7685000Y-10345000D01*
X7685000Y-15305000D02*
X7715000Y-15335000D01*
X7715000Y-15305000D02*
X7685000Y-15335000D01*
X7695000Y-1925000D02*
X7725000Y-1955000D01*
X7725000Y-1925000D02*
X7695000Y-1955000D01*
X7705000Y-11075000D02*
X7735000Y-11105000D01*
X7735000Y-11075000D02*
X7705000Y-11105000D01*
X7735000Y-2695000D02*
X7765000Y-2725000D01*
X7765000Y-2695000D02*
X7735000Y-2725000D01*
X7755000Y-5735000D02*
X7785000Y-5765000D01*
X7785000Y-5735000D02*
X7755000Y-5765000D01*
X7755000Y-6095000D02*
X7785000Y-6125000D01*
X7785000Y-6095000D02*
X7755000Y-6125000D01*
X7755000Y-7845000D02*
X7785000Y-7875000D01*
X7785000Y-7845000D02*
X7755000Y-7875000D01*
X7755000Y-14175000D02*
X7785000Y-14205000D01*
X7785000Y-14175000D02*
X7755000Y-14205000D01*
X7755000Y-14605000D02*
X7785000Y-14635000D01*
X7785000Y-14605000D02*
X7755000Y-14635000D01*
X7755000Y-15195000D02*
X7785000Y-15225000D01*
X7785000Y-15195000D02*
X7755000Y-15225000D01*
X7755000Y-15625000D02*
X7785000Y-15655000D01*
X7785000Y-15625000D02*
X7755000Y-15655000D01*
X7765000Y-4745000D02*
X7795000Y-4775000D01*
X7795000Y-4745000D02*
X7765000Y-4775000D01*
X7765000Y-5105000D02*
X7795000Y-5135000D01*
X7795000Y-5105000D02*
X7765000Y-5135000D01*
X7765000Y-6735000D02*
X7795000Y-6765000D01*
X7795000Y-6735000D02*
X7765000Y-6765000D01*
X7765000Y-7095000D02*
X7795000Y-7125000D01*
X7795000Y-7095000D02*
X7765000Y-7125000D01*
X7765000Y-11215000D02*
X7795000Y-11245000D01*
X7795000Y-11215000D02*
X7765000Y-11245000D01*
X7765000Y-11575000D02*
X7795000Y-11605000D01*
X7795000Y-11575000D02*
X7765000Y-11605000D01*
X7765000Y-12205000D02*
X7795000Y-12235000D01*
X7795000Y-12205000D02*
X7765000Y-12235000D01*
X7765000Y-12565000D02*
X7795000Y-12595000D01*
X7795000Y-12565000D02*
X7765000Y-12595000D01*
X7765000Y-13195000D02*
X7795000Y-13225000D01*
X7795000Y-13195000D02*
X7765000Y-13225000D01*
X7765000Y-13555000D02*
X7795000Y-13585000D01*
X7795000Y-13555000D02*
X7765000Y-13585000D01*
X7775000Y-10225000D02*
X7805000Y-10255000D01*
X7805000Y-10225000D02*
X7775000Y-10255000D01*
X7775000Y-10585000D02*
X7805000Y-10615000D01*
X7805000Y-10585000D02*
X7775000Y-10615000D01*
X7785000Y-3745000D02*
X7815000Y-3775000D01*
X7815000Y-3745000D02*
X7785000Y-3775000D01*
X7785000Y-4105000D02*
X7815000Y-4135000D01*
X7815000Y-4105000D02*
X7785000Y-4135000D01*
X7785000Y-9255000D02*
X7815000Y-9285000D01*
X7815000Y-9255000D02*
X7785000Y-9285000D01*
X7785000Y-9615000D02*
X7815000Y-9645000D01*
X7815000Y-9615000D02*
X7785000Y-9645000D01*
X7805000Y-11985000D02*
X7835000Y-12015000D01*
X7835000Y-11985000D02*
X7805000Y-12015000D01*
X7815000Y-2785000D02*
X7845000Y-2815000D01*
X7845000Y-2785000D02*
X7815000Y-2815000D01*
X7815000Y-3145000D02*
X7845000Y-3175000D01*
X7845000Y-3145000D02*
X7815000Y-3175000D01*
X7855000Y-16745000D02*
X7885000Y-16775000D01*
X7885000Y-16745000D02*
X7855000Y-16775000D01*
X7877426Y-16202573D02*
X7907426Y-16232573D01*
X7907426Y-16202573D02*
X7877426Y-16232573D01*
X7884900Y-8985000D02*
X7914900Y-9015000D01*
X7914900Y-8985000D02*
X7884900Y-9015000D01*
X7884900Y-9755000D02*
X7914900Y-9785000D01*
X7914900Y-9755000D02*
X7884900Y-9785000D01*
X7884900Y-10775000D02*
X7914900Y-10805000D01*
X7914900Y-10775000D02*
X7884900Y-10805000D01*
X7884900Y-11735000D02*
X7914900Y-11765000D01*
X7914900Y-11735000D02*
X7884900Y-11765000D01*
X7884900Y-12785000D02*
X7914900Y-12815000D01*
X7914900Y-12785000D02*
X7884900Y-12815000D01*
X7884900Y-13755000D02*
X7914900Y-13785000D01*
X7914900Y-13755000D02*
X7884900Y-13785000D01*
X7955000Y-9185000D02*
X7985000Y-9215000D01*
X7985000Y-9185000D02*
X7955000Y-9215000D01*
X7975000Y-7575000D02*
X8005000Y-7605000D01*
X8005000Y-7575000D02*
X7975000Y-7605000D01*
X7985000Y-8435000D02*
X8015000Y-8465000D01*
X8015000Y-8435000D02*
X7985000Y-8465000D01*
X7989447Y-13760552D02*
X8019447Y-13790552D01*
X8019447Y-13760552D02*
X7989447Y-13790552D01*
X7995000Y-16105000D02*
X8025000Y-16135000D01*
X8025000Y-16105000D02*
X7995000Y-16135000D01*
X8004447Y-10795553D02*
X8034447Y-10825553D01*
X8034447Y-10795553D02*
X8004447Y-10825553D01*
X8014645Y-9315355D02*
X8044645Y-9345355D01*
X8044645Y-9315355D02*
X8014645Y-9345355D01*
X8015000Y-8895000D02*
X8045000Y-8925000D01*
X8045000Y-8895000D02*
X8015000Y-8925000D01*
X8015000Y-11845000D02*
X8045000Y-11875000D01*
X8045000Y-11845000D02*
X8015000Y-11875000D01*
X8015000Y-16565000D02*
X8045000Y-16595000D01*
X8045000Y-16565000D02*
X8015000Y-16595000D01*
X8019497Y-15695000D02*
X8049497Y-15725000D01*
X8049497Y-15695000D02*
X8019497Y-15725000D01*
X8025000Y-11430000D02*
X8055000Y-11460000D01*
X8055000Y-11430000D02*
X8025000Y-11460000D01*
X8025000Y-11590000D02*
X8055000Y-11620000D01*
X8055000Y-11590000D02*
X8025000Y-11620000D01*
X8025000Y-12085000D02*
X8055000Y-12115000D01*
X8055000Y-12085000D02*
X8025000Y-12115000D01*
X8025000Y-12412500D02*
X8055000Y-12442500D01*
X8055000Y-12412500D02*
X8025000Y-12442500D01*
X8025000Y-12572500D02*
X8055000Y-12602500D01*
X8055000Y-12572500D02*
X8025000Y-12602500D01*
X8025000Y-13402500D02*
X8055000Y-13432500D01*
X8055000Y-13402500D02*
X8025000Y-13432500D01*
X8025000Y-13562500D02*
X8055000Y-13592500D01*
X8055000Y-13562500D02*
X8025000Y-13592500D01*
X8035000Y-4962500D02*
X8065000Y-4992500D01*
X8065000Y-4962500D02*
X8035000Y-4992500D01*
X8035000Y-5122500D02*
X8065000Y-5152500D01*
X8065000Y-5122500D02*
X8035000Y-5152500D01*
X8035000Y-5855000D02*
X8065000Y-5885000D01*
X8065000Y-5855000D02*
X8035000Y-5885000D01*
X8035000Y-5945000D02*
X8065000Y-5975000D01*
X8065000Y-5945000D02*
X8035000Y-5975000D01*
X8035000Y-6105000D02*
X8065000Y-6135000D01*
X8065000Y-6105000D02*
X8035000Y-6135000D01*
X8035000Y-6935000D02*
X8065000Y-6965000D01*
X8065000Y-6935000D02*
X8035000Y-6965000D01*
X8035000Y-7095000D02*
X8065000Y-7125000D01*
X8065000Y-7095000D02*
X8035000Y-7125000D01*
X8035000Y-7895000D02*
X8065000Y-7925000D01*
X8065000Y-7895000D02*
X8035000Y-7925000D01*
X8035000Y-14415000D02*
X8065000Y-14445000D01*
X8065000Y-14415000D02*
X8035000Y-14445000D01*
X8035000Y-14575000D02*
X8065000Y-14605000D01*
X8065000Y-14575000D02*
X8035000Y-14605000D01*
X8035000Y-15405000D02*
X8065000Y-15435000D01*
X8065000Y-15405000D02*
X8035000Y-15435000D01*
X8035000Y-15565000D02*
X8065000Y-15595000D01*
X8065000Y-15565000D02*
X8035000Y-15595000D01*
X8037361Y-13035000D02*
X8067361Y-13065000D01*
X8067361Y-13035000D02*
X8037361Y-13065000D01*
X8037663Y-14813092D02*
X8067663Y-14843092D01*
X8067663Y-14813092D02*
X8037663Y-14843092D01*
X8042500Y-10432500D02*
X8072500Y-10462500D01*
X8072500Y-10432500D02*
X8042500Y-10462500D01*
X8042500Y-10592500D02*
X8072500Y-10622500D01*
X8072500Y-10592500D02*
X8042500Y-10622500D01*
X8045000Y-12835000D02*
X8075000Y-12865000D01*
X8075000Y-12835000D02*
X8045000Y-12865000D01*
X8045000Y-15805000D02*
X8075000Y-15835000D01*
X8075000Y-15805000D02*
X8045000Y-15835000D01*
X8047500Y-9437500D02*
X8077500Y-9467500D01*
X8077500Y-9437500D02*
X8047500Y-9467500D01*
X8047500Y-9597500D02*
X8077500Y-9627500D01*
X8077500Y-9597500D02*
X8047500Y-9627500D01*
X8052500Y-3965000D02*
X8082500Y-3995000D01*
X8082500Y-3965000D02*
X8052500Y-3995000D01*
X8052500Y-4125000D02*
X8082500Y-4155000D01*
X8082500Y-4125000D02*
X8052500Y-4155000D01*
X8055000Y-5345000D02*
X8085000Y-5375000D01*
X8085000Y-5345000D02*
X8055000Y-5375000D01*
X8055000Y-7325000D02*
X8085000Y-7355000D01*
X8085000Y-7325000D02*
X8055000Y-7355000D01*
X8055000Y-8482500D02*
X8085000Y-8512500D01*
X8085000Y-8482500D02*
X8055000Y-8512500D01*
X8055000Y-8642500D02*
X8085000Y-8672500D01*
X8085000Y-8642500D02*
X8055000Y-8672500D01*
X8057500Y-2970000D02*
X8087500Y-3000000D01*
X8087500Y-2970000D02*
X8057500Y-3000000D01*
X8057500Y-3130000D02*
X8087500Y-3160000D01*
X8087500Y-3130000D02*
X8057500Y-3160000D01*
X8059497Y-6360502D02*
X8089497Y-6390502D01*
X8089497Y-6360502D02*
X8059497Y-6390502D01*
X8065000Y-2015000D02*
X8095000Y-2045000D01*
X8095000Y-2015000D02*
X8065000Y-2045000D01*
X8065000Y-2175000D02*
X8095000Y-2205000D01*
X8095000Y-2175000D02*
X8065000Y-2205000D01*
X8065000Y-2375000D02*
X8095000Y-2405000D01*
X8095000Y-2375000D02*
X8065000Y-2405000D01*
X8065000Y-5575000D02*
X8095000Y-5605000D01*
X8095000Y-5575000D02*
X8065000Y-5605000D01*
X8065000Y-9165000D02*
X8095000Y-9195000D01*
X8095000Y-9165000D02*
X8065000Y-9195000D01*
X8065000Y-9855000D02*
X8095000Y-9885000D01*
X8095000Y-9855000D02*
X8065000Y-9885000D01*
X8075000Y-4335000D02*
X8105000Y-4365000D01*
X8105000Y-4335000D02*
X8075000Y-4365000D01*
X8075000Y-4585000D02*
X8105000Y-4615000D01*
X8105000Y-4585000D02*
X8075000Y-4615000D01*
X8085000Y-9244289D02*
X8115000Y-9274289D01*
X8115000Y-9244289D02*
X8085000Y-9274289D01*
X8125000Y-3355000D02*
X8155000Y-3385000D01*
X8155000Y-3355000D02*
X8125000Y-3385000D01*
X8135000Y-4815000D02*
X8165000Y-4845000D01*
X8165000Y-4815000D02*
X8135000Y-4845000D01*
X8185000Y-13315000D02*
X8215000Y-13345000D01*
X8215000Y-13315000D02*
X8185000Y-13345000D01*
X8195000Y-1935000D02*
X8225000Y-1965000D01*
X8225000Y-1935000D02*
X8195000Y-1965000D01*
X8195000Y-15315000D02*
X8225000Y-15345000D01*
X8225000Y-15315000D02*
X8195000Y-15345000D01*
X8305000Y-5755000D02*
X8335000Y-5785000D01*
X8335000Y-5755000D02*
X8305000Y-5785000D01*
X8315000Y-16505000D02*
X8345000Y-16535000D01*
X8345000Y-16505000D02*
X8315000Y-16535000D01*
X8345000Y-13175000D02*
X8375000Y-13205000D01*
X8375000Y-13175000D02*
X8345000Y-13205000D01*
X8345000Y-16305000D02*
X8375000Y-16335000D01*
X8375000Y-16305000D02*
X8345000Y-16335000D01*
X8415000Y-4655000D02*
X8445000Y-4685000D01*
X8445000Y-4655000D02*
X8415000Y-4685000D01*
X8845000Y-7715000D02*
X8875000Y-7745000D01*
X8875000Y-7715000D02*
X8845000Y-7745000D01*
X9205000Y-7855000D02*
X9235000Y-7885000D01*
X9235000Y-7855000D02*
X9205000Y-7885000D01*
X9285000Y-6745000D02*
X9315000Y-6775000D01*
X9315000Y-6745000D02*
X9285000Y-6775000D01*
X9285000Y-7105000D02*
X9315000Y-7135000D01*
X9315000Y-7105000D02*
X9285000Y-7135000D01*
X9292574Y-7407426D02*
X9322574Y-7437426D01*
X9322574Y-7407426D02*
X9292574Y-7437426D01*
X9295000Y-13205000D02*
X9325000Y-13235000D01*
X9325000Y-13205000D02*
X9295000Y-13235000D01*
X9295000Y-13565000D02*
X9325000Y-13595000D01*
X9325000Y-13565000D02*
X9295000Y-13595000D01*
X9295000Y-14175000D02*
X9325000Y-14205000D01*
X9325000Y-14175000D02*
X9295000Y-14205000D01*
X9295000Y-14605000D02*
X9325000Y-14635000D01*
X9325000Y-14605000D02*
X9295000Y-14635000D01*
X9295000Y-15205000D02*
X9325000Y-15235000D01*
X9325000Y-15205000D02*
X9295000Y-15235000D01*
X9295000Y-15565000D02*
X9325000Y-15595000D01*
X9325000Y-15565000D02*
X9295000Y-15595000D01*
X9315000Y-3755000D02*
X9345000Y-3785000D01*
X9345000Y-3755000D02*
X9315000Y-3785000D01*
X9315000Y-4115000D02*
X9345000Y-4145000D01*
X9345000Y-4115000D02*
X9315000Y-4145000D01*
X9315000Y-4745000D02*
X9345000Y-4775000D01*
X9345000Y-4745000D02*
X9315000Y-4775000D01*
X9315000Y-5105000D02*
X9345000Y-5135000D01*
X9345000Y-5105000D02*
X9315000Y-5135000D01*
X9315000Y-5755000D02*
X9345000Y-5785000D01*
X9345000Y-5755000D02*
X9315000Y-5785000D01*
X9315000Y-6115000D02*
X9345000Y-6145000D01*
X9345000Y-6115000D02*
X9315000Y-6145000D01*
X9325000Y-2785000D02*
X9355000Y-2815000D01*
X9355000Y-2785000D02*
X9325000Y-2815000D01*
X9325000Y-3145000D02*
X9355000Y-3175000D01*
X9355000Y-3145000D02*
X9325000Y-3175000D01*
X9325000Y-12215000D02*
X9355000Y-12245000D01*
X9355000Y-12215000D02*
X9325000Y-12245000D01*
X9325000Y-12575000D02*
X9355000Y-12605000D01*
X9355000Y-12575000D02*
X9325000Y-12605000D01*
X9355000Y-9265000D02*
X9385000Y-9295000D01*
X9385000Y-9265000D02*
X9355000Y-9295000D01*
X9355000Y-9625000D02*
X9385000Y-9655000D01*
X9385000Y-9625000D02*
X9355000Y-9655000D01*
X9355000Y-16945000D02*
X9385000Y-16975000D01*
X9385000Y-16945000D02*
X9355000Y-16975000D01*
X9365000Y-10235000D02*
X9395000Y-10265000D01*
X9395000Y-10235000D02*
X9365000Y-10265000D01*
X9365000Y-10595000D02*
X9395000Y-10625000D01*
X9395000Y-10595000D02*
X9365000Y-10625000D01*
X9365000Y-11205000D02*
X9395000Y-11235000D01*
X9395000Y-11205000D02*
X9365000Y-11235000D01*
X9365000Y-11615000D02*
X9395000Y-11645000D01*
X9395000Y-11615000D02*
X9365000Y-11645000D01*
X9365000Y-16285000D02*
X9395000Y-16315000D01*
X9395000Y-16285000D02*
X9365000Y-16315000D01*
X9365000Y-16465000D02*
X9395000Y-16495000D01*
X9395000Y-16465000D02*
X9365000Y-16495000D01*
X9365000Y-16765000D02*
X9395000Y-16795000D01*
X9395000Y-16765000D02*
X9365000Y-16795000D01*
X9391875Y-6245000D02*
X9421875Y-6275000D01*
X9421875Y-6245000D02*
X9391875Y-6275000D01*
X9435000Y-10725000D02*
X9465000Y-10755000D01*
X9465000Y-10725000D02*
X9435000Y-10755000D01*
X9435000Y-11775000D02*
X9465000Y-11805000D01*
X9465000Y-11775000D02*
X9435000Y-11805000D01*
X9435000Y-12785000D02*
X9465000Y-12815000D01*
X9465000Y-12785000D02*
X9435000Y-12815000D01*
X9435000Y-13775000D02*
X9465000Y-13805000D01*
X9465000Y-13775000D02*
X9435000Y-13805000D01*
X9435000Y-14795000D02*
X9465000Y-14825000D01*
X9465000Y-14795000D02*
X9435000Y-14825000D01*
X9475000Y-7695000D02*
X9505000Y-7725000D01*
X9505000Y-7695000D02*
X9475000Y-7725000D01*
X9515000Y-7895000D02*
X9545000Y-7925000D01*
X9545000Y-7895000D02*
X9515000Y-7925000D01*
X9515000Y-8195000D02*
X9545000Y-8225000D01*
X9545000Y-8195000D02*
X9515000Y-8225000D01*
X9515000Y-8845000D02*
X9545000Y-8875000D01*
X9545000Y-8845000D02*
X9515000Y-8875000D01*
X9525000Y-14345000D02*
X9555000Y-14375000D01*
X9555000Y-14345000D02*
X9525000Y-14375000D01*
X9545000Y-11435000D02*
X9575000Y-11465000D01*
X9575000Y-11435000D02*
X9545000Y-11465000D01*
X9545000Y-11595000D02*
X9575000Y-11625000D01*
X9575000Y-11595000D02*
X9545000Y-11625000D01*
X9545000Y-12417500D02*
X9575000Y-12447500D01*
X9575000Y-12417500D02*
X9545000Y-12447500D01*
X9545000Y-12577500D02*
X9575000Y-12607500D01*
X9575000Y-12577500D02*
X9545000Y-12607500D01*
X9545000Y-13407500D02*
X9575000Y-13437500D01*
X9575000Y-13407500D02*
X9545000Y-13437500D01*
X9545000Y-13567500D02*
X9575000Y-13597500D01*
X9575000Y-13567500D02*
X9545000Y-13597500D01*
X9555000Y-4967500D02*
X9585000Y-4997500D01*
X9585000Y-4967500D02*
X9555000Y-4997500D01*
X9555000Y-5127500D02*
X9585000Y-5157500D01*
X9585000Y-5127500D02*
X9555000Y-5157500D01*
X9555000Y-5950000D02*
X9585000Y-5980000D01*
X9585000Y-5950000D02*
X9555000Y-5980000D01*
X9555000Y-6110000D02*
X9585000Y-6140000D01*
X9585000Y-6110000D02*
X9555000Y-6140000D01*
X9555000Y-6940000D02*
X9585000Y-6970000D01*
X9585000Y-6940000D02*
X9555000Y-6970000D01*
X9555000Y-7100000D02*
X9585000Y-7130000D01*
X9585000Y-7100000D02*
X9555000Y-7130000D01*
X9555000Y-14420000D02*
X9585000Y-14450000D01*
X9585000Y-14420000D02*
X9555000Y-14450000D01*
X9555000Y-14580000D02*
X9585000Y-14610000D01*
X9585000Y-14580000D02*
X9555000Y-14610000D01*
X9555000Y-15410000D02*
X9585000Y-15440000D01*
X9585000Y-15410000D02*
X9555000Y-15440000D01*
X9555000Y-15570000D02*
X9585000Y-15600000D01*
X9585000Y-15570000D02*
X9555000Y-15600000D01*
X9562500Y-10437500D02*
X9592500Y-10467500D01*
X9592500Y-10437500D02*
X9562500Y-10467500D01*
X9562500Y-10597500D02*
X9592500Y-10627500D01*
X9592500Y-10597500D02*
X9562500Y-10627500D01*
X9563248Y-13804252D02*
X9593248Y-13834252D01*
X9593248Y-13804252D02*
X9563248Y-13834252D01*
X9565000Y-12775000D02*
X9595000Y-12805000D01*
X9595000Y-12775000D02*
X9565000Y-12805000D01*
X9565000Y-16045702D02*
X9595000Y-16075702D01*
X9595000Y-16045702D02*
X9565000Y-16075702D01*
X9567500Y-9442500D02*
X9597500Y-9472500D01*
X9597500Y-9442500D02*
X9567500Y-9472500D01*
X9567500Y-9602500D02*
X9597500Y-9632500D01*
X9597500Y-9602500D02*
X9567500Y-9632500D01*
X9572500Y-3970000D02*
X9602500Y-4000000D01*
X9602500Y-3970000D02*
X9572500Y-4000000D01*
X9572500Y-4130000D02*
X9602500Y-4160000D01*
X9602500Y-4130000D02*
X9572500Y-4160000D01*
X9573750Y-8486250D02*
X9603750Y-8516250D01*
X9603750Y-8486250D02*
X9573750Y-8516250D01*
X9574498Y-11815502D02*
X9604498Y-11845502D01*
X9604498Y-11815502D02*
X9574498Y-11845502D01*
X9575000Y-2424375D02*
X9605000Y-2454375D01*
X9605000Y-2424375D02*
X9575000Y-2454375D01*
X9575000Y-5375000D02*
X9605000Y-5405000D01*
X9605000Y-5375000D02*
X9575000Y-5405000D01*
X9575000Y-7285000D02*
X9605000Y-7315000D01*
X9605000Y-7285000D02*
X9575000Y-7315000D01*
X9575000Y-8647500D02*
X9605000Y-8677500D01*
X9605000Y-8647500D02*
X9575000Y-8677500D01*
X9575000Y-14835000D02*
X9605000Y-14865000D01*
X9605000Y-14835000D02*
X9575000Y-14865000D01*
X9577500Y-2975000D02*
X9607500Y-3005000D01*
X9607500Y-2975000D02*
X9577500Y-3005000D01*
X9577500Y-3135000D02*
X9607500Y-3165000D01*
X9607500Y-3135000D02*
X9577500Y-3165000D01*
X9585000Y-2020000D02*
X9615000Y-2050000D01*
X9615000Y-2020000D02*
X9585000Y-2050000D01*
X9585000Y-2180000D02*
X9615000Y-2210000D01*
X9615000Y-2180000D02*
X9585000Y-2210000D01*
X9585000Y-15815000D02*
X9615000Y-15845000D01*
X9615000Y-15815000D02*
X9585000Y-15845000D01*
X9605000Y-4355000D02*
X9635000Y-4385000D01*
X9635000Y-4355000D02*
X9605000Y-4385000D01*
X9615000Y-3325000D02*
X9645000Y-3355000D01*
X9645000Y-3325000D02*
X9615000Y-3355000D01*
X9619000Y-6880000D02*
X9649000Y-6910000D01*
X9649000Y-6880000D02*
X9619000Y-6910000D01*
X9619498Y-10810503D02*
X9649498Y-10840503D01*
X9649498Y-10810503D02*
X9619498Y-10840503D01*
X9635000Y-9835000D02*
X9665000Y-9865000D01*
X9665000Y-9835000D02*
X9635000Y-9865000D01*
X9640000Y-8850000D02*
X9670000Y-8880000D01*
X9670000Y-8850000D02*
X9640000Y-8880000D01*
X9645000Y-4907500D02*
X9675000Y-4937500D01*
X9675000Y-4907500D02*
X9645000Y-4937500D01*
X9655000Y-11375000D02*
X9685000Y-11405000D01*
X9685000Y-11375000D02*
X9655000Y-11405000D01*
X9685000Y-15557500D02*
X9715000Y-15587500D01*
X9715000Y-15557500D02*
X9685000Y-15587500D01*
X9815000Y-10377500D02*
X9845000Y-10407500D01*
X9845000Y-10377500D02*
X9815000Y-10407500D01*
X9825000Y-2835000D02*
X9855000Y-2865000D01*
X9855000Y-2835000D02*
X9825000Y-2865000D01*
X9945000Y-16285000D02*
X9975000Y-16315000D01*
X9975000Y-16285000D02*
X9945000Y-16315000D01*
X10015000Y-16125000D02*
X10045000Y-16155000D01*
X10045000Y-16125000D02*
X10015000Y-16155000D01*
X10065000Y-10325000D02*
X10095000Y-10355000D01*
X10095000Y-10325000D02*
X10065000Y-10355000D01*
X10625000Y-2205000D02*
X10655000Y-2235000D01*
X10655000Y-2205000D02*
X10625000Y-2235000D01*
X10645000Y-15671000D02*
X10675000Y-15701000D01*
X10675000Y-15671000D02*
X10645000Y-15701000D01*
X10685000Y-16115000D02*
X10715000Y-16145000D01*
X10715000Y-16115000D02*
X10685000Y-16145000D01*
X10709798Y-15624082D02*
X10739798Y-15654082D01*
X10739798Y-15624082D02*
X10709798Y-15654082D01*
X10775000Y-7715000D02*
X10805000Y-7745000D01*
X10805000Y-7715000D02*
X10775000Y-7745000D01*
X10775000Y-7885000D02*
X10805000Y-7915000D01*
X10805000Y-7885000D02*
X10775000Y-7915000D01*
X10775000Y-15215000D02*
X10805000Y-15245000D01*
X10805000Y-15215000D02*
X10775000Y-15245000D01*
X10775000Y-15575000D02*
X10805000Y-15605000D01*
X10805000Y-15575000D02*
X10775000Y-15605000D01*
X10795000Y-8285000D02*
X10825000Y-8315000D01*
X10825000Y-8285000D02*
X10795000Y-8315000D01*
X10815000Y-11215000D02*
X10845000Y-11245000D01*
X10845000Y-11215000D02*
X10815000Y-11245000D01*
X10815000Y-11575000D02*
X10845000Y-11605000D01*
X10845000Y-11575000D02*
X10815000Y-11605000D01*
X10825000Y-12225000D02*
X10855000Y-12255000D01*
X10855000Y-12225000D02*
X10825000Y-12255000D01*
X10825000Y-12585000D02*
X10855000Y-12615000D01*
X10855000Y-12585000D02*
X10825000Y-12615000D01*
X10825000Y-13225000D02*
X10855000Y-13255000D01*
X10855000Y-13225000D02*
X10825000Y-13255000D01*
X10825000Y-13585000D02*
X10855000Y-13615000D01*
X10855000Y-13585000D02*
X10825000Y-13615000D01*
X10825000Y-14075000D02*
X10855000Y-14105000D01*
X10855000Y-14075000D02*
X10825000Y-14105000D01*
X10835000Y-14565000D02*
X10865000Y-14595000D01*
X10865000Y-14565000D02*
X10835000Y-14595000D01*
X10845000Y-2795000D02*
X10875000Y-2825000D01*
X10875000Y-2795000D02*
X10845000Y-2825000D01*
X10845000Y-3155000D02*
X10875000Y-3185000D01*
X10875000Y-3155000D02*
X10845000Y-3185000D01*
X10845000Y-3765000D02*
X10875000Y-3795000D01*
X10875000Y-3765000D02*
X10845000Y-3795000D01*
X10845000Y-4125000D02*
X10875000Y-4155000D01*
X10875000Y-4125000D02*
X10845000Y-4155000D01*
X10845000Y-5765000D02*
X10875000Y-5795000D01*
X10875000Y-5765000D02*
X10845000Y-5795000D01*
X10845000Y-6125000D02*
X10875000Y-6155000D01*
X10875000Y-6125000D02*
X10845000Y-6155000D01*
X10845000Y-6765000D02*
X10875000Y-6795000D01*
X10875000Y-6765000D02*
X10845000Y-6795000D01*
X10845000Y-7125000D02*
X10875000Y-7155000D01*
X10875000Y-7125000D02*
X10845000Y-7155000D01*
X10845000Y-8925000D02*
X10875000Y-8955000D01*
X10875000Y-8925000D02*
X10845000Y-8955000D01*
X10855000Y-4755000D02*
X10885000Y-4785000D01*
X10885000Y-4755000D02*
X10855000Y-4785000D01*
X10855000Y-5115000D02*
X10885000Y-5145000D01*
X10885000Y-5115000D02*
X10855000Y-5145000D01*
X10855000Y-9255000D02*
X10885000Y-9285000D01*
X10885000Y-9255000D02*
X10855000Y-9285000D01*
X10855000Y-9615000D02*
X10885000Y-9645000D01*
X10885000Y-9615000D02*
X10855000Y-9645000D01*
X10855000Y-10225000D02*
X10885000Y-10255000D01*
X10885000Y-10225000D02*
X10855000Y-10255000D01*
X10855000Y-10585000D02*
X10885000Y-10615000D01*
X10885000Y-10585000D02*
X10855000Y-10615000D01*
X10865000Y-15725000D02*
X10895000Y-15755000D01*
X10895000Y-15725000D02*
X10865000Y-15755000D01*
X10875000Y-15575000D02*
X10905000Y-15605000D01*
X10905000Y-15575000D02*
X10875000Y-15605000D01*
X10895000Y-16275000D02*
X10925000Y-16305000D01*
X10925000Y-16275000D02*
X10895000Y-16305000D01*
X10905000Y-16485000D02*
X10935000Y-16515000D01*
X10935000Y-16485000D02*
X10905000Y-16515000D01*
X10905000Y-16765000D02*
X10935000Y-16795000D01*
X10935000Y-16765000D02*
X10905000Y-16795000D01*
X10905000Y-17035000D02*
X10935000Y-17065000D01*
X10935000Y-17035000D02*
X10905000Y-17065000D01*
X10995000Y-8135000D02*
X11025000Y-8165000D01*
X11025000Y-8135000D02*
X10995000Y-8165000D01*
X11055000Y-14795000D02*
X11085000Y-14825000D01*
X11085000Y-14795000D02*
X11055000Y-14825000D01*
X11057500Y-11442500D02*
X11087500Y-11472500D01*
X11087500Y-11442500D02*
X11057500Y-11472500D01*
X11057500Y-11602500D02*
X11087500Y-11632500D01*
X11087500Y-11602500D02*
X11057500Y-11632500D01*
X11057500Y-12425000D02*
X11087500Y-12455000D01*
X11087500Y-12425000D02*
X11057500Y-12455000D01*
X11057500Y-12585000D02*
X11087500Y-12615000D01*
X11087500Y-12585000D02*
X11057500Y-12615000D01*
X11057500Y-13415000D02*
X11087500Y-13445000D01*
X11087500Y-13415000D02*
X11057500Y-13445000D01*
X11057500Y-13575000D02*
X11087500Y-13605000D01*
X11087500Y-13575000D02*
X11057500Y-13605000D01*
X11065000Y-15135000D02*
X11095000Y-15165000D01*
X11095000Y-15135000D02*
X11065000Y-15165000D01*
X11065000Y-16135000D02*
X11095000Y-16165000D01*
X11095000Y-16135000D02*
X11065000Y-16165000D01*
X11067500Y-4975000D02*
X11097500Y-5005000D01*
X11097500Y-4975000D02*
X11067500Y-5005000D01*
X11067500Y-5135000D02*
X11097500Y-5165000D01*
X11097500Y-5135000D02*
X11067500Y-5165000D01*
X11067500Y-5957500D02*
X11097500Y-5987500D01*
X11097500Y-5957500D02*
X11067500Y-5987500D01*
X11067500Y-6117500D02*
X11097500Y-6147500D01*
X11097500Y-6117500D02*
X11067500Y-6147500D01*
X11067500Y-6947500D02*
X11097500Y-6977500D01*
X11097500Y-6947500D02*
X11067500Y-6977500D01*
X11067500Y-7107500D02*
X11097500Y-7137500D01*
X11097500Y-7107500D02*
X11067500Y-7137500D01*
X11067500Y-14427500D02*
X11097500Y-14457500D01*
X11097500Y-14427500D02*
X11067500Y-14457500D01*
X11067500Y-14587500D02*
X11097500Y-14617500D01*
X11097500Y-14587500D02*
X11067500Y-14617500D01*
X11067500Y-15417500D02*
X11097500Y-15447500D01*
X11097500Y-15417500D02*
X11067500Y-15447500D01*
X11067500Y-15577500D02*
X11097500Y-15607500D01*
X11097500Y-15577500D02*
X11067500Y-15607500D01*
X11075000Y-5280000D02*
X11105000Y-5310000D01*
X11105000Y-5280000D02*
X11075000Y-5310000D01*
X11075000Y-10445000D02*
X11105000Y-10475000D01*
X11105000Y-10445000D02*
X11075000Y-10475000D01*
X11075000Y-10605000D02*
X11105000Y-10635000D01*
X11105000Y-10605000D02*
X11075000Y-10635000D01*
X11080000Y-9450000D02*
X11110000Y-9480000D01*
X11110000Y-9450000D02*
X11080000Y-9480000D01*
X11080000Y-9610000D02*
X11110000Y-9640000D01*
X11110000Y-9610000D02*
X11080000Y-9640000D01*
X11081250Y-8488750D02*
X11111250Y-8518750D01*
X11111250Y-8488750D02*
X11081250Y-8518750D01*
X11083248Y-3296752D02*
X11113248Y-3326752D01*
X11113248Y-3296752D02*
X11083248Y-3326752D01*
X11085000Y-3977500D02*
X11115000Y-4007500D01*
X11115000Y-3977500D02*
X11085000Y-4007500D01*
X11085000Y-4137500D02*
X11115000Y-4167500D01*
X11115000Y-4137500D02*
X11085000Y-4167500D01*
X11085000Y-7275000D02*
X11115000Y-7305000D01*
X11115000Y-7275000D02*
X11085000Y-7305000D01*
X11085000Y-13805000D02*
X11115000Y-13835000D01*
X11115000Y-13805000D02*
X11085000Y-13835000D01*
X11087500Y-8655000D02*
X11117500Y-8685000D01*
X11117500Y-8655000D02*
X11087500Y-8685000D01*
X11090000Y-2982500D02*
X11120000Y-3012500D01*
X11120000Y-2982500D02*
X11090000Y-3012500D01*
X11090000Y-3142500D02*
X11120000Y-3172500D01*
X11120000Y-3142500D02*
X11090000Y-3172500D01*
X11095000Y-11795000D02*
X11125000Y-11825000D01*
X11125000Y-11795000D02*
X11095000Y-11825000D01*
X11095000Y-12342500D02*
X11125000Y-12372500D01*
X11125000Y-12342500D02*
X11095000Y-12372500D01*
X11095000Y-12805000D02*
X11125000Y-12835000D01*
X11125000Y-12805000D02*
X11095000Y-12835000D01*
X11097500Y-2027500D02*
X11127500Y-2057500D01*
X11127500Y-2027500D02*
X11097500Y-2057500D01*
X11097500Y-2187500D02*
X11127500Y-2217500D01*
X11127500Y-2187500D02*
X11097500Y-2217500D01*
X11105000Y-6325000D02*
X11135000Y-6355000D01*
X11135000Y-6325000D02*
X11105000Y-6355000D01*
X11105000Y-10845000D02*
X11135000Y-10875000D01*
X11135000Y-10845000D02*
X11105000Y-10875000D01*
X11135000Y-4365000D02*
X11165000Y-4395000D01*
X11165000Y-4365000D02*
X11135000Y-4395000D01*
X11155000Y-9855000D02*
X11185000Y-9885000D01*
X11185000Y-9855000D02*
X11155000Y-9885000D01*
X11158772Y-15775217D02*
X11188772Y-15805217D01*
X11188772Y-15775217D02*
X11158772Y-15805217D01*
X11160000Y-8850000D02*
X11190000Y-8880000D01*
X11190000Y-8850000D02*
X11160000Y-8880000D01*
X11185000Y-5115000D02*
X11215000Y-5145000D01*
X11215000Y-5115000D02*
X11185000Y-5145000D01*
X11205000Y-15155000D02*
X11235000Y-15185000D01*
X11235000Y-15155000D02*
X11205000Y-15185000D01*
X11332426Y-15242426D02*
X11362426Y-15272426D01*
X11362426Y-15242426D02*
X11332426Y-15272426D01*
X11375000Y-5115000D02*
X11405000Y-5145000D01*
X11405000Y-5115000D02*
X11375000Y-5145000D01*
X11395000Y-11205000D02*
X11425000Y-11235000D01*
X11425000Y-11205000D02*
X11395000Y-11235000D01*
X11405000Y-14245000D02*
X11435000Y-14275000D01*
X11435000Y-14245000D02*
X11405000Y-14275000D01*
X11565000Y-7145000D02*
X11595000Y-7175000D01*
X11595000Y-7145000D02*
X11565000Y-7175000D01*
X11575000Y-15557500D02*
X11605000Y-15587500D01*
X11605000Y-15557500D02*
X11575000Y-15587500D01*
X11665000Y-3917500D02*
X11695000Y-3947500D01*
X11695000Y-3917500D02*
X11665000Y-3947500D01*
X11965000Y-16545000D02*
X11995000Y-16575000D01*
X11995000Y-16545000D02*
X11965000Y-16575000D01*
X11965000Y-16755000D02*
X11995000Y-16785000D01*
X11995000Y-16755000D02*
X11965000Y-16785000D01*
X11965000Y-17125000D02*
X11995000Y-17155000D01*
X11995000Y-17125000D02*
X11965000Y-17155000D01*
X12185000Y-14155000D02*
X12215000Y-14185000D01*
X12215000Y-14155000D02*
X12185000Y-14185000D01*
X12195000Y-15095000D02*
X12225000Y-15125000D01*
X12225000Y-15095000D02*
X12195000Y-15125000D01*
X12215000Y-16275000D02*
X12245000Y-16305000D01*
X12245000Y-16275000D02*
X12215000Y-16305000D01*
X12225000Y-15595000D02*
X12255000Y-15625000D01*
X12255000Y-15595000D02*
X12225000Y-15625000D01*
X12259375Y-13202500D02*
X12289375Y-13232500D01*
X12289375Y-13202500D02*
X12259375Y-13232500D01*
X12259375Y-13562500D02*
X12289375Y-13592500D01*
X12289375Y-13562500D02*
X12259375Y-13592500D01*
X12289375Y-12212500D02*
X12319375Y-12242500D01*
X12319375Y-12212500D02*
X12289375Y-12242500D01*
X12289375Y-12572500D02*
X12319375Y-12602500D01*
X12319375Y-12572500D02*
X12289375Y-12602500D01*
X12295000Y-15015000D02*
X12325000Y-15045000D01*
X12325000Y-15015000D02*
X12295000Y-15045000D01*
X12315000Y-5745000D02*
X12345000Y-5775000D01*
X12345000Y-5745000D02*
X12315000Y-5775000D01*
X12315000Y-6105000D02*
X12345000Y-6135000D01*
X12345000Y-6105000D02*
X12315000Y-6135000D01*
X12315000Y-6735000D02*
X12345000Y-6765000D01*
X12345000Y-6735000D02*
X12315000Y-6765000D01*
X12315000Y-7095000D02*
X12345000Y-7125000D01*
X12345000Y-7095000D02*
X12315000Y-7125000D01*
X12315000Y-9255000D02*
X12345000Y-9285000D01*
X12345000Y-9255000D02*
X12315000Y-9285000D01*
X12315000Y-9615000D02*
X12345000Y-9645000D01*
X12345000Y-9615000D02*
X12315000Y-9645000D01*
X12325000Y-2795000D02*
X12355000Y-2825000D01*
X12355000Y-2795000D02*
X12325000Y-2825000D01*
X12325000Y-3155000D02*
X12355000Y-3185000D01*
X12355000Y-3155000D02*
X12325000Y-3185000D01*
X12325000Y-3765000D02*
X12355000Y-3795000D01*
X12355000Y-3765000D02*
X12325000Y-3795000D01*
X12325000Y-4125000D02*
X12355000Y-4155000D01*
X12355000Y-4125000D02*
X12325000Y-4155000D01*
X12325000Y-4755000D02*
X12355000Y-4785000D01*
X12355000Y-4755000D02*
X12325000Y-4785000D01*
X12325000Y-5115000D02*
X12355000Y-5145000D01*
X12355000Y-5115000D02*
X12325000Y-5145000D01*
X12325000Y-10215000D02*
X12355000Y-10245000D01*
X12355000Y-10215000D02*
X12325000Y-10245000D01*
X12325000Y-10575000D02*
X12355000Y-10605000D01*
X12355000Y-10575000D02*
X12325000Y-10605000D01*
X12325000Y-11215000D02*
X12355000Y-11245000D01*
X12355000Y-11215000D02*
X12325000Y-11245000D01*
X12325000Y-11575000D02*
X12355000Y-11605000D01*
X12355000Y-11575000D02*
X12325000Y-11605000D01*
X12325100Y-15135000D02*
X12355100Y-15165000D01*
X12355100Y-15135000D02*
X12325100Y-15165000D01*
X12335000Y-15865000D02*
X12365000Y-15895000D01*
X12365000Y-15865000D02*
X12335000Y-15895000D01*
X12345000Y-8885000D02*
X12375000Y-8915000D01*
X12375000Y-8885000D02*
X12345000Y-8915000D01*
X12355000Y-8205000D02*
X12385000Y-8235000D01*
X12385000Y-8205000D02*
X12355000Y-8235000D01*
X12455000Y-6967500D02*
X12485000Y-6997500D01*
X12485000Y-6967500D02*
X12455000Y-6997500D01*
X12495000Y-7944900D02*
X12525000Y-7974900D01*
X12525000Y-7944900D02*
X12495000Y-7974900D01*
X12505000Y-15685000D02*
X12535000Y-15715000D01*
X12535000Y-15685000D02*
X12505000Y-15715000D01*
X12510000Y-11433750D02*
X12540000Y-11463750D01*
X12540000Y-11433750D02*
X12510000Y-11463750D01*
X12510000Y-11593750D02*
X12540000Y-11623750D01*
X12540000Y-11593750D02*
X12510000Y-11623750D01*
X12510000Y-12416250D02*
X12540000Y-12446250D01*
X12540000Y-12416250D02*
X12510000Y-12446250D01*
X12510000Y-12576250D02*
X12540000Y-12606250D01*
X12540000Y-12576250D02*
X12510000Y-12606250D01*
X12510000Y-13406250D02*
X12540000Y-13436250D01*
X12540000Y-13406250D02*
X12510000Y-13436250D01*
X12510000Y-13566250D02*
X12540000Y-13596250D01*
X12540000Y-13566250D02*
X12510000Y-13596250D01*
X12519547Y-11770452D02*
X12549547Y-11800452D01*
X12549547Y-11770452D02*
X12519547Y-11800452D01*
X12520000Y-4966250D02*
X12550000Y-4996250D01*
X12550000Y-4966250D02*
X12520000Y-4996250D01*
X12520000Y-5126250D02*
X12550000Y-5156250D01*
X12550000Y-5126250D02*
X12520000Y-5156250D01*
X12520000Y-14418750D02*
X12550000Y-14448750D01*
X12550000Y-14418750D02*
X12520000Y-14448750D01*
X12520000Y-14578750D02*
X12550000Y-14608750D01*
X12550000Y-14578750D02*
X12520000Y-14608750D01*
X12520000Y-15408750D02*
X12550000Y-15438750D01*
X12550000Y-15408750D02*
X12520000Y-15438750D01*
X12520000Y-15568750D02*
X12550000Y-15598750D01*
X12550000Y-15568750D02*
X12520000Y-15598750D01*
X12524211Y-7704211D02*
X12554211Y-7734211D01*
X12554211Y-7704211D02*
X12524211Y-7734211D01*
X12527500Y-10436250D02*
X12557500Y-10466250D01*
X12557500Y-10436250D02*
X12527500Y-10466250D01*
X12527500Y-10596250D02*
X12557500Y-10626250D01*
X12557500Y-10596250D02*
X12527500Y-10626250D01*
X12532500Y-9441250D02*
X12562500Y-9471250D01*
X12562500Y-9441250D02*
X12532500Y-9471250D01*
X12532500Y-9601250D02*
X12562500Y-9631250D01*
X12562500Y-9601250D02*
X12532500Y-9631250D01*
X12535000Y-7145000D02*
X12565000Y-7175000D01*
X12565000Y-7145000D02*
X12535000Y-7175000D01*
X12535000Y-13765000D02*
X12565000Y-13795000D01*
X12565000Y-13765000D02*
X12535000Y-13795000D01*
X12535000Y-14835000D02*
X12565000Y-14865000D01*
X12565000Y-14835000D02*
X12535000Y-14865000D01*
X12535000Y-15135000D02*
X12565000Y-15165000D01*
X12565000Y-15135000D02*
X12535000Y-15165000D01*
X12537500Y-3968750D02*
X12567500Y-3998750D01*
X12567500Y-3968750D02*
X12537500Y-3998750D01*
X12537500Y-4128750D02*
X12567500Y-4158750D01*
X12567500Y-4128750D02*
X12537500Y-4158750D01*
X12540000Y-8486250D02*
X12570000Y-8516250D01*
X12570000Y-8486250D02*
X12540000Y-8516250D01*
X12540000Y-8646250D02*
X12570000Y-8676250D01*
X12570000Y-8646250D02*
X12540000Y-8676250D01*
X12542500Y-2973750D02*
X12572500Y-3003750D01*
X12572500Y-2973750D02*
X12542500Y-3003750D01*
X12542500Y-3133750D02*
X12572500Y-3163750D01*
X12572500Y-3133750D02*
X12542500Y-3163750D01*
X12545000Y-2385000D02*
X12575000Y-2415000D01*
X12575000Y-2385000D02*
X12545000Y-2415000D01*
X12545000Y-8845000D02*
X12575000Y-8875000D01*
X12575000Y-8845000D02*
X12545000Y-8875000D01*
X12545000Y-10745000D02*
X12575000Y-10775000D01*
X12575000Y-10745000D02*
X12545000Y-10775000D01*
X12550000Y-2018750D02*
X12580000Y-2048750D01*
X12580000Y-2018750D02*
X12550000Y-2048750D01*
X12550000Y-2178750D02*
X12580000Y-2208750D01*
X12580000Y-2178750D02*
X12550000Y-2208750D01*
X12554547Y-12795452D02*
X12584547Y-12825452D01*
X12584547Y-12795452D02*
X12554547Y-12825452D01*
X12555000Y-3265000D02*
X12585000Y-3295000D01*
X12585000Y-3265000D02*
X12555000Y-3295000D01*
X12555000Y-5275000D02*
X12585000Y-5305000D01*
X12585000Y-5275000D02*
X12555000Y-5305000D01*
X12555000Y-7245000D02*
X12585000Y-7275000D01*
X12585000Y-7245000D02*
X12555000Y-7275000D01*
X12565000Y-5948750D02*
X12595000Y-5978750D01*
X12595000Y-5948750D02*
X12565000Y-5978750D01*
X12565000Y-6108750D02*
X12595000Y-6138750D01*
X12595000Y-6108750D02*
X12565000Y-6138750D01*
X12575000Y-4305000D02*
X12605000Y-4335000D01*
X12605000Y-4305000D02*
X12575000Y-4335000D01*
X12575000Y-6315000D02*
X12605000Y-6345000D01*
X12605000Y-6315000D02*
X12575000Y-6345000D01*
X12585000Y-16165000D02*
X12615000Y-16195000D01*
X12615000Y-16165000D02*
X12585000Y-16195000D01*
X12595000Y-7665000D02*
X12625000Y-7695000D01*
X12625000Y-7665000D02*
X12595000Y-7695000D01*
X12597181Y-4945200D02*
X12627181Y-4975200D01*
X12627181Y-4945200D02*
X12597181Y-4975200D01*
X12622526Y-9862527D02*
X12652526Y-9892527D01*
X12652526Y-9862527D02*
X12622526Y-9892527D01*
X12635000Y-6967500D02*
X12665000Y-6997500D01*
X12665000Y-6967500D02*
X12635000Y-6997500D01*
X12635000Y-11395000D02*
X12665000Y-11425000D01*
X12665000Y-11395000D02*
X12635000Y-11425000D01*
X12655000Y-15395000D02*
X12685000Y-15425000D01*
X12685000Y-15395000D02*
X12655000Y-15425000D01*
X12685000Y-16105000D02*
X12715000Y-16135000D01*
X12715000Y-16105000D02*
X12685000Y-16135000D01*
X12765000Y-11435000D02*
X12795000Y-11465000D01*
X12795000Y-11435000D02*
X12765000Y-11465000D01*
X12795000Y-16185000D02*
X12825000Y-16215000D01*
X12825000Y-16185000D02*
X12795000Y-16215000D01*
X12909137Y-3997500D02*
X12939137Y-4027500D01*
X12939137Y-3997500D02*
X12909137Y-4027500D01*
X12995000Y-5005200D02*
X13025000Y-5035200D01*
X13025000Y-5005200D02*
X12995000Y-5035200D01*
X13069211Y-7159211D02*
X13099211Y-7189211D01*
X13099211Y-7159211D02*
X13069211Y-7189211D01*
X13135000Y-3025000D02*
X13165000Y-3055000D01*
X13165000Y-3025000D02*
X13135000Y-3055000D01*
X13245000Y-10455000D02*
X13275000Y-10485000D01*
X13275000Y-10455000D02*
X13245000Y-10485000D01*
X13335000Y-7775000D02*
X13365000Y-7805000D01*
X13365000Y-7775000D02*
X13335000Y-7805000D01*
X13425000Y-16175000D02*
X13455000Y-16205000D01*
X13455000Y-16175000D02*
X13425000Y-16205000D01*
X13505000Y-14205000D02*
X13535000Y-14235000D01*
X13535000Y-14205000D02*
X13505000Y-14235000D01*
X13517600Y-10345000D02*
X13547600Y-10375000D01*
X13547600Y-10345000D02*
X13517600Y-10375000D01*
X13565000Y-14635000D02*
X13595000Y-14665000D01*
X13595000Y-14635000D02*
X13565000Y-14665000D01*
X13575100Y-6483475D02*
X13605100Y-6513475D01*
X13605100Y-6483475D02*
X13575100Y-6513475D01*
X13597426Y-5927426D02*
X13627426Y-5957426D01*
X13627426Y-5927426D02*
X13597426Y-5957426D01*
X13605000Y-16035000D02*
X13635000Y-16065000D01*
X13635000Y-16035000D02*
X13605000Y-16065000D01*
X13615200Y-8045000D02*
X13645200Y-8075000D01*
X13645200Y-8045000D02*
X13615200Y-8075000D01*
X13615200Y-8135000D02*
X13645200Y-8165000D01*
X13645200Y-8135000D02*
X13615200Y-8165000D01*
X13615200Y-8245000D02*
X13645200Y-8275000D01*
X13645200Y-8245000D02*
X13615200Y-8275000D01*
X13615200Y-8325000D02*
X13645200Y-8355000D01*
X13645200Y-8325000D02*
X13615200Y-8355000D01*
X13615200Y-8415000D02*
X13645200Y-8445000D01*
X13645200Y-8415000D02*
X13615200Y-8445000D01*
X13615200Y-8595000D02*
X13645200Y-8625000D01*
X13645200Y-8595000D02*
X13615200Y-8625000D01*
X13615200Y-8692527D02*
X13645200Y-8722527D01*
X13645200Y-8692527D02*
X13615200Y-8722527D01*
X13615200Y-8785000D02*
X13645200Y-8815000D01*
X13645200Y-8785000D02*
X13615200Y-8815000D01*
X13615200Y-8895000D02*
X13645200Y-8925000D01*
X13645200Y-8895000D02*
X13615200Y-8925000D01*
X13617626Y-8497427D02*
X13647626Y-8527427D01*
X13647626Y-8497427D02*
X13617626Y-8527427D01*
X13625100Y-12435000D02*
X13655100Y-12465000D01*
X13655100Y-12435000D02*
X13625100Y-12465000D01*
X13655000Y-15335000D02*
X13685000Y-15365000D01*
X13685000Y-15335000D02*
X13655000Y-15365000D01*
X13665000Y-16165000D02*
X13695000Y-16195000D01*
X13695000Y-16165000D02*
X13665000Y-16195000D01*
X13685100Y-10735000D02*
X13715100Y-10765000D01*
X13715100Y-10735000D02*
X13685100Y-10765000D01*
X13685100Y-10905000D02*
X13715100Y-10935000D01*
X13715100Y-10905000D02*
X13685100Y-10935000D01*
X13685100Y-11775000D02*
X13715100Y-11805000D01*
X13715100Y-11775000D02*
X13685100Y-11805000D01*
X13685100Y-11985000D02*
X13715100Y-12015000D01*
X13715100Y-11985000D02*
X13685100Y-12015000D01*
X13735000Y-5693000D02*
X13765000Y-5723000D01*
X13765000Y-5693000D02*
X13735000Y-5723000D01*
X13805000Y-3865000D02*
X13835000Y-3895000D01*
X13835000Y-3865000D02*
X13805000Y-3895000D01*
X13825000Y-11925000D02*
X13855000Y-11955000D01*
X13855000Y-11925000D02*
X13825000Y-11955000D01*
X13847526Y-8747527D02*
X13877526Y-8777527D01*
X13877526Y-8747527D02*
X13847526Y-8777527D01*
X13855000Y-14865000D02*
X13885000Y-14895000D01*
X13885000Y-14865000D02*
X13855000Y-14895000D01*
X13904196Y-11913686D02*
X13934196Y-11943686D01*
X13934196Y-11913686D02*
X13904196Y-11943686D01*
X13945000Y-3345000D02*
X13975000Y-3375000D01*
X13975000Y-3345000D02*
X13945000Y-3375000D01*
X13971432Y-11870334D02*
X14001432Y-11900334D01*
X14001432Y-11870334D02*
X13971432Y-11900334D01*
X14015000Y-16415300D02*
X14045000Y-16445300D01*
X14045000Y-16415300D02*
X14015000Y-16445300D01*
X14035000Y-11795000D02*
X14065000Y-11825000D01*
X14065000Y-11795000D02*
X14035000Y-11825000D01*
X14065000Y-14935000D02*
X14095000Y-14965000D01*
X14095000Y-14935000D02*
X14065000Y-14965000D01*
X14075000Y-3495000D02*
X14105000Y-3525000D01*
X14105000Y-3495000D02*
X14075000Y-3525000D01*
X14105000Y-11885000D02*
X14135000Y-11915000D01*
X14135000Y-11885000D02*
X14105000Y-11915000D01*
X14109929Y-15719929D02*
X14139929Y-15749929D01*
X14139929Y-15719929D02*
X14109929Y-15749929D01*
X14135100Y-4375000D02*
X14165100Y-4405000D01*
X14165100Y-4375000D02*
X14135100Y-4405000D01*
X14165000Y-4555000D02*
X14195000Y-4585000D01*
X14195000Y-4555000D02*
X14165000Y-4585000D01*
X14175000Y-14355000D02*
X14205000Y-14385000D01*
X14205000Y-14355000D02*
X14175000Y-14385000D01*
X14185000Y-14615000D02*
X14215000Y-14645000D01*
X14215000Y-14615000D02*
X14185000Y-14645000D01*
X14195000Y-10115000D02*
X14225000Y-10145000D01*
X14225000Y-10115000D02*
X14195000Y-10145000D01*
X14195000Y-15835000D02*
X14225000Y-15865000D01*
X14225000Y-15835000D02*
X14195000Y-15865000D01*
X14205000Y-15425000D02*
X14235000Y-15455000D01*
X14235000Y-15425000D02*
X14205000Y-15455000D01*
X14215000Y-14475000D02*
X14245000Y-14505000D01*
X14245000Y-14475000D02*
X14215000Y-14505000D01*
X14245000Y-2245000D02*
X14275000Y-2275000D01*
X14275000Y-2245000D02*
X14245000Y-2275000D01*
X14315000Y-16345000D02*
X14345000Y-16375000D01*
X14345000Y-16345000D02*
X14315000Y-16375000D01*
X14825000Y-12285000D02*
X14855000Y-12315000D01*
X14855000Y-12285000D02*
X14825000Y-12315000D01*
X15035000Y-11914289D02*
X15065000Y-11944289D01*
X15065000Y-11914289D02*
X15035000Y-11944289D01*
X15035000Y-15575000D02*
X15065000Y-15605000D01*
X15065000Y-15575000D02*
X15035000Y-15605000D01*
X15055000Y-10955000D02*
X15085000Y-10985000D01*
X15085000Y-10955000D02*
X15055000Y-10985000D01*
X15055000Y-14615000D02*
X15085000Y-14645000D01*
X15085000Y-14615000D02*
X15055000Y-14645000D01*
X15065000Y-10255000D02*
X15095000Y-10285000D01*
X15095000Y-10255000D02*
X15065000Y-10285000D01*
X15065000Y-11205000D02*
X15095000Y-11235000D01*
X15095000Y-11205000D02*
X15065000Y-11235000D01*
X15065000Y-13405000D02*
X15095000Y-13435000D01*
X15095000Y-13405000D02*
X15065000Y-13435000D01*
X15065000Y-15685000D02*
X15095000Y-15715000D01*
X15095000Y-15685000D02*
X15065000Y-15715000D01*
X15075000Y-11315000D02*
X15105000Y-11345000D01*
X15105000Y-11315000D02*
X15075000Y-11345000D01*
X15075000Y-14485000D02*
X15105000Y-14515000D01*
X15105000Y-14485000D02*
X15075000Y-14515000D01*
X15075000Y-15315000D02*
X15105000Y-15345000D01*
X15105000Y-15315000D02*
X15075000Y-15345000D01*
X15085000Y-10115000D02*
X15115000Y-10145000D01*
X15115000Y-10115000D02*
X15085000Y-10145000D01*
X15085000Y-10825000D02*
X15115000Y-10855000D01*
X15115000Y-10825000D02*
X15085000Y-10855000D01*
X15095000Y-7935000D02*
X15125000Y-7965000D01*
X15125000Y-7935000D02*
X15095000Y-7965000D01*
X15115000Y-3735000D02*
X15145000Y-3765000D01*
X15145000Y-3735000D02*
X15115000Y-3765000D01*
X15125000Y-2985000D02*
X15155000Y-3015000D01*
X15155000Y-2985000D02*
X15125000Y-3015000D01*
X15125000Y-3855000D02*
X15155000Y-3885000D01*
X15155000Y-3855000D02*
X15125000Y-3885000D01*
X15125000Y-6405000D02*
X15155000Y-6435000D01*
X15155000Y-6405000D02*
X15125000Y-6435000D01*
X15125000Y-7335000D02*
X15155000Y-7365000D01*
X15155000Y-7335000D02*
X15125000Y-7365000D01*
X15125000Y-9325000D02*
X15155000Y-9355000D01*
X15155000Y-9325000D02*
X15125000Y-9355000D01*
X15135000Y-2385000D02*
X15165000Y-2415000D01*
X15165000Y-2385000D02*
X15135000Y-2415000D01*
X15135000Y-2635000D02*
X15165000Y-2665000D01*
X15165000Y-2635000D02*
X15135000Y-2665000D01*
X15135000Y-7435000D02*
X15165000Y-7465000D01*
X15165000Y-7435000D02*
X15135000Y-7465000D01*
X15145000Y-2755000D02*
X15175000Y-2785000D01*
X15175000Y-2755000D02*
X15145000Y-2785000D01*
X15145000Y-6265000D02*
X15175000Y-6295000D01*
X15175000Y-6265000D02*
X15145000Y-6295000D01*
X15175000Y-6987500D02*
X15205000Y-7017500D01*
X15205000Y-6987500D02*
X15175000Y-7017500D01*
X15175000Y-15115000D02*
X15205000Y-15145000D01*
X15205000Y-15115000D02*
X15175000Y-15145000D01*
X15195000Y-3435000D02*
X15225000Y-3465000D01*
X15225000Y-3435000D02*
X15195000Y-3465000D01*
X15255000Y-6885000D02*
X15285000Y-6915000D01*
X15285000Y-6885000D02*
X15255000Y-6915000D01*
X15265000Y-3015000D02*
X15295000Y-3045000D01*
X15295000Y-3015000D02*
X15265000Y-3045000D01*
X15265000Y-6595000D02*
X15295000Y-6625000D01*
X15295000Y-6595000D02*
X15265000Y-6625000D01*
X15275000Y-14895000D02*
X15305000Y-14925000D01*
X15305000Y-14895000D02*
X15275000Y-14925000D01*
X15285000Y-14335000D02*
X15315000Y-14365000D01*
X15315000Y-14335000D02*
X15285000Y-14365000D01*
X15285000Y-15305000D02*
X15315000Y-15335000D01*
X15315000Y-15305000D02*
X15285000Y-15335000D01*
X15315000Y-3215000D02*
X15345000Y-3245000D01*
X15345000Y-3215000D02*
X15315000Y-3245000D01*
X15315000Y-10425000D02*
X15345000Y-10455000D01*
X15345000Y-10425000D02*
X15315000Y-10455000D01*
X15345000Y-14035000D02*
X15375000Y-14065000D01*
X15375000Y-14035000D02*
X15345000Y-14065000D01*
X15355000Y-4545000D02*
X15385000Y-4575000D01*
X15385000Y-4545000D02*
X15355000Y-4575000D01*
X15355000Y-9845000D02*
X15385000Y-9875000D01*
X15385000Y-9845000D02*
X15355000Y-9875000D01*
X15355000Y-10845000D02*
X15385000Y-10875000D01*
X15385000Y-10845000D02*
X15355000Y-10875000D01*
X15365000Y-7055000D02*
X15395000Y-7085000D01*
X15395000Y-7055000D02*
X15365000Y-7085000D01*
X15535000Y-10855000D02*
X15565000Y-10885000D01*
X15565000Y-10855000D02*
X15535000Y-10885000D01*
X15635000Y-8895000D02*
X15665000Y-8925000D01*
X15665000Y-8895000D02*
X15635000Y-8925000D01*
X15655000Y-3755000D02*
X15685000Y-3785000D01*
X15685000Y-3755000D02*
X15655000Y-3785000D01*
X15665000Y-6305000D02*
X15695000Y-6335000D01*
X15695000Y-6305000D02*
X15665000Y-6335000D01*
X15665000Y-7445000D02*
X15695000Y-7475000D01*
X15695000Y-7445000D02*
X15665000Y-7475000D01*
X15675000Y-7875000D02*
X15705000Y-7905000D01*
X15705000Y-7875000D02*
X15675000Y-7905000D01*
X15685000Y-4185000D02*
X15715000Y-4215000D01*
X15715000Y-4185000D02*
X15685000Y-4215000D01*
X15685000Y-5195000D02*
X15715000Y-5225000D01*
X15715000Y-5195000D02*
X15685000Y-5225000D01*
X15795000Y-14815000D02*
X15825000Y-14845000D01*
X15825000Y-14815000D02*
X15795000Y-14845000D01*
X15795000Y-15595000D02*
X15825000Y-15625000D01*
X15825000Y-15595000D02*
X15795000Y-15625000D01*
X15885000Y-2715000D02*
X15915000Y-2745000D01*
X15915000Y-2715000D02*
X15885000Y-2745000D01*
X15895000Y-2385000D02*
X15925000Y-2415000D01*
X15925000Y-2385000D02*
X15895000Y-2415000D01*
X16055000Y-2585000D02*
X16085000Y-2615000D01*
X16085000Y-2585000D02*
X16055000Y-2615000D01*
X16075000Y-17105000D02*
X16105000Y-17135000D01*
X16105000Y-17105000D02*
X16075000Y-17135000D01*
X16085000Y-17385300D02*
X16115000Y-17415300D01*
X16115000Y-17385300D02*
X16085000Y-17415300D01*
X16305000Y-5175000D02*
X16335000Y-5205000D01*
X16335000Y-5175000D02*
X16305000Y-5205000D01*
X16351250Y-14005000D02*
X16381250Y-14035000D01*
X16381250Y-14005000D02*
X16351250Y-14035000D01*
X16361200Y-11485000D02*
X16391200Y-11515000D01*
X16391200Y-11485000D02*
X16361200Y-11515000D01*
X16377450Y-12695000D02*
X16407450Y-12725000D01*
X16407450Y-12695000D02*
X16377450Y-12725000D01*
X16411250Y-15275000D02*
X16441250Y-15305000D01*
X16441250Y-15275000D02*
X16411250Y-15305000D01*
X16455000Y-4005000D02*
X16485000Y-4035000D01*
X16485000Y-4005000D02*
X16455000Y-4035000D01*
X16625000Y-8675000D02*
X16655000Y-8705000D01*
X16655000Y-8675000D02*
X16625000Y-8705000D01*
X16885000Y-3565000D02*
X16915000Y-3595000D01*
X16915000Y-3565000D02*
X16885000Y-3595000D01*
X16905000Y-16935000D02*
X16935000Y-16965000D01*
X16935000Y-16935000D02*
X16905000Y-16965000D01*
X17325000Y-8985000D02*
X17355000Y-9015000D01*
X17355000Y-8985000D02*
X17325000Y-9015000D01*
X17611250Y-15695000D02*
X17641250Y-15725000D01*
X17641250Y-15695000D02*
X17611250Y-15725000D01*
X17625000Y-17055000D02*
X17655000Y-17085000D01*
X17655000Y-17055000D02*
X17625000Y-17085000D01*
X17637450Y-13165000D02*
X17667450Y-13195000D01*
X17667450Y-13165000D02*
X17637450Y-13195000D01*
X17654950Y-11825000D02*
X17684950Y-11855000D01*
X17684950Y-11825000D02*
X17654950Y-11855000D01*
X17691250Y-14345000D02*
X17721250Y-14375000D01*
X17721250Y-14345000D02*
X17691250Y-14375000D01*
X18260000Y-7990000D02*
X18290000Y-8020000D01*
X18290000Y-7990000D02*
X18260000Y-8020000D01*
X18295000Y-7095000D02*
X18325000Y-7125000D01*
X18325000Y-7095000D02*
X18295000Y-7125000D01*
X18375000Y-16345000D02*
X18405000Y-16375000D01*
X18405000Y-16345000D02*
X18375000Y-16375000D01*
X18455000Y-16115000D02*
X18485000Y-16145000D01*
X18485000Y-16115000D02*
X18455000Y-16145000D01*
X18835000Y-3765000D02*
X18865000Y-3795000D01*
X18865000Y-3765000D02*
X18835000Y-3795000D01*
X18845000Y-4625000D02*
X18875000Y-4655000D01*
X18875000Y-4625000D02*
X18845000Y-4655000D01*
X18860000Y-5400000D02*
X18890000Y-5430000D01*
X18890000Y-5400000D02*
X18860000Y-5430000D01*
X18865000Y-7895000D02*
X18895000Y-7925000D01*
X18895000Y-7895000D02*
X18865000Y-7925000D01*
X18885000Y-8705000D02*
X18915000Y-8735000D01*
X18915000Y-8705000D02*
X18885000Y-8735000D01*
X18915000Y-6995000D02*
X18945000Y-7025000D01*
X18945000Y-6995000D02*
X18915000Y-7025000D01*
X18965000Y-16465000D02*
X18995000Y-16495000D01*
X18995000Y-16465000D02*
X18965000Y-16495000D01*
X19075000Y-3735000D02*
X19105000Y-3765000D01*
X19105000Y-3735000D02*
X19075000Y-3765000D01*
X19085000Y-4575000D02*
X19115000Y-4605000D01*
X19115000Y-4575000D02*
X19085000Y-4605000D01*
X19085000Y-6195000D02*
X19115000Y-6225000D01*
X19115000Y-6195000D02*
X19085000Y-6225000D01*
X19105000Y-5355000D02*
X19135000Y-5385000D01*
X19135000Y-5355000D02*
X19105000Y-5385000D01*
X19115000Y-6985000D02*
X19145000Y-7015000D01*
X19145000Y-6985000D02*
X19115000Y-7015000D01*
X19115000Y-7895000D02*
X19145000Y-7925000D01*
X19145000Y-7895000D02*
X19115000Y-7925000D01*
X19135000Y-8695000D02*
X19165000Y-8725000D01*
X19165000Y-8695000D02*
X19135000Y-8725000D01*
X19135000Y-17025000D02*
X19165000Y-17055000D01*
X19165000Y-17025000D02*
X19135000Y-17055000D01*
X19175000Y-16895000D02*
X19205000Y-16925000D01*
X19205000Y-16895000D02*
X19175000Y-16925000D01*
X19319930Y-3564900D02*
X19349930Y-3594900D01*
X19349930Y-3564900D02*
X19319930Y-3594900D01*
X19325000Y-9445000D02*
X19355000Y-9475000D01*
X19355000Y-9445000D02*
X19325000Y-9475000D01*
X19328967Y-4327300D02*
X19358967Y-4357300D01*
X19358967Y-4327300D02*
X19328967Y-4357300D01*
X19328967Y-7657300D02*
X19358967Y-7687300D01*
X19358967Y-7657300D02*
X19328967Y-7687300D01*
X19338967Y-5157300D02*
X19368967Y-5187300D01*
X19368967Y-5157300D02*
X19338967Y-5187300D01*
X19348967Y-6017300D02*
X19378967Y-6047300D01*
X19378967Y-6017300D02*
X19348967Y-6047300D01*
X19368967Y-6817300D02*
X19398967Y-6847300D01*
X19398967Y-6817300D02*
X19368967Y-6847300D01*
X19455000Y-6445000D02*
X19485000Y-6475000D01*
X19485000Y-6445000D02*
X19455000Y-6475000D01*
X19485000Y-8775000D02*
X19515000Y-8805000D01*
X19515000Y-8775000D02*
X19485000Y-8805000D01*
X19485000Y-16695000D02*
X19515000Y-16725000D01*
X19515000Y-16695000D02*
X19485000Y-16725000D01*
X19525000Y-10575000D02*
X19555000Y-10605000D01*
X19555000Y-10575000D02*
X19525000Y-10605000D01*
X19675000Y-6845000D02*
X19705000Y-6875000D01*
X19705000Y-6845000D02*
X19675000Y-6875000D01*
X19685000Y-5185000D02*
X19715000Y-5215000D01*
X19715000Y-5185000D02*
X19685000Y-5215000D01*
X19705000Y-6075000D02*
X19735000Y-6105000D01*
X19735000Y-6075000D02*
X19705000Y-6105000D01*
X19735000Y-4545000D02*
X19765000Y-4575000D01*
X19765000Y-4545000D02*
X19735000Y-4575000D01*
X19745000Y-6475000D02*
X19775000Y-6505000D01*
X19775000Y-6475000D02*
X19745000Y-6505000D01*
X19775000Y-7665000D02*
X19805000Y-7695000D01*
X19805000Y-7665000D02*
X19775000Y-7695000D01*
X19825000Y-8955000D02*
X19855000Y-8985000D01*
X19855000Y-8955000D02*
X19825000Y-8985000D01*
X19975000Y-15875000D02*
X20005000Y-15905000D01*
X20005000Y-15875000D02*
X19975000Y-15905000D01*
X19985000Y-6075000D02*
X20015000Y-6105000D01*
X20015000Y-6075000D02*
X19985000Y-6105000D01*
X19995000Y-7675000D02*
X20025000Y-7705000D01*
X20025000Y-7675000D02*
X19995000Y-7705000D01*
X20005000Y-14545000D02*
X20035000Y-14575000D01*
X20035000Y-14545000D02*
X20005000Y-14575000D01*
X20015000Y-5175000D02*
X20045000Y-5205000D01*
X20045000Y-5175000D02*
X20015000Y-5205000D01*
X20245000Y-13215000D02*
X20275000Y-13245000D01*
X20275000Y-13215000D02*
X20245000Y-13245000D01*
X20335000Y-10075000D02*
X20365000Y-10105000D01*
X20365000Y-10075000D02*
X20335000Y-10105000D01*
X20545000Y-12985000D02*
X20575000Y-13015000D01*
X20575000Y-12985000D02*
X20545000Y-13015000D01*
X20635000Y-12845000D02*
X20665000Y-12875000D01*
X20665000Y-12845000D02*
X20635000Y-12875000D01*
X20956280Y-9435000D02*
X20986280Y-9465000D01*
X20986280Y-9435000D02*
X20956280Y-9465000D01*
X21025000Y-8795000D02*
X21055000Y-8825000D01*
X21055000Y-8795000D02*
X21025000Y-8825000D01*
X5700000Y-7810000D02*
G75*
G02*
X5660000Y-7810000I-20000J0D01*
G01*
X5660000Y-7810000D02*
G75*
G02*
X5700000Y-7810000I20000J0D01*
G01*
X5960000Y-7840000D02*
G75*
G02*
X5920000Y-7840000I-20000J0D01*
G01*
X5920000Y-7840000D02*
G75*
G02*
X5960000Y-7840000I20000J0D01*
G01*
X6119900Y-5556682D02*
G75*
G02*
X6079900Y-5556682I-20000J0D01*
G01*
X6079900Y-5556682D02*
G75*
G02*
X6119900Y-5556682I20000J0D01*
G01*
X6143650Y-4331682D02*
G75*
G02*
X6103650Y-4331682I-20000J0D01*
G01*
X6103650Y-4331682D02*
G75*
G02*
X6143650Y-4331682I20000J0D01*
G01*
X6162500Y-10700000D02*
G75*
G02*
X6122500Y-10700000I-20000J0D01*
G01*
X6122500Y-10700000D02*
G75*
G02*
X6162500Y-10700000I20000J0D01*
G01*
X6170000Y-11782500D02*
G75*
G02*
X6130000Y-11782500I-20000J0D01*
G01*
X6130000Y-11782500D02*
G75*
G02*
X6170000Y-11782500I20000J0D01*
G01*
X6170000Y-12885000D02*
G75*
G02*
X6130000Y-12885000I-20000J0D01*
G01*
X6130000Y-12885000D02*
G75*
G02*
X6170000Y-12885000I20000J0D01*
G01*
X6180000Y-7400000D02*
G75*
G02*
X6140000Y-7400000I-20000J0D01*
G01*
X6140000Y-7400000D02*
G75*
G02*
X6180000Y-7400000I20000J0D01*
G01*
X6193650Y-6731682D02*
G75*
G02*
X6153650Y-6731682I-20000J0D01*
G01*
X6153650Y-6731682D02*
G75*
G02*
X6193650Y-6731682I20000J0D01*
G01*
X6210000Y-7580000D02*
G75*
G02*
X6170000Y-7580000I-20000J0D01*
G01*
X6170000Y-7580000D02*
G75*
G02*
X6210000Y-7580000I20000J0D01*
G01*
X6227500Y-14060000D02*
G75*
G02*
X6187500Y-14060000I-20000J0D01*
G01*
X6187500Y-14060000D02*
G75*
G02*
X6227500Y-14060000I20000J0D01*
G01*
X6653650Y-4231682D02*
G75*
G02*
X6613650Y-4231682I-20000J0D01*
G01*
X6613650Y-4231682D02*
G75*
G02*
X6653650Y-4231682I20000J0D01*
G01*
X6659900Y-5456682D02*
G75*
G02*
X6619900Y-5456682I-20000J0D01*
G01*
X6619900Y-5456682D02*
G75*
G02*
X6659900Y-5456682I20000J0D01*
G01*
X6660000Y-4120000D02*
G75*
G02*
X6620000Y-4120000I-20000J0D01*
G01*
X6620000Y-4120000D02*
G75*
G02*
X6660000Y-4120000I20000J0D01*
G01*
X6660000Y-5350000D02*
G75*
G02*
X6620000Y-5350000I-20000J0D01*
G01*
X6620000Y-5350000D02*
G75*
G02*
X6660000Y-5350000I20000J0D01*
G01*
X6700000Y-10500000D02*
G75*
G02*
X6660000Y-10500000I-20000J0D01*
G01*
X6660000Y-10500000D02*
G75*
G02*
X6700000Y-10500000I20000J0D01*
G01*
X6700000Y-11570000D02*
G75*
G02*
X6660000Y-11570000I-20000J0D01*
G01*
X6660000Y-11570000D02*
G75*
G02*
X6700000Y-11570000I20000J0D01*
G01*
X6700654Y-12774812D02*
G75*
G02*
X6660654Y-12774812I-20000J0D01*
G01*
X6660654Y-12774812D02*
G75*
G02*
X6700654Y-12774812I20000J0D01*
G01*
X6702500Y-10610000D02*
G75*
G02*
X6662500Y-10610000I-20000J0D01*
G01*
X6662500Y-10610000D02*
G75*
G02*
X6702500Y-10610000I20000J0D01*
G01*
X6710000Y-7460000D02*
G75*
G02*
X6670000Y-7460000I-20000J0D01*
G01*
X6670000Y-7460000D02*
G75*
G02*
X6710000Y-7460000I20000J0D01*
G01*
X6710000Y-11672500D02*
G75*
G02*
X6670000Y-11672500I-20000J0D01*
G01*
X6670000Y-11672500D02*
G75*
G02*
X6710000Y-11672500I20000J0D01*
G01*
X6710000Y-12680000D02*
G75*
G02*
X6670000Y-12680000I-20000J0D01*
G01*
X6670000Y-12680000D02*
G75*
G02*
X6710000Y-12680000I20000J0D01*
G01*
X6730000Y-7570000D02*
G75*
G02*
X6690000Y-7570000I-20000J0D01*
G01*
X6690000Y-7570000D02*
G75*
G02*
X6730000Y-7570000I20000J0D01*
G01*
X6733650Y-6631682D02*
G75*
G02*
X6693650Y-6631682I-20000J0D01*
G01*
X6693650Y-6631682D02*
G75*
G02*
X6733650Y-6631682I20000J0D01*
G01*
X6740000Y-7800000D02*
G75*
G02*
X6700000Y-7800000I-20000J0D01*
G01*
X6700000Y-7800000D02*
G75*
G02*
X6740000Y-7800000I20000J0D01*
G01*
X6743750Y-6520000D02*
G75*
G02*
X6703750Y-6520000I-20000J0D01*
G01*
X6703750Y-6520000D02*
G75*
G02*
X6743750Y-6520000I20000J0D01*
G01*
X6747500Y-13960000D02*
G75*
G02*
X6707500Y-13960000I-20000J0D01*
G01*
X6707500Y-13960000D02*
G75*
G02*
X6747500Y-13960000I20000J0D01*
G01*
X6757600Y-13850000D02*
G75*
G02*
X6717600Y-13850000I-20000J0D01*
G01*
X6717600Y-13850000D02*
G75*
G02*
X6757600Y-13850000I20000J0D01*
G01*
X7960000Y-2520000D02*
G75*
G02*
X7920000Y-2520000I-20000J0D01*
G01*
X7920000Y-2520000D02*
G75*
G02*
X7960000Y-2520000I20000J0D01*
G01*
X7960000Y-3300000D02*
G75*
G02*
X7920000Y-3300000I-20000J0D01*
G01*
X7920000Y-3300000D02*
G75*
G02*
X7960000Y-3300000I20000J0D01*
G01*
X7970000Y-4340000D02*
G75*
G02*
X7930000Y-4340000I-20000J0D01*
G01*
X7930000Y-4340000D02*
G75*
G02*
X7970000Y-4340000I20000J0D01*
G01*
X7980000Y-5380000D02*
G75*
G02*
X7940000Y-5380000I-20000J0D01*
G01*
X7940000Y-5380000D02*
G75*
G02*
X7980000Y-5380000I20000J0D01*
G01*
X7984497Y-15885502D02*
G75*
G02*
X7944497Y-15885502I-20000J0D01*
G01*
X7944497Y-15885502D02*
G75*
G02*
X7984497Y-15885502I20000J0D01*
G01*
X7990000Y-6370000D02*
G75*
G02*
X7950000Y-6370000I-20000J0D01*
G01*
X7950000Y-6370000D02*
G75*
G02*
X7990000Y-6370000I20000J0D01*
G01*
X7999497Y-14880502D02*
G75*
G02*
X7959497Y-14880502I-20000J0D01*
G01*
X7959497Y-14880502D02*
G75*
G02*
X7999497Y-14880502I20000J0D01*
G01*
X8000000Y-7350000D02*
G75*
G02*
X7960000Y-7350000I-20000J0D01*
G01*
X7960000Y-7350000D02*
G75*
G02*
X8000000Y-7350000I20000J0D01*
G01*
X8030000Y-8190000D02*
G75*
G02*
X7990000Y-8190000I-20000J0D01*
G01*
X7990000Y-8190000D02*
G75*
G02*
X8030000Y-8190000I20000J0D01*
G01*
X8270000Y-8210000D02*
G75*
G02*
X8230000Y-8210000I-20000J0D01*
G01*
X8230000Y-8210000D02*
G75*
G02*
X8270000Y-8210000I20000J0D01*
G01*
X8805000Y-12605000D02*
G75*
G02*
X8765000Y-12605000I-20000J0D01*
G01*
X8765000Y-12605000D02*
G75*
G02*
X8805000Y-12605000I20000J0D01*
G01*
X8835000Y-7125000D02*
G75*
G02*
X8795000Y-7125000I-20000J0D01*
G01*
X8795000Y-7125000D02*
G75*
G02*
X8835000Y-7125000I20000J0D01*
G01*
X8845000Y-11645000D02*
G75*
G02*
X8805000Y-11645000I-20000J0D01*
G01*
X8805000Y-11645000D02*
G75*
G02*
X8845000Y-11645000I20000J0D01*
G01*
X8845000Y-12215000D02*
G75*
G02*
X8805000Y-12215000I-20000J0D01*
G01*
X8805000Y-12215000D02*
G75*
G02*
X8845000Y-12215000I20000J0D01*
G01*
X8845000Y-13605000D02*
G75*
G02*
X8805000Y-13605000I-20000J0D01*
G01*
X8805000Y-13605000D02*
G75*
G02*
X8845000Y-13605000I20000J0D01*
G01*
X8845000Y-14175000D02*
G75*
G02*
X8805000Y-14175000I-20000J0D01*
G01*
X8805000Y-14175000D02*
G75*
G02*
X8845000Y-14175000I20000J0D01*
G01*
X8845000Y-15605000D02*
G75*
G02*
X8805000Y-15605000I-20000J0D01*
G01*
X8805000Y-15605000D02*
G75*
G02*
X8845000Y-15605000I20000J0D01*
G01*
X8853750Y-6185000D02*
G75*
G02*
X8813750Y-6185000I-20000J0D01*
G01*
X8813750Y-6185000D02*
G75*
G02*
X8853750Y-6185000I20000J0D01*
G01*
X8853750Y-6755000D02*
G75*
G02*
X8813750Y-6755000I-20000J0D01*
G01*
X8813750Y-6755000D02*
G75*
G02*
X8853750Y-6755000I20000J0D01*
G01*
X8865000Y-9275000D02*
G75*
G02*
X8825000Y-9275000I-20000J0D01*
G01*
X8825000Y-9275000D02*
G75*
G02*
X8865000Y-9275000I20000J0D01*
G01*
X8865000Y-10645000D02*
G75*
G02*
X8825000Y-10645000I-20000J0D01*
G01*
X8825000Y-10645000D02*
G75*
G02*
X8865000Y-10645000I20000J0D01*
G01*
X8875000Y-4185000D02*
G75*
G02*
X8835000Y-4185000I-20000J0D01*
G01*
X8835000Y-4185000D02*
G75*
G02*
X8875000Y-4185000I20000J0D01*
G01*
X8875000Y-4755000D02*
G75*
G02*
X8835000Y-4755000I-20000J0D01*
G01*
X8835000Y-4755000D02*
G75*
G02*
X8875000Y-4755000I20000J0D01*
G01*
X8890000Y-2220000D02*
G75*
G02*
X8850000Y-2220000I-20000J0D01*
G01*
X8850000Y-2220000D02*
G75*
G02*
X8890000Y-2220000I20000J0D01*
G01*
X8890000Y-2790000D02*
G75*
G02*
X8850000Y-2790000I-20000J0D01*
G01*
X8850000Y-2790000D02*
G75*
G02*
X8890000Y-2790000I20000J0D01*
G01*
X8895000Y-9645000D02*
G75*
G02*
X8855000Y-9645000I-20000J0D01*
G01*
X8855000Y-9645000D02*
G75*
G02*
X8895000Y-9645000I20000J0D01*
G01*
X8895000Y-10215000D02*
G75*
G02*
X8855000Y-10215000I-20000J0D01*
G01*
X8855000Y-10215000D02*
G75*
G02*
X8895000Y-10215000I20000J0D01*
G01*
X8935000Y-3175000D02*
G75*
G02*
X8895000Y-3175000I-20000J0D01*
G01*
X8895000Y-3175000D02*
G75*
G02*
X8935000Y-3175000I20000J0D01*
G01*
X8935000Y-3745000D02*
G75*
G02*
X8895000Y-3745000I-20000J0D01*
G01*
X8895000Y-3745000D02*
G75*
G02*
X8935000Y-3745000I20000J0D01*
G01*
X8990000Y-5730000D02*
G75*
G02*
X8950000Y-5730000I-20000J0D01*
G01*
X8950000Y-5730000D02*
G75*
G02*
X8990000Y-5730000I20000J0D01*
G01*
X9000000Y-8330000D02*
G75*
G02*
X8960000Y-8330000I-20000J0D01*
G01*
X8960000Y-8330000D02*
G75*
G02*
X9000000Y-8330000I20000J0D01*
G01*
X9060000Y-7420000D02*
G75*
G02*
X9020000Y-7420000I-20000J0D01*
G01*
X9020000Y-7420000D02*
G75*
G02*
X9060000Y-7420000I20000J0D01*
G01*
X9060000Y-8660000D02*
G75*
G02*
X9020000Y-8660000I-20000J0D01*
G01*
X9020000Y-8660000D02*
G75*
G02*
X9060000Y-8660000I20000J0D01*
G01*
X9090000Y-5150000D02*
G75*
G02*
X9050000Y-5150000I-20000J0D01*
G01*
X9050000Y-5150000D02*
G75*
G02*
X9090000Y-5150000I20000J0D01*
G01*
X9100000Y-14640000D02*
G75*
G02*
X9060000Y-14640000I-20000J0D01*
G01*
X9060000Y-14640000D02*
G75*
G02*
X9100000Y-14640000I20000J0D01*
G01*
X9140000Y-13190000D02*
G75*
G02*
X9100000Y-13190000I-20000J0D01*
G01*
X9100000Y-13190000D02*
G75*
G02*
X9140000Y-13190000I20000J0D01*
G01*
X9160000Y-11217500D02*
G75*
G02*
X9120000Y-11217500I-20000J0D01*
G01*
X9120000Y-11217500D02*
G75*
G02*
X9160000Y-11217500I20000J0D01*
G01*
X9190000Y-16100000D02*
G75*
G02*
X9150000Y-16100000I-20000J0D01*
G01*
X9150000Y-16100000D02*
G75*
G02*
X9190000Y-16100000I20000J0D01*
G01*
X9230000Y-15160000D02*
G75*
G02*
X9190000Y-15160000I-20000J0D01*
G01*
X9190000Y-15160000D02*
G75*
G02*
X9230000Y-15160000I20000J0D01*
G01*
X9320000Y-9756271D02*
G75*
G02*
X9280000Y-9756271I-20000J0D01*
G01*
X9280000Y-9756271D02*
G75*
G02*
X9320000Y-9756271I20000J0D01*
G01*
X9390000Y-7920000D02*
G75*
G02*
X9350000Y-7920000I-20000J0D01*
G01*
X9350000Y-7920000D02*
G75*
G02*
X9390000Y-7920000I20000J0D01*
G01*
X9470000Y-8930000D02*
G75*
G02*
X9430000Y-8930000I-20000J0D01*
G01*
X9430000Y-8930000D02*
G75*
G02*
X9470000Y-8930000I20000J0D01*
G01*
X9470000Y-10007627D02*
G75*
G02*
X9430000Y-10007627I-20000J0D01*
G01*
X9430000Y-10007627D02*
G75*
G02*
X9470000Y-10007627I20000J0D01*
G01*
X9475503Y-9095503D02*
G75*
G02*
X9435503Y-9095503I-20000J0D01*
G01*
X9435503Y-9095503D02*
G75*
G02*
X9475503Y-9095503I20000J0D01*
G01*
X9476875Y-2516875D02*
G75*
G02*
X9436875Y-2516875I-20000J0D01*
G01*
X9436875Y-2516875D02*
G75*
G02*
X9476875Y-2516875I20000J0D01*
G01*
X9476875Y-3296875D02*
G75*
G02*
X9436875Y-3296875I-20000J0D01*
G01*
X9436875Y-3296875D02*
G75*
G02*
X9476875Y-3296875I20000J0D01*
G01*
X9486875Y-4336875D02*
G75*
G02*
X9446875Y-4336875I-20000J0D01*
G01*
X9446875Y-4336875D02*
G75*
G02*
X9486875Y-4336875I20000J0D01*
G01*
X9496875Y-5376875D02*
G75*
G02*
X9456875Y-5376875I-20000J0D01*
G01*
X9456875Y-5376875D02*
G75*
G02*
X9496875Y-5376875I20000J0D01*
G01*
X9506875Y-6366875D02*
G75*
G02*
X9466875Y-6366875I-20000J0D01*
G01*
X9466875Y-6366875D02*
G75*
G02*
X9506875Y-6366875I20000J0D01*
G01*
X9510000Y-9790000D02*
G75*
G02*
X9470000Y-9790000I-20000J0D01*
G01*
X9470000Y-9790000D02*
G75*
G02*
X9510000Y-9790000I20000J0D01*
G01*
X9516875Y-7346875D02*
G75*
G02*
X9476875Y-7346875I-20000J0D01*
G01*
X9476875Y-7346875D02*
G75*
G02*
X9516875Y-7346875I20000J0D01*
G01*
X9549498Y-15890502D02*
G75*
G02*
X9509498Y-15890502I-20000J0D01*
G01*
X9509498Y-15890502D02*
G75*
G02*
X9549498Y-15890502I20000J0D01*
G01*
X10310000Y-7920000D02*
G75*
G02*
X10270000Y-7920000I-20000J0D01*
G01*
X10270000Y-7920000D02*
G75*
G02*
X10310000Y-7920000I20000J0D01*
G01*
X10320000Y-12580000D02*
G75*
G02*
X10280000Y-12580000I-20000J0D01*
G01*
X10280000Y-12580000D02*
G75*
G02*
X10320000Y-12580000I20000J0D01*
G01*
X10350000Y-7100000D02*
G75*
G02*
X10310000Y-7100000I-20000J0D01*
G01*
X10310000Y-7100000D02*
G75*
G02*
X10350000Y-7100000I20000J0D01*
G01*
X10360000Y-8280000D02*
G75*
G02*
X10320000Y-8280000I-20000J0D01*
G01*
X10320000Y-8280000D02*
G75*
G02*
X10360000Y-8280000I20000J0D01*
G01*
X10360000Y-11620000D02*
G75*
G02*
X10320000Y-11620000I-20000J0D01*
G01*
X10320000Y-11620000D02*
G75*
G02*
X10360000Y-11620000I20000J0D01*
G01*
X10360000Y-13580000D02*
G75*
G02*
X10320000Y-13580000I-20000J0D01*
G01*
X10320000Y-13580000D02*
G75*
G02*
X10360000Y-13580000I20000J0D01*
G01*
X10360000Y-15580000D02*
G75*
G02*
X10320000Y-15580000I-20000J0D01*
G01*
X10320000Y-15580000D02*
G75*
G02*
X10360000Y-15580000I20000J0D01*
G01*
X10368750Y-6160000D02*
G75*
G02*
X10328750Y-6160000I-20000J0D01*
G01*
X10328750Y-6160000D02*
G75*
G02*
X10368750Y-6160000I20000J0D01*
G01*
X10380000Y-8680000D02*
G75*
G02*
X10340000Y-8680000I-20000J0D01*
G01*
X10340000Y-8680000D02*
G75*
G02*
X10380000Y-8680000I20000J0D01*
G01*
X10380000Y-9250000D02*
G75*
G02*
X10340000Y-9250000I-20000J0D01*
G01*
X10340000Y-9250000D02*
G75*
G02*
X10380000Y-9250000I20000J0D01*
G01*
X10380000Y-10620000D02*
G75*
G02*
X10340000Y-10620000I-20000J0D01*
G01*
X10340000Y-10620000D02*
G75*
G02*
X10380000Y-10620000I20000J0D01*
G01*
X10390000Y-4160000D02*
G75*
G02*
X10350000Y-4160000I-20000J0D01*
G01*
X10350000Y-4160000D02*
G75*
G02*
X10390000Y-4160000I20000J0D01*
G01*
X10390000Y-4730000D02*
G75*
G02*
X10350000Y-4730000I-20000J0D01*
G01*
X10350000Y-4730000D02*
G75*
G02*
X10390000Y-4730000I20000J0D01*
G01*
X10390000Y-5180000D02*
G75*
G02*
X10350000Y-5180000I-20000J0D01*
G01*
X10350000Y-5180000D02*
G75*
G02*
X10390000Y-5180000I20000J0D01*
G01*
X10400000Y-14630000D02*
G75*
G02*
X10360000Y-14630000I-20000J0D01*
G01*
X10360000Y-14630000D02*
G75*
G02*
X10400000Y-14630000I20000J0D01*
G01*
X10405000Y-2195000D02*
G75*
G02*
X10365000Y-2195000I-20000J0D01*
G01*
X10365000Y-2195000D02*
G75*
G02*
X10405000Y-2195000I20000J0D01*
G01*
X10405000Y-2765000D02*
G75*
G02*
X10365000Y-2765000I-20000J0D01*
G01*
X10365000Y-2765000D02*
G75*
G02*
X10405000Y-2765000I20000J0D01*
G01*
X10410000Y-3160000D02*
G75*
G02*
X10370000Y-3160000I-20000J0D01*
G01*
X10370000Y-3160000D02*
G75*
G02*
X10410000Y-3160000I20000J0D01*
G01*
X10410000Y-3730000D02*
G75*
G02*
X10370000Y-3730000I-20000J0D01*
G01*
X10370000Y-3730000D02*
G75*
G02*
X10410000Y-3730000I20000J0D01*
G01*
X10410000Y-9620000D02*
G75*
G02*
X10370000Y-9620000I-20000J0D01*
G01*
X10370000Y-9620000D02*
G75*
G02*
X10410000Y-9620000I20000J0D01*
G01*
X10410000Y-10190000D02*
G75*
G02*
X10370000Y-10190000I-20000J0D01*
G01*
X10370000Y-10190000D02*
G75*
G02*
X10410000Y-10190000I20000J0D01*
G01*
X10490000Y-8380000D02*
G75*
G02*
X10450000Y-8380000I-20000J0D01*
G01*
X10450000Y-8380000D02*
G75*
G02*
X10490000Y-8380000I20000J0D01*
G01*
X10490000Y-16290000D02*
G75*
G02*
X10450000Y-16290000I-20000J0D01*
G01*
X10450000Y-16290000D02*
G75*
G02*
X10490000Y-16290000I20000J0D01*
G01*
X10500000Y-6760000D02*
G75*
G02*
X10460000Y-6760000I-20000J0D01*
G01*
X10460000Y-6760000D02*
G75*
G02*
X10500000Y-6760000I20000J0D01*
G01*
X10590000Y-7720000D02*
G75*
G02*
X10550000Y-7720000I-20000J0D01*
G01*
X10550000Y-7720000D02*
G75*
G02*
X10590000Y-7720000I20000J0D01*
G01*
X10590000Y-11200000D02*
G75*
G02*
X10550000Y-11200000I-20000J0D01*
G01*
X10550000Y-11200000D02*
G75*
G02*
X10590000Y-11200000I20000J0D01*
G01*
X10610000Y-13200000D02*
G75*
G02*
X10570000Y-13200000I-20000J0D01*
G01*
X10570000Y-13200000D02*
G75*
G02*
X10610000Y-13200000I20000J0D01*
G01*
X10620000Y-14180000D02*
G75*
G02*
X10580000Y-14180000I-20000J0D01*
G01*
X10580000Y-14180000D02*
G75*
G02*
X10620000Y-14180000I20000J0D01*
G01*
X10650000Y-5750000D02*
G75*
G02*
X10610000Y-5750000I-20000J0D01*
G01*
X10610000Y-5750000D02*
G75*
G02*
X10650000Y-5750000I20000J0D01*
G01*
X10680000Y-12210000D02*
G75*
G02*
X10640000Y-12210000I-20000J0D01*
G01*
X10640000Y-12210000D02*
G75*
G02*
X10680000Y-12210000I20000J0D01*
G01*
X10730000Y-15000000D02*
G75*
G02*
X10690000Y-15000000I-20000J0D01*
G01*
X10690000Y-15000000D02*
G75*
G02*
X10730000Y-15000000I20000J0D01*
G01*
X10790000Y-8670000D02*
G75*
G02*
X10750000Y-8670000I-20000J0D01*
G01*
X10750000Y-8670000D02*
G75*
G02*
X10790000Y-8670000I20000J0D01*
G01*
X10790000Y-9100000D02*
G75*
G02*
X10750000Y-9100000I-20000J0D01*
G01*
X10750000Y-9100000D02*
G75*
G02*
X10790000Y-9100000I20000J0D01*
G01*
X10790000Y-9620000D02*
G75*
G02*
X10750000Y-9620000I-20000J0D01*
G01*
X10750000Y-9620000D02*
G75*
G02*
X10790000Y-9620000I20000J0D01*
G01*
X10960000Y-9740000D02*
G75*
G02*
X10920000Y-9740000I-20000J0D01*
G01*
X10920000Y-9740000D02*
G75*
G02*
X10960000Y-9740000I20000J0D01*
G01*
X10964498Y-15835502D02*
G75*
G02*
X10924498Y-15835502I-20000J0D01*
G01*
X10924498Y-15835502D02*
G75*
G02*
X10964498Y-15835502I20000J0D01*
G01*
X10991250Y-2517500D02*
G75*
G02*
X10951250Y-2517500I-20000J0D01*
G01*
X10951250Y-2517500D02*
G75*
G02*
X10991250Y-2517500I20000J0D01*
G01*
X10991250Y-3283750D02*
G75*
G02*
X10951250Y-3283750I-20000J0D01*
G01*
X10951250Y-3283750D02*
G75*
G02*
X10991250Y-3283750I20000J0D01*
G01*
X11000000Y-10007627D02*
G75*
G02*
X10960000Y-10007627I-20000J0D01*
G01*
X10960000Y-10007627D02*
G75*
G02*
X11000000Y-10007627I20000J0D01*
G01*
X11000000Y-11790000D02*
G75*
G02*
X10960000Y-11790000I-20000J0D01*
G01*
X10960000Y-11790000D02*
G75*
G02*
X11000000Y-11790000I20000J0D01*
G01*
X11000000Y-12800000D02*
G75*
G02*
X10960000Y-12800000I-20000J0D01*
G01*
X10960000Y-12800000D02*
G75*
G02*
X11000000Y-12800000I20000J0D01*
G01*
X11000000Y-13800000D02*
G75*
G02*
X10960000Y-13800000I-20000J0D01*
G01*
X10960000Y-13800000D02*
G75*
G02*
X11000000Y-13800000I20000J0D01*
G01*
X11000000Y-14880000D02*
G75*
G02*
X10960000Y-14880000I-20000J0D01*
G01*
X10960000Y-14880000D02*
G75*
G02*
X11000000Y-14880000I20000J0D01*
G01*
X11001250Y-4323750D02*
G75*
G02*
X10961250Y-4323750I-20000J0D01*
G01*
X10961250Y-4323750D02*
G75*
G02*
X11001250Y-4323750I20000J0D01*
G01*
X11009498Y-10830503D02*
G75*
G02*
X10969498Y-10830503I-20000J0D01*
G01*
X10969498Y-10830503D02*
G75*
G02*
X11009498Y-10830503I20000J0D01*
G01*
X11011250Y-5363750D02*
G75*
G02*
X10971250Y-5363750I-20000J0D01*
G01*
X10971250Y-5363750D02*
G75*
G02*
X11011250Y-5363750I20000J0D01*
G01*
X11021250Y-6353750D02*
G75*
G02*
X10981250Y-6353750I-20000J0D01*
G01*
X10981250Y-6353750D02*
G75*
G02*
X11021250Y-6353750I20000J0D01*
G01*
X11030000Y-7360000D02*
G75*
G02*
X10990000Y-7360000I-20000J0D01*
G01*
X10990000Y-7360000D02*
G75*
G02*
X11030000Y-7360000I20000J0D01*
G01*
X11530000Y-7970000D02*
G75*
G02*
X11490000Y-7970000I-20000J0D01*
G01*
X11490000Y-7970000D02*
G75*
G02*
X11530000Y-7970000I20000J0D01*
G01*
X11670000Y-7240000D02*
G75*
G02*
X11630000Y-7240000I-20000J0D01*
G01*
X11630000Y-7240000D02*
G75*
G02*
X11670000Y-7240000I20000J0D01*
G01*
X11750000Y-15642500D02*
G75*
G02*
X11710000Y-15642500I-20000J0D01*
G01*
X11710000Y-15642500D02*
G75*
G02*
X11750000Y-15642500I20000J0D01*
G01*
X11774497Y-8384497D02*
G75*
G02*
X11734497Y-8384497I-20000J0D01*
G01*
X11734497Y-8384497D02*
G75*
G02*
X11774497Y-8384497I20000J0D01*
G01*
X11860000Y-12610000D02*
G75*
G02*
X11820000Y-12610000I-20000J0D01*
G01*
X11820000Y-12610000D02*
G75*
G02*
X11860000Y-12610000I20000J0D01*
G01*
X11900000Y-11650000D02*
G75*
G02*
X11860000Y-11650000I-20000J0D01*
G01*
X11860000Y-11650000D02*
G75*
G02*
X11900000Y-11650000I20000J0D01*
G01*
X11900000Y-12220000D02*
G75*
G02*
X11860000Y-12220000I-20000J0D01*
G01*
X11860000Y-12220000D02*
G75*
G02*
X11900000Y-12220000I20000J0D01*
G01*
X11900000Y-13610000D02*
G75*
G02*
X11860000Y-13610000I-20000J0D01*
G01*
X11860000Y-13610000D02*
G75*
G02*
X11900000Y-13610000I20000J0D01*
G01*
X11900000Y-14180000D02*
G75*
G02*
X11860000Y-14180000I-20000J0D01*
G01*
X11860000Y-14180000D02*
G75*
G02*
X11900000Y-14180000I20000J0D01*
G01*
X11908750Y-6130000D02*
G75*
G02*
X11868750Y-6130000I-20000J0D01*
G01*
X11868750Y-6130000D02*
G75*
G02*
X11908750Y-6130000I20000J0D01*
G01*
X11910000Y-6930000D02*
G75*
G02*
X11870000Y-6930000I-20000J0D01*
G01*
X11870000Y-6930000D02*
G75*
G02*
X11910000Y-6930000I20000J0D01*
G01*
X11920000Y-8710000D02*
G75*
G02*
X11880000Y-8710000I-20000J0D01*
G01*
X11880000Y-8710000D02*
G75*
G02*
X11920000Y-8710000I20000J0D01*
G01*
X11920000Y-9280000D02*
G75*
G02*
X11880000Y-9280000I-20000J0D01*
G01*
X11880000Y-9280000D02*
G75*
G02*
X11920000Y-9280000I20000J0D01*
G01*
X11920000Y-10650000D02*
G75*
G02*
X11880000Y-10650000I-20000J0D01*
G01*
X11880000Y-10650000D02*
G75*
G02*
X11920000Y-10650000I20000J0D01*
G01*
X11930000Y-4190000D02*
G75*
G02*
X11890000Y-4190000I-20000J0D01*
G01*
X11890000Y-4190000D02*
G75*
G02*
X11930000Y-4190000I20000J0D01*
G01*
X11930000Y-4760000D02*
G75*
G02*
X11890000Y-4760000I-20000J0D01*
G01*
X11890000Y-4760000D02*
G75*
G02*
X11930000Y-4760000I20000J0D01*
G01*
X11930000Y-5210000D02*
G75*
G02*
X11890000Y-5210000I-20000J0D01*
G01*
X11890000Y-5210000D02*
G75*
G02*
X11930000Y-5210000I20000J0D01*
G01*
X11945000Y-2795000D02*
G75*
G02*
X11905000Y-2795000I-20000J0D01*
G01*
X11905000Y-2795000D02*
G75*
G02*
X11945000Y-2795000I20000J0D01*
G01*
X11945000Y-3195000D02*
G75*
G02*
X11905000Y-3195000I-20000J0D01*
G01*
X11905000Y-3195000D02*
G75*
G02*
X11945000Y-3195000I20000J0D01*
G01*
X11945000Y-3765000D02*
G75*
G02*
X11905000Y-3765000I-20000J0D01*
G01*
X11905000Y-3765000D02*
G75*
G02*
X11945000Y-3765000I20000J0D01*
G01*
X11950000Y-9650000D02*
G75*
G02*
X11910000Y-9650000I-20000J0D01*
G01*
X11910000Y-9650000D02*
G75*
G02*
X11950000Y-9650000I20000J0D01*
G01*
X11950000Y-10220000D02*
G75*
G02*
X11910000Y-10220000I-20000J0D01*
G01*
X11910000Y-10220000D02*
G75*
G02*
X11950000Y-10220000I20000J0D01*
G01*
X11980000Y-16310000D02*
G75*
G02*
X11940000Y-16310000I-20000J0D01*
G01*
X11940000Y-16310000D02*
G75*
G02*
X11980000Y-16310000I20000J0D01*
G01*
X12070000Y-13220000D02*
G75*
G02*
X12030000Y-13220000I-20000J0D01*
G01*
X12030000Y-13220000D02*
G75*
G02*
X12070000Y-13220000I20000J0D01*
G01*
X12080000Y-7430000D02*
G75*
G02*
X12040000Y-7430000I-20000J0D01*
G01*
X12040000Y-7430000D02*
G75*
G02*
X12080000Y-7430000I20000J0D01*
G01*
X12090000Y-2240000D02*
G75*
G02*
X12050000Y-2240000I-20000J0D01*
G01*
X12050000Y-2240000D02*
G75*
G02*
X12090000Y-2240000I20000J0D01*
G01*
X12090000Y-5758482D02*
G75*
G02*
X12050000Y-5758482I-20000J0D01*
G01*
X12050000Y-5758482D02*
G75*
G02*
X12090000Y-5758482I20000J0D01*
G01*
X12110000Y-6730000D02*
G75*
G02*
X12070000Y-6730000I-20000J0D01*
G01*
X12070000Y-6730000D02*
G75*
G02*
X12110000Y-6730000I20000J0D01*
G01*
X12120000Y-14620000D02*
G75*
G02*
X12080000Y-14620000I-20000J0D01*
G01*
X12080000Y-14620000D02*
G75*
G02*
X12120000Y-14620000I20000J0D01*
G01*
X12120000Y-15200000D02*
G75*
G02*
X12080000Y-15200000I-20000J0D01*
G01*
X12080000Y-15200000D02*
G75*
G02*
X12120000Y-15200000I20000J0D01*
G01*
X12180000Y-7280000D02*
G75*
G02*
X12140000Y-7280000I-20000J0D01*
G01*
X12140000Y-7280000D02*
G75*
G02*
X12180000Y-7280000I20000J0D01*
G01*
X12230000Y-11160000D02*
G75*
G02*
X12190000Y-11160000I-20000J0D01*
G01*
X12190000Y-11160000D02*
G75*
G02*
X12230000Y-11160000I20000J0D01*
G01*
X12240000Y-6940000D02*
G75*
G02*
X12200000Y-6940000I-20000J0D01*
G01*
X12200000Y-6940000D02*
G75*
G02*
X12240000Y-6940000I20000J0D01*
G01*
X12260695Y-9618837D02*
G75*
G02*
X12220695Y-9618837I-20000J0D01*
G01*
X12220695Y-9618837D02*
G75*
G02*
X12260695Y-9618837I20000J0D01*
G01*
X12280000Y-7640000D02*
G75*
G02*
X12240000Y-7640000I-20000J0D01*
G01*
X12240000Y-7640000D02*
G75*
G02*
X12280000Y-7640000I20000J0D01*
G01*
X12280000Y-8660000D02*
G75*
G02*
X12240000Y-8660000I-20000J0D01*
G01*
X12240000Y-8660000D02*
G75*
G02*
X12280000Y-8660000I20000J0D01*
G01*
X12280000Y-9090200D02*
G75*
G02*
X12240000Y-9090200I-20000J0D01*
G01*
X12240000Y-9090200D02*
G75*
G02*
X12280000Y-9090200I20000J0D01*
G01*
X12420000Y-10007627D02*
G75*
G02*
X12380000Y-10007627I-20000J0D01*
G01*
X12380000Y-10007627D02*
G75*
G02*
X12420000Y-10007627I20000J0D01*
G01*
X12430100Y-10710000D02*
G75*
G02*
X12390100Y-10710000I-20000J0D01*
G01*
X12390100Y-10710000D02*
G75*
G02*
X12430100Y-10710000I20000J0D01*
G01*
X12430100Y-11760000D02*
G75*
G02*
X12390100Y-11760000I-20000J0D01*
G01*
X12390100Y-11760000D02*
G75*
G02*
X12430100Y-11760000I20000J0D01*
G01*
X12430100Y-12750000D02*
G75*
G02*
X12390100Y-12750000I-20000J0D01*
G01*
X12390100Y-12750000D02*
G75*
G02*
X12430100Y-12750000I20000J0D01*
G01*
X12430100Y-13750000D02*
G75*
G02*
X12390100Y-13750000I-20000J0D01*
G01*
X12390100Y-13750000D02*
G75*
G02*
X12430100Y-13750000I20000J0D01*
G01*
X12430100Y-14870000D02*
G75*
G02*
X12390100Y-14870000I-20000J0D01*
G01*
X12390100Y-14870000D02*
G75*
G02*
X12430100Y-14870000I20000J0D01*
G01*
X12450000Y-7220000D02*
G75*
G02*
X12410000Y-7220000I-20000J0D01*
G01*
X12410000Y-7220000D02*
G75*
G02*
X12450000Y-7220000I20000J0D01*
G01*
X12476216Y-15813784D02*
G75*
G02*
X12436216Y-15813784I-20000J0D01*
G01*
X12436216Y-15813784D02*
G75*
G02*
X12476216Y-15813784I20000J0D01*
G01*
X12482500Y-2517500D02*
G75*
G02*
X12442500Y-2517500I-20000J0D01*
G01*
X12442500Y-2517500D02*
G75*
G02*
X12482500Y-2517500I20000J0D01*
G01*
X12482500Y-3283750D02*
G75*
G02*
X12442500Y-3283750I-20000J0D01*
G01*
X12442500Y-3283750D02*
G75*
G02*
X12482500Y-3283750I20000J0D01*
G01*
X12492500Y-4323750D02*
G75*
G02*
X12452500Y-4323750I-20000J0D01*
G01*
X12452500Y-4323750D02*
G75*
G02*
X12492500Y-4323750I20000J0D01*
G01*
X12500000Y-5330000D02*
G75*
G02*
X12460000Y-5330000I-20000J0D01*
G01*
X12460000Y-5330000D02*
G75*
G02*
X12500000Y-5330000I20000J0D01*
G01*
X12512500Y-6353750D02*
G75*
G02*
X12472500Y-6353750I-20000J0D01*
G01*
X12472500Y-6353750D02*
G75*
G02*
X12512500Y-6353750I20000J0D01*
G01*
X12570000Y-10070000D02*
G75*
G02*
X12530000Y-10070000I-20000J0D01*
G01*
X12530000Y-10070000D02*
G75*
G02*
X12570000Y-10070000I20000J0D01*
G01*
X13130000Y-6660000D02*
G75*
G02*
X13090000Y-6660000I-20000J0D01*
G01*
X13090000Y-6660000D02*
G75*
G02*
X13130000Y-6660000I20000J0D01*
G01*
X13130000Y-14200000D02*
G75*
G02*
X13090000Y-14200000I-20000J0D01*
G01*
X13090000Y-14200000D02*
G75*
G02*
X13130000Y-14200000I20000J0D01*
G01*
X13130000Y-16010000D02*
G75*
G02*
X13090000Y-16010000I-20000J0D01*
G01*
X13090000Y-16010000D02*
G75*
G02*
X13130000Y-16010000I20000J0D01*
G01*
X13140000Y-7680000D02*
G75*
G02*
X13100000Y-7680000I-20000J0D01*
G01*
X13100000Y-7680000D02*
G75*
G02*
X13140000Y-7680000I20000J0D01*
G01*
X13140000Y-15100000D02*
G75*
G02*
X13100000Y-15100000I-20000J0D01*
G01*
X13100000Y-15100000D02*
G75*
G02*
X13140000Y-15100000I20000J0D01*
G01*
X13150000Y-8530000D02*
G75*
G02*
X13110000Y-8530000I-20000J0D01*
G01*
X13110000Y-8530000D02*
G75*
G02*
X13150000Y-8530000I20000J0D01*
G01*
X13150000Y-11210000D02*
G75*
G02*
X13110000Y-11210000I-20000J0D01*
G01*
X13110000Y-11210000D02*
G75*
G02*
X13150000Y-11210000I20000J0D01*
G01*
X13159366Y-9099366D02*
G75*
G02*
X13119366Y-9099366I-20000J0D01*
G01*
X13119366Y-9099366D02*
G75*
G02*
X13159366Y-9099366I20000J0D01*
G01*
X13170000Y-10070000D02*
G75*
G02*
X13130000Y-10070000I-20000J0D01*
G01*
X13130000Y-10070000D02*
G75*
G02*
X13170000Y-10070000I20000J0D01*
G01*
X13180000Y-11640000D02*
G75*
G02*
X13140000Y-11640000I-20000J0D01*
G01*
X13140000Y-11640000D02*
G75*
G02*
X13180000Y-11640000I20000J0D01*
G01*
X13200000Y-12220000D02*
G75*
G02*
X13160000Y-12220000I-20000J0D01*
G01*
X13160000Y-12220000D02*
G75*
G02*
X13200000Y-12220000I20000J0D01*
G01*
X13215000Y-13215000D02*
G75*
G02*
X13175000Y-13215000I-20000J0D01*
G01*
X13175000Y-13215000D02*
G75*
G02*
X13215000Y-13215000I20000J0D01*
G01*
X13220000Y-4780000D02*
G75*
G02*
X13180000Y-4780000I-20000J0D01*
G01*
X13180000Y-4780000D02*
G75*
G02*
X13220000Y-4780000I20000J0D01*
G01*
X13220000Y-5780000D02*
G75*
G02*
X13180000Y-5780000I-20000J0D01*
G01*
X13180000Y-5780000D02*
G75*
G02*
X13220000Y-5780000I20000J0D01*
G01*
X13235000Y-3785000D02*
G75*
G02*
X13195000Y-3785000I-20000J0D01*
G01*
X13195000Y-3785000D02*
G75*
G02*
X13235000Y-3785000I20000J0D01*
G01*
X13300000Y-2830000D02*
G75*
G02*
X13260000Y-2830000I-20000J0D01*
G01*
X13260000Y-2830000D02*
G75*
G02*
X13300000Y-2830000I20000J0D01*
G01*
X13310000Y-6120000D02*
G75*
G02*
X13270000Y-6120000I-20000J0D01*
G01*
X13270000Y-6120000D02*
G75*
G02*
X13310000Y-6120000I20000J0D01*
G01*
X13310000Y-14630000D02*
G75*
G02*
X13270000Y-14630000I-20000J0D01*
G01*
X13270000Y-14630000D02*
G75*
G02*
X13310000Y-14630000I20000J0D01*
G01*
X13330000Y-12600000D02*
G75*
G02*
X13290000Y-12600000I-20000J0D01*
G01*
X13290000Y-12600000D02*
G75*
G02*
X13330000Y-12600000I20000J0D01*
G01*
X13350000Y-3170000D02*
G75*
G02*
X13310000Y-3170000I-20000J0D01*
G01*
X13310000Y-3170000D02*
G75*
G02*
X13350000Y-3170000I20000J0D01*
G01*
X13360000Y-7120000D02*
G75*
G02*
X13320000Y-7120000I-20000J0D01*
G01*
X13320000Y-7120000D02*
G75*
G02*
X13360000Y-7120000I20000J0D01*
G01*
X13370000Y-13600000D02*
G75*
G02*
X13330000Y-13600000I-20000J0D01*
G01*
X13330000Y-13600000D02*
G75*
G02*
X13370000Y-13600000I20000J0D01*
G01*
X13370000Y-15600000D02*
G75*
G02*
X13330000Y-15600000I-20000J0D01*
G01*
X13330000Y-15600000D02*
G75*
G02*
X13370000Y-15600000I20000J0D01*
G01*
X13390000Y-10640000D02*
G75*
G02*
X13350000Y-10640000I-20000J0D01*
G01*
X13350000Y-10640000D02*
G75*
G02*
X13390000Y-10640000I20000J0D01*
G01*
X13400000Y-4180000D02*
G75*
G02*
X13360000Y-4180000I-20000J0D01*
G01*
X13360000Y-4180000D02*
G75*
G02*
X13400000Y-4180000I20000J0D01*
G01*
X13400000Y-5200000D02*
G75*
G02*
X13360000Y-5200000I-20000J0D01*
G01*
X13360000Y-5200000D02*
G75*
G02*
X13400000Y-5200000I20000J0D01*
G01*
X13415000Y-2215000D02*
G75*
G02*
X13375000Y-2215000I-20000J0D01*
G01*
X13375000Y-2215000D02*
G75*
G02*
X13415000Y-2215000I20000J0D01*
G01*
X13420000Y-9640000D02*
G75*
G02*
X13380000Y-9640000I-20000J0D01*
G01*
X13380000Y-9640000D02*
G75*
G02*
X13420000Y-9640000I20000J0D01*
G01*
X13513750Y-9140000D02*
G75*
G02*
X13473750Y-9140000I-20000J0D01*
G01*
X13473750Y-9140000D02*
G75*
G02*
X13513750Y-9140000I20000J0D01*
G01*
X13760000Y-9000000D02*
G75*
G02*
X13720000Y-9000000I-20000J0D01*
G01*
X13720000Y-9000000D02*
G75*
G02*
X13760000Y-9000000I20000J0D01*
G01*
X14170000Y-10530000D02*
G75*
G02*
X14130000Y-10530000I-20000J0D01*
G01*
X14130000Y-10530000D02*
G75*
G02*
X14170000Y-10530000I20000J0D01*
G01*
X14200000Y-11570000D02*
G75*
G02*
X14160000Y-11570000I-20000J0D01*
G01*
X14160000Y-11570000D02*
G75*
G02*
X14200000Y-11570000I20000J0D01*
G01*
X14210000Y-3000000D02*
G75*
G02*
X14170000Y-3000000I-20000J0D01*
G01*
X14170000Y-3000000D02*
G75*
G02*
X14210000Y-3000000I20000J0D01*
G01*
X14220000Y-14870000D02*
G75*
G02*
X14180000Y-14870000I-20000J0D01*
G01*
X14180000Y-14870000D02*
G75*
G02*
X14220000Y-14870000I20000J0D01*
G01*
X14240000Y-6670000D02*
G75*
G02*
X14200000Y-6670000I-20000J0D01*
G01*
X14200000Y-6670000D02*
G75*
G02*
X14240000Y-6670000I20000J0D01*
G01*
X14240000Y-15960000D02*
G75*
G02*
X14200000Y-15960000I-20000J0D01*
G01*
X14200000Y-15960000D02*
G75*
G02*
X14240000Y-15960000I20000J0D01*
G01*
X14280000Y-7720000D02*
G75*
G02*
X14240000Y-7720000I-20000J0D01*
G01*
X14240000Y-7720000D02*
G75*
G02*
X14280000Y-7720000I20000J0D01*
G01*
X14309497Y-4149497D02*
G75*
G02*
X14269497Y-4149497I-20000J0D01*
G01*
X14269497Y-4149497D02*
G75*
G02*
X14309497Y-4149497I20000J0D01*
G01*
X15080000Y-15060000D02*
G75*
G02*
X15040000Y-15060000I-20000J0D01*
G01*
X15040000Y-15060000D02*
G75*
G02*
X15080000Y-15060000I20000J0D01*
G01*
X15080000Y-15450000D02*
G75*
G02*
X15040000Y-15450000I-20000J0D01*
G01*
X15040000Y-15450000D02*
G75*
G02*
X15080000Y-15450000I20000J0D01*
G01*
X15090000Y-10380000D02*
G75*
G02*
X15050000Y-10380000I-20000J0D01*
G01*
X15050000Y-10380000D02*
G75*
G02*
X15090000Y-10380000I20000J0D01*
G01*
X15090000Y-11080000D02*
G75*
G02*
X15050000Y-11080000I-20000J0D01*
G01*
X15050000Y-11080000D02*
G75*
G02*
X15090000Y-11080000I20000J0D01*
G01*
X15090000Y-15830000D02*
G75*
G02*
X15050000Y-15830000I-20000J0D01*
G01*
X15050000Y-15830000D02*
G75*
G02*
X15090000Y-15830000I20000J0D01*
G01*
X15100000Y-10000000D02*
G75*
G02*
X15060000Y-10000000I-20000J0D01*
G01*
X15060000Y-10000000D02*
G75*
G02*
X15100000Y-10000000I20000J0D01*
G01*
X15100000Y-13980000D02*
G75*
G02*
X15060000Y-13980000I-20000J0D01*
G01*
X15060000Y-13980000D02*
G75*
G02*
X15100000Y-13980000I20000J0D01*
G01*
X15100000Y-14370000D02*
G75*
G02*
X15060000Y-14370000I-20000J0D01*
G01*
X15060000Y-14370000D02*
G75*
G02*
X15100000Y-14370000I20000J0D01*
G01*
X15100000Y-14740000D02*
G75*
G02*
X15060000Y-14740000I-20000J0D01*
G01*
X15060000Y-14740000D02*
G75*
G02*
X15100000Y-14740000I20000J0D01*
G01*
X15110000Y-9610000D02*
G75*
G02*
X15070000Y-9610000I-20000J0D01*
G01*
X15070000Y-9610000D02*
G75*
G02*
X15110000Y-9610000I20000J0D01*
G01*
X15110000Y-10700000D02*
G75*
G02*
X15070000Y-10700000I-20000J0D01*
G01*
X15070000Y-10700000D02*
G75*
G02*
X15110000Y-10700000I20000J0D01*
G01*
X15110000Y-11450000D02*
G75*
G02*
X15070000Y-11450000I-20000J0D01*
G01*
X15070000Y-11450000D02*
G75*
G02*
X15110000Y-11450000I20000J0D01*
G01*
X15140000Y-3990000D02*
G75*
G02*
X15100000Y-3990000I-20000J0D01*
G01*
X15100000Y-3990000D02*
G75*
G02*
X15140000Y-3990000I20000J0D01*
G01*
X15150000Y-3610000D02*
G75*
G02*
X15110000Y-3610000I-20000J0D01*
G01*
X15110000Y-3610000D02*
G75*
G02*
X15150000Y-3610000I20000J0D01*
G01*
X15160000Y-2520000D02*
G75*
G02*
X15120000Y-2520000I-20000J0D01*
G01*
X15120000Y-2520000D02*
G75*
G02*
X15160000Y-2520000I20000J0D01*
G01*
X15160000Y-2890000D02*
G75*
G02*
X15120000Y-2890000I-20000J0D01*
G01*
X15120000Y-2890000D02*
G75*
G02*
X15160000Y-2890000I20000J0D01*
G01*
X15160000Y-7210000D02*
G75*
G02*
X15120000Y-7210000I-20000J0D01*
G01*
X15120000Y-7210000D02*
G75*
G02*
X15160000Y-7210000I20000J0D01*
G01*
X15160000Y-7590000D02*
G75*
G02*
X15120000Y-7590000I-20000J0D01*
G01*
X15120000Y-7590000D02*
G75*
G02*
X15160000Y-7590000I20000J0D01*
G01*
X15170000Y-2090000D02*
G75*
G02*
X15130000Y-2090000I-20000J0D01*
G01*
X15130000Y-2090000D02*
G75*
G02*
X15170000Y-2090000I20000J0D01*
G01*
X15170000Y-5770000D02*
G75*
G02*
X15130000Y-5770000I-20000J0D01*
G01*
X15130000Y-5770000D02*
G75*
G02*
X15170000Y-5770000I20000J0D01*
G01*
X15170000Y-6150000D02*
G75*
G02*
X15130000Y-6150000I-20000J0D01*
G01*
X15130000Y-6150000D02*
G75*
G02*
X15170000Y-6150000I20000J0D01*
G01*
X15170000Y-6820000D02*
G75*
G02*
X15130000Y-6820000I-20000J0D01*
G01*
X15130000Y-6820000D02*
G75*
G02*
X15170000Y-6820000I20000J0D01*
G01*
X15180000Y-6540000D02*
G75*
G02*
X15140000Y-6540000I-20000J0D01*
G01*
X15140000Y-6540000D02*
G75*
G02*
X15180000Y-6540000I20000J0D01*
G01*
X15183252Y-3143252D02*
G75*
G02*
X15143252Y-3143252I-20000J0D01*
G01*
X15143252Y-3143252D02*
G75*
G02*
X15183252Y-3143252I20000J0D01*
G01*
X15490000Y-2970000D02*
G75*
G02*
X15450000Y-2970000I-20000J0D01*
G01*
X15450000Y-2970000D02*
G75*
G02*
X15490000Y-2970000I20000J0D01*
G01*
X15510000Y-4730000D02*
G75*
G02*
X15470000Y-4730000I-20000J0D01*
G01*
X15470000Y-4730000D02*
G75*
G02*
X15510000Y-4730000I20000J0D01*
G01*
X15510000Y-5700000D02*
G75*
G02*
X15470000Y-5700000I-20000J0D01*
G01*
X15470000Y-5700000D02*
G75*
G02*
X15510000Y-5700000I20000J0D01*
G01*
X15510000Y-7990000D02*
G75*
G02*
X15470000Y-7990000I-20000J0D01*
G01*
X15470000Y-7990000D02*
G75*
G02*
X15510000Y-7990000I20000J0D01*
G01*
X15520000Y-6770000D02*
G75*
G02*
X15480000Y-6770000I-20000J0D01*
G01*
X15480000Y-6770000D02*
G75*
G02*
X15520000Y-6770000I20000J0D01*
G01*
X16558680Y-7894900D02*
G75*
G02*
X16518680Y-7894900I-20000J0D01*
G01*
X16518680Y-7894900D02*
G75*
G02*
X16558680Y-7894900I20000J0D01*
G01*
X16558680Y-8004900D02*
G75*
G02*
X16518680Y-8004900I-20000J0D01*
G01*
X16518680Y-8004900D02*
G75*
G02*
X16558680Y-8004900I20000J0D01*
G01*
X16561180Y-6819900D02*
G75*
G02*
X16521180Y-6819900I-20000J0D01*
G01*
X16521180Y-6819900D02*
G75*
G02*
X16561180Y-6819900I20000J0D01*
G01*
X16571180Y-6919900D02*
G75*
G02*
X16531180Y-6919900I-20000J0D01*
G01*
X16531180Y-6919900D02*
G75*
G02*
X16571180Y-6919900I20000J0D01*
G01*
X16594305Y-4544275D02*
G75*
G02*
X16554305Y-4544275I-20000J0D01*
G01*
X16554305Y-4544275D02*
G75*
G02*
X16594305Y-4544275I20000J0D01*
G01*
X16598055Y-5639900D02*
G75*
G02*
X16558055Y-5639900I-20000J0D01*
G01*
X16558055Y-5639900D02*
G75*
G02*
X16598055Y-5639900I20000J0D01*
G01*
X16604305Y-4689144D02*
G75*
G02*
X16564305Y-4689144I-20000J0D01*
G01*
X16564305Y-4689144D02*
G75*
G02*
X16604305Y-4689144I20000J0D01*
G01*
X16608055Y-5749900D02*
G75*
G02*
X16568055Y-5749900I-20000J0D01*
G01*
X16568055Y-5749900D02*
G75*
G02*
X16608055Y-5749900I20000J0D01*
G01*
X16666200Y-11870000D02*
G75*
G02*
X16626200Y-11870000I-20000J0D01*
G01*
X16626200Y-11870000D02*
G75*
G02*
X16666200Y-11870000I20000J0D01*
G01*
X16671200Y-11765000D02*
G75*
G02*
X16631200Y-11765000I-20000J0D01*
G01*
X16631200Y-11765000D02*
G75*
G02*
X16671200Y-11765000I20000J0D01*
G01*
X16676250Y-14280000D02*
G75*
G02*
X16636250Y-14280000I-20000J0D01*
G01*
X16636250Y-14280000D02*
G75*
G02*
X16676250Y-14280000I20000J0D01*
G01*
X16676250Y-14380000D02*
G75*
G02*
X16636250Y-14380000I-20000J0D01*
G01*
X16636250Y-14380000D02*
G75*
G02*
X16676250Y-14380000I20000J0D01*
G01*
X16703700Y-13040000D02*
G75*
G02*
X16663700Y-13040000I-20000J0D01*
G01*
X16663700Y-13040000D02*
G75*
G02*
X16703700Y-13040000I20000J0D01*
G01*
X16710628Y-13139760D02*
G75*
G02*
X16670628Y-13139760I-20000J0D01*
G01*
X16670628Y-13139760D02*
G75*
G02*
X16710628Y-13139760I20000J0D01*
G01*
X16726250Y-15540000D02*
G75*
G02*
X16686250Y-15540000I-20000J0D01*
G01*
X16686250Y-15540000D02*
G75*
G02*
X16726250Y-15540000I20000J0D01*
G01*
X16736250Y-15640000D02*
G75*
G02*
X16696250Y-15640000I-20000J0D01*
G01*
X16696250Y-15640000D02*
G75*
G02*
X16736250Y-15640000I20000J0D01*
G01*
X17088680Y-7804900D02*
G75*
G02*
X17048680Y-7804900I-20000J0D01*
G01*
X17048680Y-7804900D02*
G75*
G02*
X17088680Y-7804900I20000J0D01*
G01*
X17121180Y-6719900D02*
G75*
G02*
X17081180Y-6719900I-20000J0D01*
G01*
X17081180Y-6719900D02*
G75*
G02*
X17121180Y-6719900I20000J0D01*
G01*
X17148055Y-5529900D02*
G75*
G02*
X17108055Y-5529900I-20000J0D01*
G01*
X17108055Y-5529900D02*
G75*
G02*
X17148055Y-5529900I20000J0D01*
G01*
X17204305Y-4484275D02*
G75*
G02*
X17164305Y-4484275I-20000J0D01*
G01*
X17164305Y-4484275D02*
G75*
G02*
X17204305Y-4484275I20000J0D01*
G01*
X17216250Y-14190000D02*
G75*
G02*
X17176250Y-14190000I-20000J0D01*
G01*
X17176250Y-14190000D02*
G75*
G02*
X17216250Y-14190000I20000J0D01*
G01*
X17243700Y-12940000D02*
G75*
G02*
X17203700Y-12940000I-20000J0D01*
G01*
X17203700Y-12940000D02*
G75*
G02*
X17243700Y-12940000I20000J0D01*
G01*
X17256200Y-11670000D02*
G75*
G02*
X17216200Y-11670000I-20000J0D01*
G01*
X17216200Y-11670000D02*
G75*
G02*
X17256200Y-11670000I20000J0D01*
G01*
X17256250Y-15460000D02*
G75*
G02*
X17216250Y-15460000I-20000J0D01*
G01*
X17216250Y-15460000D02*
G75*
G02*
X17256250Y-15460000I20000J0D01*
G01*
X17646250Y-15610000D02*
G75*
G02*
X17606250Y-15610000I-20000J0D01*
G01*
X17606250Y-15610000D02*
G75*
G02*
X17646250Y-15610000I20000J0D01*
G01*
X17692450Y-13080000D02*
G75*
G02*
X17652450Y-13080000I-20000J0D01*
G01*
X17652450Y-13080000D02*
G75*
G02*
X17692450Y-13080000I20000J0D01*
G01*
X17699950Y-11740000D02*
G75*
G02*
X17659950Y-11740000I-20000J0D01*
G01*
X17659950Y-11740000D02*
G75*
G02*
X17699950Y-11740000I20000J0D01*
G01*
X17726250Y-14250000D02*
G75*
G02*
X17686250Y-14250000I-20000J0D01*
G01*
X17686250Y-14250000D02*
G75*
G02*
X17726250Y-14250000I20000J0D01*
G01*
X17866250Y-15980000D02*
G75*
G02*
X17826250Y-15980000I-20000J0D01*
G01*
X17826250Y-15980000D02*
G75*
G02*
X17866250Y-15980000I20000J0D01*
G01*
X17889950Y-13430000D02*
G75*
G02*
X17849950Y-13430000I-20000J0D01*
G01*
X17849950Y-13430000D02*
G75*
G02*
X17889950Y-13430000I20000J0D01*
G01*
X17899950Y-12130000D02*
G75*
G02*
X17859950Y-12130000I-20000J0D01*
G01*
X17859950Y-12130000D02*
G75*
G02*
X17899950Y-12130000I20000J0D01*
G01*
X17936250Y-14630000D02*
G75*
G02*
X17896250Y-14630000I-20000J0D01*
G01*
X17896250Y-14630000D02*
G75*
G02*
X17936250Y-14630000I20000J0D01*
G01*
X18196250Y-15510000D02*
G75*
G02*
X18156250Y-15510000I-20000J0D01*
G01*
X18156250Y-15510000D02*
G75*
G02*
X18196250Y-15510000I20000J0D01*
G01*
X18222450Y-12973750D02*
G75*
G02*
X18182450Y-12973750I-20000J0D01*
G01*
X18182450Y-12973750D02*
G75*
G02*
X18222450Y-12973750I20000J0D01*
G01*
X18239950Y-11650000D02*
G75*
G02*
X18199950Y-11650000I-20000J0D01*
G01*
X18199950Y-11650000D02*
G75*
G02*
X18239950Y-11650000I20000J0D01*
G01*
X18266250Y-14170000D02*
G75*
G02*
X18226250Y-14170000I-20000J0D01*
G01*
X18226250Y-14170000D02*
G75*
G02*
X18266250Y-14170000I20000J0D01*
G01*
X18413700Y-12040000D02*
G75*
G02*
X18373700Y-12040000I-20000J0D01*
G01*
X18373700Y-12040000D02*
G75*
G02*
X18413700Y-12040000I20000J0D01*
G01*
X18416250Y-15940000D02*
G75*
G02*
X18376250Y-15940000I-20000J0D01*
G01*
X18376250Y-15940000D02*
G75*
G02*
X18416250Y-15940000I20000J0D01*
G01*
X18419950Y-13320000D02*
G75*
G02*
X18379950Y-13320000I-20000J0D01*
G01*
X18379950Y-13320000D02*
G75*
G02*
X18419950Y-13320000I20000J0D01*
G01*
X18456250Y-14610000D02*
G75*
G02*
X18416250Y-14610000I-20000J0D01*
G01*
X18416250Y-14610000D02*
G75*
G02*
X18456250Y-14610000I20000J0D01*
G01*
X18619930Y-4024900D02*
G75*
G02*
X18579930Y-4024900I-20000J0D01*
G01*
X18579930Y-4024900D02*
G75*
G02*
X18619930Y-4024900I20000J0D01*
G01*
X18619930Y-4624900D02*
G75*
G02*
X18579930Y-4624900I-20000J0D01*
G01*
X18579930Y-4624900D02*
G75*
G02*
X18619930Y-4624900I20000J0D01*
G01*
X18620000Y-12260000D02*
G75*
G02*
X18580000Y-12260000I-20000J0D01*
G01*
X18580000Y-12260000D02*
G75*
G02*
X18620000Y-12260000I20000J0D01*
G01*
X18629930Y-3834900D02*
G75*
G02*
X18589930Y-3834900I-20000J0D01*
G01*
X18589930Y-3834900D02*
G75*
G02*
X18629930Y-3834900I20000J0D01*
G01*
X18639930Y-3244900D02*
G75*
G02*
X18599930Y-3244900I-20000J0D01*
G01*
X18599930Y-3244900D02*
G75*
G02*
X18639930Y-3244900I20000J0D01*
G01*
X18641180Y-4832400D02*
G75*
G02*
X18601180Y-4832400I-20000J0D01*
G01*
X18601180Y-4832400D02*
G75*
G02*
X18641180Y-4832400I20000J0D01*
G01*
X18647430Y-7349900D02*
G75*
G02*
X18607430Y-7349900I-20000J0D01*
G01*
X18607430Y-7349900D02*
G75*
G02*
X18647430Y-7349900I20000J0D01*
G01*
X18651180Y-5442400D02*
G75*
G02*
X18611180Y-5442400I-20000J0D01*
G01*
X18611180Y-5442400D02*
G75*
G02*
X18651180Y-5442400I20000J0D01*
G01*
X18654930Y-6299900D02*
G75*
G02*
X18614930Y-6299900I-20000J0D01*
G01*
X18614930Y-6299900D02*
G75*
G02*
X18654930Y-6299900I20000J0D01*
G01*
X18654930Y-6514900D02*
G75*
G02*
X18614930Y-6514900I-20000J0D01*
G01*
X18614930Y-6514900D02*
G75*
G02*
X18654930Y-6514900I20000J0D01*
G01*
X18657430Y-7979900D02*
G75*
G02*
X18617430Y-7979900I-20000J0D01*
G01*
X18617430Y-7979900D02*
G75*
G02*
X18657430Y-7979900I20000J0D01*
G01*
X18657430Y-8179900D02*
G75*
G02*
X18617430Y-8179900I-20000J0D01*
G01*
X18617430Y-8179900D02*
G75*
G02*
X18657430Y-8179900I20000J0D01*
G01*
X18664930Y-5679900D02*
G75*
G02*
X18624930Y-5679900I-20000J0D01*
G01*
X18624930Y-5679900D02*
G75*
G02*
X18664930Y-5679900I20000J0D01*
G01*
X18664930Y-7134900D02*
G75*
G02*
X18624930Y-7134900I-20000J0D01*
G01*
X18624930Y-7134900D02*
G75*
G02*
X18664930Y-7134900I20000J0D01*
G01*
X18667430Y-8839900D02*
G75*
G02*
X18627430Y-8839900I-20000J0D01*
G01*
X18627430Y-8839900D02*
G75*
G02*
X18667430Y-8839900I20000J0D01*
G01*
X18677430Y-9059900D02*
G75*
G02*
X18637430Y-9059900I-20000J0D01*
G01*
X18637430Y-9059900D02*
G75*
G02*
X18677430Y-9059900I20000J0D01*
G01*
X18687430Y-9719900D02*
G75*
G02*
X18647430Y-9719900I-20000J0D01*
G01*
X18647430Y-9719900D02*
G75*
G02*
X18687430Y-9719900I20000J0D01*
G01*
X19000000Y-12310000D02*
G75*
G02*
X18960000Y-12310000I-20000J0D01*
G01*
X18960000Y-12310000D02*
G75*
G02*
X19000000Y-12310000I20000J0D01*
G01*
X19136250Y-15550000D02*
G75*
G02*
X19096250Y-15550000I-20000J0D01*
G01*
X19096250Y-15550000D02*
G75*
G02*
X19136250Y-15550000I20000J0D01*
G01*
X19136250Y-15650000D02*
G75*
G02*
X19096250Y-15650000I-20000J0D01*
G01*
X19096250Y-15650000D02*
G75*
G02*
X19136250Y-15650000I20000J0D01*
G01*
X19152450Y-12970000D02*
G75*
G02*
X19112450Y-12970000I-20000J0D01*
G01*
X19112450Y-12970000D02*
G75*
G02*
X19152450Y-12970000I20000J0D01*
G01*
X19152450Y-13070000D02*
G75*
G02*
X19112450Y-13070000I-20000J0D01*
G01*
X19112450Y-13070000D02*
G75*
G02*
X19152450Y-13070000I20000J0D01*
G01*
X19152500Y-14360000D02*
G75*
G02*
X19112500Y-14360000I-20000J0D01*
G01*
X19112500Y-14360000D02*
G75*
G02*
X19152500Y-14360000I20000J0D01*
G01*
X19158750Y-14245000D02*
G75*
G02*
X19118750Y-14245000I-20000J0D01*
G01*
X19118750Y-14245000D02*
G75*
G02*
X19158750Y-14245000I20000J0D01*
G01*
X19179850Y-11780000D02*
G75*
G02*
X19139850Y-11780000I-20000J0D01*
G01*
X19139850Y-11780000D02*
G75*
G02*
X19179850Y-11780000I20000J0D01*
G01*
X19179950Y-11670000D02*
G75*
G02*
X19139950Y-11670000I-20000J0D01*
G01*
X19139950Y-11670000D02*
G75*
G02*
X19179950Y-11670000I20000J0D01*
G01*
X19274930Y-3527400D02*
G75*
G02*
X19234930Y-3527400I-20000J0D01*
G01*
X19234930Y-3527400D02*
G75*
G02*
X19274930Y-3527400I20000J0D01*
G01*
X19284930Y-7619900D02*
G75*
G02*
X19244930Y-7619900I-20000J0D01*
G01*
X19244930Y-7619900D02*
G75*
G02*
X19284930Y-7619900I20000J0D01*
G01*
X19294930Y-4289900D02*
G75*
G02*
X19254930Y-4289900I-20000J0D01*
G01*
X19254930Y-4289900D02*
G75*
G02*
X19294930Y-4289900I20000J0D01*
G01*
X19294930Y-5109900D02*
G75*
G02*
X19254930Y-5109900I-20000J0D01*
G01*
X19254930Y-5109900D02*
G75*
G02*
X19294930Y-5109900I20000J0D01*
G01*
X19304930Y-8469900D02*
G75*
G02*
X19264930Y-8469900I-20000J0D01*
G01*
X19264930Y-8469900D02*
G75*
G02*
X19304930Y-8469900I20000J0D01*
G01*
X19314930Y-5979900D02*
G75*
G02*
X19274930Y-5979900I-20000J0D01*
G01*
X19274930Y-5979900D02*
G75*
G02*
X19314930Y-5979900I20000J0D01*
G01*
X19324930Y-6769900D02*
G75*
G02*
X19284930Y-6769900I-20000J0D01*
G01*
X19284930Y-6769900D02*
G75*
G02*
X19324930Y-6769900I20000J0D01*
G01*
X19324930Y-9329900D02*
G75*
G02*
X19284930Y-9329900I-20000J0D01*
G01*
X19284930Y-9329900D02*
G75*
G02*
X19324930Y-9329900I20000J0D01*
G01*
X19676150Y-15460000D02*
G75*
G02*
X19636150Y-15460000I-20000J0D01*
G01*
X19636150Y-15460000D02*
G75*
G02*
X19676150Y-15460000I20000J0D01*
G01*
X19682450Y-12870000D02*
G75*
G02*
X19642450Y-12870000I-20000J0D01*
G01*
X19642450Y-12870000D02*
G75*
G02*
X19682450Y-12870000I20000J0D01*
G01*
X19686250Y-14150000D02*
G75*
G02*
X19646250Y-14150000I-20000J0D01*
G01*
X19646250Y-14150000D02*
G75*
G02*
X19686250Y-14150000I20000J0D01*
G01*
X19689950Y-11570000D02*
G75*
G02*
X19649950Y-11570000I-20000J0D01*
G01*
X19649950Y-11570000D02*
G75*
G02*
X19689950Y-11570000I20000J0D01*
G01*
X19756250Y-15640000D02*
G75*
G02*
X19716250Y-15640000I-20000J0D01*
G01*
X19716250Y-15640000D02*
G75*
G02*
X19756250Y-15640000I20000J0D01*
G01*
X19762500Y-14275000D02*
G75*
G02*
X19722500Y-14275000I-20000J0D01*
G01*
X19722500Y-14275000D02*
G75*
G02*
X19762500Y-14275000I20000J0D01*
G01*
X19859950Y-11680000D02*
G75*
G02*
X19819950Y-11680000I-20000J0D01*
G01*
X19819950Y-11680000D02*
G75*
G02*
X19859950Y-11680000I20000J0D01*
G01*
X19879950Y-13000000D02*
G75*
G02*
X19839950Y-13000000I-20000J0D01*
G01*
X19839950Y-13000000D02*
G75*
G02*
X19879950Y-13000000I20000J0D01*
G01*
X20301180Y-6482400D02*
G75*
G02*
X20261180Y-6482400I-20000J0D01*
G01*
X20261180Y-6482400D02*
G75*
G02*
X20301180Y-6482400I20000J0D01*
G01*
X20302500Y-14175000D02*
G75*
G02*
X20262500Y-14175000I-20000J0D01*
G01*
X20262500Y-14175000D02*
G75*
G02*
X20302500Y-14175000I20000J0D01*
G01*
X20326250Y-15550000D02*
G75*
G02*
X20286250Y-15550000I-20000J0D01*
G01*
X20286250Y-15550000D02*
G75*
G02*
X20326250Y-15550000I20000J0D01*
G01*
X20389950Y-11580000D02*
G75*
G02*
X20349950Y-11580000I-20000J0D01*
G01*
X20349950Y-11580000D02*
G75*
G02*
X20389950Y-11580000I20000J0D01*
G01*
X20419950Y-12900000D02*
G75*
G02*
X20379950Y-12900000I-20000J0D01*
G01*
X20379950Y-12900000D02*
G75*
G02*
X20419950Y-12900000I20000J0D01*
G01*
X20851180Y-6392400D02*
G75*
G02*
X20811180Y-6392400I-20000J0D01*
G01*
X20811180Y-6392400D02*
G75*
G02*
X20851180Y-6392400I20000J0D01*
G01*
X20861180Y-6272400D02*
G75*
G02*
X20821180Y-6272400I-20000J0D01*
G01*
X20821180Y-6272400D02*
G75*
G02*
X20861180Y-6272400I20000J0D01*
G01*
X4800000Y-8060000D02*
X4800000Y-8160000D01*
X4750000Y-8110000D02*
X4850000Y-8110000D01*
X4800000Y-9330000D02*
X4800000Y-9430000D01*
X4750000Y-9380000D02*
X4850000Y-9380000D01*
X4810000Y-8710000D02*
X4810000Y-8810000D01*
X4760000Y-8760000D02*
X4860000Y-8760000D01*
X4850000Y-7440000D02*
X4850000Y-7540000D01*
X4800000Y-7490000D02*
X4900000Y-7490000D01*
X4903650Y-4191682D02*
X4903650Y-4291682D01*
X4853650Y-4241682D02*
X4953650Y-4241682D01*
X4910000Y-2390000D02*
X4910000Y-2490000D01*
X4860000Y-2440000D02*
X4960000Y-2440000D01*
X4920000Y-2930000D02*
X4920000Y-3030000D01*
X4870000Y-2980000D02*
X4970000Y-2980000D01*
X4943650Y-6511682D02*
X4943650Y-6611682D01*
X4893650Y-6561682D02*
X4993650Y-6561682D01*
X4949900Y-5276682D02*
X4949900Y-5376682D01*
X4899900Y-5326682D02*
X4999900Y-5326682D01*
X20540000Y-7360000D02*
X20540000Y-7460000D01*
X20490000Y-7410000D02*
X20590000Y-7410000D01*
D13*
X4569585Y-1629585D02*
X4569585Y-1403308D01*
X4343308Y-1403308D01*
X4343308Y-1629585D01*
X4569585Y-1629585D01*
X4569585Y-17546692D02*
X4569585Y-17320415D01*
X4343308Y-17320415D01*
X4343308Y-17546692D01*
X4569585Y-17546692D01*
X21306692Y-1629585D02*
X21306692Y-1403308D01*
X21080415Y-1403308D01*
X21080415Y-1629585D01*
X21306692Y-1629585D01*
X21306692Y-17546692D02*
X21306692Y-17320415D01*
X21080415Y-17320415D01*
X21080415Y-17546692D01*
X21306692Y-17546692D01*
D11*
X4168277Y-18293984D02*
X4168277Y-18093984D01*
X4168277Y-18093984D02*
X4215896Y-18093984D01*
X4215896Y-18093984D02*
X4244467Y-18103508D01*
X4244467Y-18103508D02*
X4263515Y-18122555D01*
X4263515Y-18122555D02*
X4273039Y-18141603D01*
X4273039Y-18141603D02*
X4282563Y-18179698D01*
X4282563Y-18179698D02*
X4282563Y-18208270D01*
X4282563Y-18208270D02*
X4273039Y-18246365D01*
X4273039Y-18246365D02*
X4263515Y-18265412D01*
X4263515Y-18265412D02*
X4244467Y-18284460D01*
X4244467Y-18284460D02*
X4215896Y-18293984D01*
X4215896Y-18293984D02*
X4168277Y-18293984D01*
X4368277Y-18293984D02*
X4368277Y-18160650D01*
X4368277Y-18198746D02*
X4377801Y-18179698D01*
X4377801Y-18179698D02*
X4387324Y-18170174D01*
X4387324Y-18170174D02*
X4406372Y-18160650D01*
X4406372Y-18160650D02*
X4425420Y-18160650D01*
X4492086Y-18293984D02*
X4492086Y-18160650D01*
X4492086Y-18093984D02*
X4482563Y-18103508D01*
X4482563Y-18103508D02*
X4492086Y-18113031D01*
X4492086Y-18113031D02*
X4501610Y-18103508D01*
X4501610Y-18103508D02*
X4492086Y-18093984D01*
X4492086Y-18093984D02*
X4492086Y-18113031D01*
X4615896Y-18293984D02*
X4596848Y-18284460D01*
X4596848Y-18284460D02*
X4587324Y-18265412D01*
X4587324Y-18265412D02*
X4587324Y-18093984D01*
X4720658Y-18293984D02*
X4701610Y-18284460D01*
X4701610Y-18284460D02*
X4692086Y-18265412D01*
X4692086Y-18265412D02*
X4692086Y-18093984D01*
X4949229Y-18293984D02*
X4949229Y-18093984D01*
X4949229Y-18093984D02*
X5015896Y-18236841D01*
X5015896Y-18236841D02*
X5082563Y-18093984D01*
X5082563Y-18093984D02*
X5082563Y-18293984D01*
X5263515Y-18293984D02*
X5263515Y-18189222D01*
X5263515Y-18189222D02*
X5253991Y-18170174D01*
X5253991Y-18170174D02*
X5234944Y-18160650D01*
X5234944Y-18160650D02*
X5196848Y-18160650D01*
X5196848Y-18160650D02*
X5177801Y-18170174D01*
X5263515Y-18284460D02*
X5244467Y-18293984D01*
X5244467Y-18293984D02*
X5196848Y-18293984D01*
X5196848Y-18293984D02*
X5177801Y-18284460D01*
X5177801Y-18284460D02*
X5168277Y-18265412D01*
X5168277Y-18265412D02*
X5168277Y-18246365D01*
X5168277Y-18246365D02*
X5177801Y-18227317D01*
X5177801Y-18227317D02*
X5196848Y-18217793D01*
X5196848Y-18217793D02*
X5244467Y-18217793D01*
X5244467Y-18217793D02*
X5263515Y-18208270D01*
X5358753Y-18160650D02*
X5358753Y-18360650D01*
X5358753Y-18170174D02*
X5377801Y-18160650D01*
X5377801Y-18160650D02*
X5415896Y-18160650D01*
X5415896Y-18160650D02*
X5434944Y-18170174D01*
X5434944Y-18170174D02*
X5444467Y-18179698D01*
X5444467Y-18179698D02*
X5453991Y-18198746D01*
X5453991Y-18198746D02*
X5453991Y-18255889D01*
X5453991Y-18255889D02*
X5444467Y-18274936D01*
X5444467Y-18274936D02*
X5434944Y-18284460D01*
X5434944Y-18284460D02*
X5415896Y-18293984D01*
X5415896Y-18293984D02*
X5377801Y-18293984D01*
X5377801Y-18293984D02*
X5358753Y-18284460D01*
X5539705Y-18274936D02*
X5549229Y-18284460D01*
X5549229Y-18284460D02*
X5539705Y-18293984D01*
X5539705Y-18293984D02*
X5530182Y-18284460D01*
X5530182Y-18284460D02*
X5539705Y-18274936D01*
X5539705Y-18274936D02*
X5539705Y-18293984D01*
X5539705Y-18170174D02*
X5549229Y-18179698D01*
X5549229Y-18179698D02*
X5539705Y-18189222D01*
X5539705Y-18189222D02*
X5530182Y-18179698D01*
X5530182Y-18179698D02*
X5539705Y-18170174D01*
X5539705Y-18170174D02*
X5539705Y-18189222D01*
D12*
X3877500Y-18607500D02*
X3907500Y-18637500D01*
X3907500Y-18607500D02*
X3877500Y-18637500D01*
D11*
X4206372Y-18513984D02*
X4225420Y-18513984D01*
X4225420Y-18513984D02*
X4244467Y-18523508D01*
X4244467Y-18523508D02*
X4253991Y-18533031D01*
X4253991Y-18533031D02*
X4263515Y-18552079D01*
X4263515Y-18552079D02*
X4273039Y-18590174D01*
X4273039Y-18590174D02*
X4273039Y-18637793D01*
X4273039Y-18637793D02*
X4263515Y-18675889D01*
X4263515Y-18675889D02*
X4253991Y-18694936D01*
X4253991Y-18694936D02*
X4244467Y-18704460D01*
X4244467Y-18704460D02*
X4225420Y-18713984D01*
X4225420Y-18713984D02*
X4206372Y-18713984D01*
X4206372Y-18713984D02*
X4187324Y-18704460D01*
X4187324Y-18704460D02*
X4177801Y-18694936D01*
X4177801Y-18694936D02*
X4168277Y-18675889D01*
X4168277Y-18675889D02*
X4158753Y-18637793D01*
X4158753Y-18637793D02*
X4158753Y-18590174D01*
X4158753Y-18590174D02*
X4168277Y-18552079D01*
X4168277Y-18552079D02*
X4177801Y-18533031D01*
X4177801Y-18533031D02*
X4187324Y-18523508D01*
X4187324Y-18523508D02*
X4206372Y-18513984D01*
X4358753Y-18694936D02*
X4368277Y-18704460D01*
X4368277Y-18704460D02*
X4358753Y-18713984D01*
X4358753Y-18713984D02*
X4349229Y-18704460D01*
X4349229Y-18704460D02*
X4358753Y-18694936D01*
X4358753Y-18694936D02*
X4358753Y-18713984D01*
X4434944Y-18513984D02*
X4558753Y-18513984D01*
X4558753Y-18513984D02*
X4492086Y-18590174D01*
X4492086Y-18590174D02*
X4520658Y-18590174D01*
X4520658Y-18590174D02*
X4539705Y-18599698D01*
X4539705Y-18599698D02*
X4549229Y-18609222D01*
X4549229Y-18609222D02*
X4558753Y-18628270D01*
X4558753Y-18628270D02*
X4558753Y-18675889D01*
X4558753Y-18675889D02*
X4549229Y-18694936D01*
X4549229Y-18694936D02*
X4539705Y-18704460D01*
X4539705Y-18704460D02*
X4520658Y-18713984D01*
X4520658Y-18713984D02*
X4463515Y-18713984D01*
X4463515Y-18713984D02*
X4444467Y-18704460D01*
X4444467Y-18704460D02*
X4434944Y-18694936D01*
X4682563Y-18513984D02*
X4701610Y-18513984D01*
X4701610Y-18513984D02*
X4720658Y-18523508D01*
X4720658Y-18523508D02*
X4730182Y-18533031D01*
X4730182Y-18533031D02*
X4739705Y-18552079D01*
X4739705Y-18552079D02*
X4749229Y-18590174D01*
X4749229Y-18590174D02*
X4749229Y-18637793D01*
X4749229Y-18637793D02*
X4739705Y-18675889D01*
X4739705Y-18675889D02*
X4730182Y-18694936D01*
X4730182Y-18694936D02*
X4720658Y-18704460D01*
X4720658Y-18704460D02*
X4701610Y-18713984D01*
X4701610Y-18713984D02*
X4682563Y-18713984D01*
X4682563Y-18713984D02*
X4663515Y-18704460D01*
X4663515Y-18704460D02*
X4653991Y-18694936D01*
X4653991Y-18694936D02*
X4644467Y-18675889D01*
X4644467Y-18675889D02*
X4634944Y-18637793D01*
X4634944Y-18637793D02*
X4634944Y-18590174D01*
X4634944Y-18590174D02*
X4644467Y-18552079D01*
X4644467Y-18552079D02*
X4653991Y-18533031D01*
X4653991Y-18533031D02*
X4663515Y-18523508D01*
X4663515Y-18523508D02*
X4682563Y-18513984D01*
X4873039Y-18513984D02*
X4892086Y-18513984D01*
X4892086Y-18513984D02*
X4911134Y-18523508D01*
X4911134Y-18523508D02*
X4920658Y-18533031D01*
X4920658Y-18533031D02*
X4930182Y-18552079D01*
X4930182Y-18552079D02*
X4939705Y-18590174D01*
X4939705Y-18590174D02*
X4939705Y-18637793D01*
X4939705Y-18637793D02*
X4930182Y-18675889D01*
X4930182Y-18675889D02*
X4920658Y-18694936D01*
X4920658Y-18694936D02*
X4911134Y-18704460D01*
X4911134Y-18704460D02*
X4892086Y-18713984D01*
X4892086Y-18713984D02*
X4873039Y-18713984D01*
X4873039Y-18713984D02*
X4853991Y-18704460D01*
X4853991Y-18704460D02*
X4844467Y-18694936D01*
X4844467Y-18694936D02*
X4834944Y-18675889D01*
X4834944Y-18675889D02*
X4825420Y-18637793D01*
X4825420Y-18637793D02*
X4825420Y-18590174D01*
X4825420Y-18590174D02*
X4834944Y-18552079D01*
X4834944Y-18552079D02*
X4844467Y-18533031D01*
X4844467Y-18533031D02*
X4853991Y-18523508D01*
X4853991Y-18523508D02*
X4873039Y-18513984D01*
X5025420Y-18713984D02*
X5025420Y-18580650D01*
X5025420Y-18599698D02*
X5034944Y-18590174D01*
X5034944Y-18590174D02*
X5053991Y-18580650D01*
X5053991Y-18580650D02*
X5082563Y-18580650D01*
X5082563Y-18580650D02*
X5101610Y-18590174D01*
X5101610Y-18590174D02*
X5111134Y-18609222D01*
X5111134Y-18609222D02*
X5111134Y-18713984D01*
X5111134Y-18609222D02*
X5120658Y-18590174D01*
X5120658Y-18590174D02*
X5139705Y-18580650D01*
X5139705Y-18580650D02*
X5168277Y-18580650D01*
X5168277Y-18580650D02*
X5187325Y-18590174D01*
X5187325Y-18590174D02*
X5196848Y-18609222D01*
X5196848Y-18609222D02*
X5196848Y-18713984D01*
X5292086Y-18713984D02*
X5292086Y-18580650D01*
X5292086Y-18599698D02*
X5301610Y-18590174D01*
X5301610Y-18590174D02*
X5320658Y-18580650D01*
X5320658Y-18580650D02*
X5349229Y-18580650D01*
X5349229Y-18580650D02*
X5368277Y-18590174D01*
X5368277Y-18590174D02*
X5377801Y-18609222D01*
X5377801Y-18609222D02*
X5377801Y-18713984D01*
X5377801Y-18609222D02*
X5387325Y-18590174D01*
X5387325Y-18590174D02*
X5406372Y-18580650D01*
X5406372Y-18580650D02*
X5434944Y-18580650D01*
X5434944Y-18580650D02*
X5453991Y-18590174D01*
X5453991Y-18590174D02*
X5463515Y-18609222D01*
X5463515Y-18609222D02*
X5463515Y-18713984D01*
X5853991Y-18504460D02*
X5682563Y-18761603D01*
X6111134Y-18513984D02*
X6130182Y-18513984D01*
X6130182Y-18513984D02*
X6149229Y-18523508D01*
X6149229Y-18523508D02*
X6158753Y-18533031D01*
X6158753Y-18533031D02*
X6168277Y-18552079D01*
X6168277Y-18552079D02*
X6177801Y-18590174D01*
X6177801Y-18590174D02*
X6177801Y-18637793D01*
X6177801Y-18637793D02*
X6168277Y-18675889D01*
X6168277Y-18675889D02*
X6158753Y-18694936D01*
X6158753Y-18694936D02*
X6149229Y-18704460D01*
X6149229Y-18704460D02*
X6130182Y-18713984D01*
X6130182Y-18713984D02*
X6111134Y-18713984D01*
X6111134Y-18713984D02*
X6092086Y-18704460D01*
X6092086Y-18704460D02*
X6082563Y-18694936D01*
X6082563Y-18694936D02*
X6073039Y-18675889D01*
X6073039Y-18675889D02*
X6063515Y-18637793D01*
X6063515Y-18637793D02*
X6063515Y-18590174D01*
X6063515Y-18590174D02*
X6073039Y-18552079D01*
X6073039Y-18552079D02*
X6082563Y-18533031D01*
X6082563Y-18533031D02*
X6092086Y-18523508D01*
X6092086Y-18523508D02*
X6111134Y-18513984D01*
X6263515Y-18694936D02*
X6273039Y-18704460D01*
X6273039Y-18704460D02*
X6263515Y-18713984D01*
X6263515Y-18713984D02*
X6253991Y-18704460D01*
X6253991Y-18704460D02*
X6263515Y-18694936D01*
X6263515Y-18694936D02*
X6263515Y-18713984D01*
X6396848Y-18513984D02*
X6415896Y-18513984D01*
X6415896Y-18513984D02*
X6434944Y-18523508D01*
X6434944Y-18523508D02*
X6444467Y-18533031D01*
X6444467Y-18533031D02*
X6453991Y-18552079D01*
X6453991Y-18552079D02*
X6463515Y-18590174D01*
X6463515Y-18590174D02*
X6463515Y-18637793D01*
X6463515Y-18637793D02*
X6453991Y-18675889D01*
X6453991Y-18675889D02*
X6444467Y-18694936D01*
X6444467Y-18694936D02*
X6434944Y-18704460D01*
X6434944Y-18704460D02*
X6415896Y-18713984D01*
X6415896Y-18713984D02*
X6396848Y-18713984D01*
X6396848Y-18713984D02*
X6377801Y-18704460D01*
X6377801Y-18704460D02*
X6368277Y-18694936D01*
X6368277Y-18694936D02*
X6358753Y-18675889D01*
X6358753Y-18675889D02*
X6349229Y-18637793D01*
X6349229Y-18637793D02*
X6349229Y-18590174D01*
X6349229Y-18590174D02*
X6358753Y-18552079D01*
X6358753Y-18552079D02*
X6368277Y-18533031D01*
X6368277Y-18533031D02*
X6377801Y-18523508D01*
X6377801Y-18523508D02*
X6396848Y-18513984D01*
X6653991Y-18713984D02*
X6539706Y-18713984D01*
X6596848Y-18713984D02*
X6596848Y-18513984D01*
X6596848Y-18513984D02*
X6577801Y-18542555D01*
X6577801Y-18542555D02*
X6558753Y-18561603D01*
X6558753Y-18561603D02*
X6539706Y-18571127D01*
X6844467Y-18713984D02*
X6730182Y-18713984D01*
X6787325Y-18713984D02*
X6787325Y-18513984D01*
X6787325Y-18513984D02*
X6768277Y-18542555D01*
X6768277Y-18542555D02*
X6749229Y-18561603D01*
X6749229Y-18561603D02*
X6730182Y-18571127D01*
X6958753Y-18599698D02*
X6939706Y-18590174D01*
X6939706Y-18590174D02*
X6930182Y-18580650D01*
X6930182Y-18580650D02*
X6920658Y-18561603D01*
X6920658Y-18561603D02*
X6920658Y-18552079D01*
X6920658Y-18552079D02*
X6930182Y-18533031D01*
X6930182Y-18533031D02*
X6939706Y-18523508D01*
X6939706Y-18523508D02*
X6958753Y-18513984D01*
X6958753Y-18513984D02*
X6996848Y-18513984D01*
X6996848Y-18513984D02*
X7015896Y-18523508D01*
X7015896Y-18523508D02*
X7025420Y-18533031D01*
X7025420Y-18533031D02*
X7034944Y-18552079D01*
X7034944Y-18552079D02*
X7034944Y-18561603D01*
X7034944Y-18561603D02*
X7025420Y-18580650D01*
X7025420Y-18580650D02*
X7015896Y-18590174D01*
X7015896Y-18590174D02*
X6996848Y-18599698D01*
X6996848Y-18599698D02*
X6958753Y-18599698D01*
X6958753Y-18599698D02*
X6939706Y-18609222D01*
X6939706Y-18609222D02*
X6930182Y-18618746D01*
X6930182Y-18618746D02*
X6920658Y-18637793D01*
X6920658Y-18637793D02*
X6920658Y-18675889D01*
X6920658Y-18675889D02*
X6930182Y-18694936D01*
X6930182Y-18694936D02*
X6939706Y-18704460D01*
X6939706Y-18704460D02*
X6958753Y-18713984D01*
X6958753Y-18713984D02*
X6996848Y-18713984D01*
X6996848Y-18713984D02*
X7015896Y-18704460D01*
X7015896Y-18704460D02*
X7025420Y-18694936D01*
X7025420Y-18694936D02*
X7034944Y-18675889D01*
X7034944Y-18675889D02*
X7034944Y-18637793D01*
X7034944Y-18637793D02*
X7025420Y-18618746D01*
X7025420Y-18618746D02*
X7015896Y-18609222D01*
X7015896Y-18609222D02*
X6996848Y-18599698D01*
X7111134Y-18513984D02*
X7111134Y-18552079D01*
X7187325Y-18513984D02*
X7187325Y-18552079D01*
X7482563Y-18790174D02*
X7473039Y-18780650D01*
X7473039Y-18780650D02*
X7453991Y-18752079D01*
X7453991Y-18752079D02*
X7444468Y-18733031D01*
X7444468Y-18733031D02*
X7434944Y-18704460D01*
X7434944Y-18704460D02*
X7425420Y-18656841D01*
X7425420Y-18656841D02*
X7425420Y-18618746D01*
X7425420Y-18618746D02*
X7434944Y-18571127D01*
X7434944Y-18571127D02*
X7444468Y-18542555D01*
X7444468Y-18542555D02*
X7453991Y-18523508D01*
X7453991Y-18523508D02*
X7473039Y-18494936D01*
X7473039Y-18494936D02*
X7482563Y-18485412D01*
X7644468Y-18513984D02*
X7606372Y-18513984D01*
X7606372Y-18513984D02*
X7587325Y-18523508D01*
X7587325Y-18523508D02*
X7577801Y-18533031D01*
X7577801Y-18533031D02*
X7558753Y-18561603D01*
X7558753Y-18561603D02*
X7549229Y-18599698D01*
X7549229Y-18599698D02*
X7549229Y-18675889D01*
X7549229Y-18675889D02*
X7558753Y-18694936D01*
X7558753Y-18694936D02*
X7568277Y-18704460D01*
X7568277Y-18704460D02*
X7587325Y-18713984D01*
X7587325Y-18713984D02*
X7625420Y-18713984D01*
X7625420Y-18713984D02*
X7644468Y-18704460D01*
X7644468Y-18704460D02*
X7653991Y-18694936D01*
X7653991Y-18694936D02*
X7663515Y-18675889D01*
X7663515Y-18675889D02*
X7663515Y-18628270D01*
X7663515Y-18628270D02*
X7653991Y-18609222D01*
X7653991Y-18609222D02*
X7644468Y-18599698D01*
X7644468Y-18599698D02*
X7625420Y-18590174D01*
X7625420Y-18590174D02*
X7587325Y-18590174D01*
X7587325Y-18590174D02*
X7568277Y-18599698D01*
X7568277Y-18599698D02*
X7558753Y-18609222D01*
X7558753Y-18609222D02*
X7549229Y-18628270D01*
X7787325Y-18513984D02*
X7806372Y-18513984D01*
X7806372Y-18513984D02*
X7825420Y-18523508D01*
X7825420Y-18523508D02*
X7834944Y-18533031D01*
X7834944Y-18533031D02*
X7844468Y-18552079D01*
X7844468Y-18552079D02*
X7853991Y-18590174D01*
X7853991Y-18590174D02*
X7853991Y-18637793D01*
X7853991Y-18637793D02*
X7844468Y-18675889D01*
X7844468Y-18675889D02*
X7834944Y-18694936D01*
X7834944Y-18694936D02*
X7825420Y-18704460D01*
X7825420Y-18704460D02*
X7806372Y-18713984D01*
X7806372Y-18713984D02*
X7787325Y-18713984D01*
X7787325Y-18713984D02*
X7768277Y-18704460D01*
X7768277Y-18704460D02*
X7758753Y-18694936D01*
X7758753Y-18694936D02*
X7749229Y-18675889D01*
X7749229Y-18675889D02*
X7739706Y-18637793D01*
X7739706Y-18637793D02*
X7739706Y-18590174D01*
X7739706Y-18590174D02*
X7749229Y-18552079D01*
X7749229Y-18552079D02*
X7758753Y-18533031D01*
X7758753Y-18533031D02*
X7768277Y-18523508D01*
X7768277Y-18523508D02*
X7787325Y-18513984D01*
X7930182Y-18533031D02*
X7939706Y-18523508D01*
X7939706Y-18523508D02*
X7958753Y-18513984D01*
X7958753Y-18513984D02*
X8006372Y-18513984D01*
X8006372Y-18513984D02*
X8025420Y-18523508D01*
X8025420Y-18523508D02*
X8034944Y-18533031D01*
X8034944Y-18533031D02*
X8044468Y-18552079D01*
X8044468Y-18552079D02*
X8044468Y-18571127D01*
X8044468Y-18571127D02*
X8034944Y-18599698D01*
X8034944Y-18599698D02*
X7920658Y-18713984D01*
X7920658Y-18713984D02*
X8044468Y-18713984D01*
X8282563Y-18713984D02*
X8282563Y-18513984D01*
X8368277Y-18713984D02*
X8368277Y-18609222D01*
X8368277Y-18609222D02*
X8358753Y-18590174D01*
X8358753Y-18590174D02*
X8339706Y-18580650D01*
X8339706Y-18580650D02*
X8311134Y-18580650D01*
X8311134Y-18580650D02*
X8292087Y-18590174D01*
X8292087Y-18590174D02*
X8282563Y-18599698D01*
X8492087Y-18713984D02*
X8473039Y-18704460D01*
X8473039Y-18704460D02*
X8463515Y-18694936D01*
X8463515Y-18694936D02*
X8453992Y-18675889D01*
X8453992Y-18675889D02*
X8453992Y-18618746D01*
X8453992Y-18618746D02*
X8463515Y-18599698D01*
X8463515Y-18599698D02*
X8473039Y-18590174D01*
X8473039Y-18590174D02*
X8492087Y-18580650D01*
X8492087Y-18580650D02*
X8520658Y-18580650D01*
X8520658Y-18580650D02*
X8539706Y-18590174D01*
X8539706Y-18590174D02*
X8549230Y-18599698D01*
X8549230Y-18599698D02*
X8558753Y-18618746D01*
X8558753Y-18618746D02*
X8558753Y-18675889D01*
X8558753Y-18675889D02*
X8549230Y-18694936D01*
X8549230Y-18694936D02*
X8539706Y-18704460D01*
X8539706Y-18704460D02*
X8520658Y-18713984D01*
X8520658Y-18713984D02*
X8492087Y-18713984D01*
X8673039Y-18713984D02*
X8653992Y-18704460D01*
X8653992Y-18704460D02*
X8644468Y-18685412D01*
X8644468Y-18685412D02*
X8644468Y-18513984D01*
X8825420Y-18704460D02*
X8806373Y-18713984D01*
X8806373Y-18713984D02*
X8768277Y-18713984D01*
X8768277Y-18713984D02*
X8749230Y-18704460D01*
X8749230Y-18704460D02*
X8739706Y-18685412D01*
X8739706Y-18685412D02*
X8739706Y-18609222D01*
X8739706Y-18609222D02*
X8749230Y-18590174D01*
X8749230Y-18590174D02*
X8768277Y-18580650D01*
X8768277Y-18580650D02*
X8806373Y-18580650D01*
X8806373Y-18580650D02*
X8825420Y-18590174D01*
X8825420Y-18590174D02*
X8834944Y-18609222D01*
X8834944Y-18609222D02*
X8834944Y-18628270D01*
X8834944Y-18628270D02*
X8739706Y-18647317D01*
X8911134Y-18704460D02*
X8930182Y-18713984D01*
X8930182Y-18713984D02*
X8968277Y-18713984D01*
X8968277Y-18713984D02*
X8987325Y-18704460D01*
X8987325Y-18704460D02*
X8996849Y-18685412D01*
X8996849Y-18685412D02*
X8996849Y-18675889D01*
X8996849Y-18675889D02*
X8987325Y-18656841D01*
X8987325Y-18656841D02*
X8968277Y-18647317D01*
X8968277Y-18647317D02*
X8939706Y-18647317D01*
X8939706Y-18647317D02*
X8920658Y-18637793D01*
X8920658Y-18637793D02*
X8911134Y-18618746D01*
X8911134Y-18618746D02*
X8911134Y-18609222D01*
X8911134Y-18609222D02*
X8920658Y-18590174D01*
X8920658Y-18590174D02*
X8939706Y-18580650D01*
X8939706Y-18580650D02*
X8968277Y-18580650D01*
X8968277Y-18580650D02*
X8987325Y-18590174D01*
X9063515Y-18790174D02*
X9073039Y-18780650D01*
X9073039Y-18780650D02*
X9092087Y-18752079D01*
X9092087Y-18752079D02*
X9101611Y-18733031D01*
X9101611Y-18733031D02*
X9111134Y-18704460D01*
X9111134Y-18704460D02*
X9120658Y-18656841D01*
X9120658Y-18656841D02*
X9120658Y-18618746D01*
X9120658Y-18618746D02*
X9111134Y-18571127D01*
X9111134Y-18571127D02*
X9101611Y-18542555D01*
X9101611Y-18542555D02*
X9092087Y-18523508D01*
X9092087Y-18523508D02*
X9073039Y-18494936D01*
X9073039Y-18494936D02*
X9063515Y-18485412D01*
D12*
X3907500Y-18886500D02*
G75*
G02*
X3867500Y-18886500I-20000J0D01*
G01*
X3867500Y-18886500D02*
G75*
G02*
X3907500Y-18886500I20000J0D01*
G01*
D11*
X4206372Y-18777984D02*
X4225420Y-18777984D01*
X4225420Y-18777984D02*
X4244467Y-18787508D01*
X4244467Y-18787508D02*
X4253991Y-18797031D01*
X4253991Y-18797031D02*
X4263515Y-18816079D01*
X4263515Y-18816079D02*
X4273039Y-18854174D01*
X4273039Y-18854174D02*
X4273039Y-18901793D01*
X4273039Y-18901793D02*
X4263515Y-18939889D01*
X4263515Y-18939889D02*
X4253991Y-18958936D01*
X4253991Y-18958936D02*
X4244467Y-18968460D01*
X4244467Y-18968460D02*
X4225420Y-18977984D01*
X4225420Y-18977984D02*
X4206372Y-18977984D01*
X4206372Y-18977984D02*
X4187324Y-18968460D01*
X4187324Y-18968460D02*
X4177801Y-18958936D01*
X4177801Y-18958936D02*
X4168277Y-18939889D01*
X4168277Y-18939889D02*
X4158753Y-18901793D01*
X4158753Y-18901793D02*
X4158753Y-18854174D01*
X4158753Y-18854174D02*
X4168277Y-18816079D01*
X4168277Y-18816079D02*
X4177801Y-18797031D01*
X4177801Y-18797031D02*
X4187324Y-18787508D01*
X4187324Y-18787508D02*
X4206372Y-18777984D01*
X4358753Y-18958936D02*
X4368277Y-18968460D01*
X4368277Y-18968460D02*
X4358753Y-18977984D01*
X4358753Y-18977984D02*
X4349229Y-18968460D01*
X4349229Y-18968460D02*
X4358753Y-18958936D01*
X4358753Y-18958936D02*
X4358753Y-18977984D01*
X4539705Y-18844650D02*
X4539705Y-18977984D01*
X4492086Y-18768460D02*
X4444467Y-18911317D01*
X4444467Y-18911317D02*
X4568277Y-18911317D01*
X4682563Y-18777984D02*
X4701610Y-18777984D01*
X4701610Y-18777984D02*
X4720658Y-18787508D01*
X4720658Y-18787508D02*
X4730182Y-18797031D01*
X4730182Y-18797031D02*
X4739705Y-18816079D01*
X4739705Y-18816079D02*
X4749229Y-18854174D01*
X4749229Y-18854174D02*
X4749229Y-18901793D01*
X4749229Y-18901793D02*
X4739705Y-18939889D01*
X4739705Y-18939889D02*
X4730182Y-18958936D01*
X4730182Y-18958936D02*
X4720658Y-18968460D01*
X4720658Y-18968460D02*
X4701610Y-18977984D01*
X4701610Y-18977984D02*
X4682563Y-18977984D01*
X4682563Y-18977984D02*
X4663515Y-18968460D01*
X4663515Y-18968460D02*
X4653991Y-18958936D01*
X4653991Y-18958936D02*
X4644467Y-18939889D01*
X4644467Y-18939889D02*
X4634944Y-18901793D01*
X4634944Y-18901793D02*
X4634944Y-18854174D01*
X4634944Y-18854174D02*
X4644467Y-18816079D01*
X4644467Y-18816079D02*
X4653991Y-18797031D01*
X4653991Y-18797031D02*
X4663515Y-18787508D01*
X4663515Y-18787508D02*
X4682563Y-18777984D01*
X4873039Y-18777984D02*
X4892086Y-18777984D01*
X4892086Y-18777984D02*
X4911134Y-18787508D01*
X4911134Y-18787508D02*
X4920658Y-18797031D01*
X4920658Y-18797031D02*
X4930182Y-18816079D01*
X4930182Y-18816079D02*
X4939705Y-18854174D01*
X4939705Y-18854174D02*
X4939705Y-18901793D01*
X4939705Y-18901793D02*
X4930182Y-18939889D01*
X4930182Y-18939889D02*
X4920658Y-18958936D01*
X4920658Y-18958936D02*
X4911134Y-18968460D01*
X4911134Y-18968460D02*
X4892086Y-18977984D01*
X4892086Y-18977984D02*
X4873039Y-18977984D01*
X4873039Y-18977984D02*
X4853991Y-18968460D01*
X4853991Y-18968460D02*
X4844467Y-18958936D01*
X4844467Y-18958936D02*
X4834944Y-18939889D01*
X4834944Y-18939889D02*
X4825420Y-18901793D01*
X4825420Y-18901793D02*
X4825420Y-18854174D01*
X4825420Y-18854174D02*
X4834944Y-18816079D01*
X4834944Y-18816079D02*
X4844467Y-18797031D01*
X4844467Y-18797031D02*
X4853991Y-18787508D01*
X4853991Y-18787508D02*
X4873039Y-18777984D01*
X5025420Y-18977984D02*
X5025420Y-18844650D01*
X5025420Y-18863698D02*
X5034944Y-18854174D01*
X5034944Y-18854174D02*
X5053991Y-18844650D01*
X5053991Y-18844650D02*
X5082563Y-18844650D01*
X5082563Y-18844650D02*
X5101610Y-18854174D01*
X5101610Y-18854174D02*
X5111134Y-18873222D01*
X5111134Y-18873222D02*
X5111134Y-18977984D01*
X5111134Y-18873222D02*
X5120658Y-18854174D01*
X5120658Y-18854174D02*
X5139705Y-18844650D01*
X5139705Y-18844650D02*
X5168277Y-18844650D01*
X5168277Y-18844650D02*
X5187325Y-18854174D01*
X5187325Y-18854174D02*
X5196848Y-18873222D01*
X5196848Y-18873222D02*
X5196848Y-18977984D01*
X5292086Y-18977984D02*
X5292086Y-18844650D01*
X5292086Y-18863698D02*
X5301610Y-18854174D01*
X5301610Y-18854174D02*
X5320658Y-18844650D01*
X5320658Y-18844650D02*
X5349229Y-18844650D01*
X5349229Y-18844650D02*
X5368277Y-18854174D01*
X5368277Y-18854174D02*
X5377801Y-18873222D01*
X5377801Y-18873222D02*
X5377801Y-18977984D01*
X5377801Y-18873222D02*
X5387325Y-18854174D01*
X5387325Y-18854174D02*
X5406372Y-18844650D01*
X5406372Y-18844650D02*
X5434944Y-18844650D01*
X5434944Y-18844650D02*
X5453991Y-18854174D01*
X5453991Y-18854174D02*
X5463515Y-18873222D01*
X5463515Y-18873222D02*
X5463515Y-18977984D01*
X5853991Y-18768460D02*
X5682563Y-19025603D01*
X6111134Y-18777984D02*
X6130182Y-18777984D01*
X6130182Y-18777984D02*
X6149229Y-18787508D01*
X6149229Y-18787508D02*
X6158753Y-18797031D01*
X6158753Y-18797031D02*
X6168277Y-18816079D01*
X6168277Y-18816079D02*
X6177801Y-18854174D01*
X6177801Y-18854174D02*
X6177801Y-18901793D01*
X6177801Y-18901793D02*
X6168277Y-18939889D01*
X6168277Y-18939889D02*
X6158753Y-18958936D01*
X6158753Y-18958936D02*
X6149229Y-18968460D01*
X6149229Y-18968460D02*
X6130182Y-18977984D01*
X6130182Y-18977984D02*
X6111134Y-18977984D01*
X6111134Y-18977984D02*
X6092086Y-18968460D01*
X6092086Y-18968460D02*
X6082563Y-18958936D01*
X6082563Y-18958936D02*
X6073039Y-18939889D01*
X6073039Y-18939889D02*
X6063515Y-18901793D01*
X6063515Y-18901793D02*
X6063515Y-18854174D01*
X6063515Y-18854174D02*
X6073039Y-18816079D01*
X6073039Y-18816079D02*
X6082563Y-18797031D01*
X6082563Y-18797031D02*
X6092086Y-18787508D01*
X6092086Y-18787508D02*
X6111134Y-18777984D01*
X6263515Y-18958936D02*
X6273039Y-18968460D01*
X6273039Y-18968460D02*
X6263515Y-18977984D01*
X6263515Y-18977984D02*
X6253991Y-18968460D01*
X6253991Y-18968460D02*
X6263515Y-18958936D01*
X6263515Y-18958936D02*
X6263515Y-18977984D01*
X6396848Y-18777984D02*
X6415896Y-18777984D01*
X6415896Y-18777984D02*
X6434944Y-18787508D01*
X6434944Y-18787508D02*
X6444467Y-18797031D01*
X6444467Y-18797031D02*
X6453991Y-18816079D01*
X6453991Y-18816079D02*
X6463515Y-18854174D01*
X6463515Y-18854174D02*
X6463515Y-18901793D01*
X6463515Y-18901793D02*
X6453991Y-18939889D01*
X6453991Y-18939889D02*
X6444467Y-18958936D01*
X6444467Y-18958936D02*
X6434944Y-18968460D01*
X6434944Y-18968460D02*
X6415896Y-18977984D01*
X6415896Y-18977984D02*
X6396848Y-18977984D01*
X6396848Y-18977984D02*
X6377801Y-18968460D01*
X6377801Y-18968460D02*
X6368277Y-18958936D01*
X6368277Y-18958936D02*
X6358753Y-18939889D01*
X6358753Y-18939889D02*
X6349229Y-18901793D01*
X6349229Y-18901793D02*
X6349229Y-18854174D01*
X6349229Y-18854174D02*
X6358753Y-18816079D01*
X6358753Y-18816079D02*
X6368277Y-18797031D01*
X6368277Y-18797031D02*
X6377801Y-18787508D01*
X6377801Y-18787508D02*
X6396848Y-18777984D01*
X6653991Y-18977984D02*
X6539706Y-18977984D01*
X6596848Y-18977984D02*
X6596848Y-18777984D01*
X6596848Y-18777984D02*
X6577801Y-18806555D01*
X6577801Y-18806555D02*
X6558753Y-18825603D01*
X6558753Y-18825603D02*
X6539706Y-18835127D01*
X6834944Y-18777984D02*
X6739706Y-18777984D01*
X6739706Y-18777984D02*
X6730182Y-18873222D01*
X6730182Y-18873222D02*
X6739706Y-18863698D01*
X6739706Y-18863698D02*
X6758753Y-18854174D01*
X6758753Y-18854174D02*
X6806372Y-18854174D01*
X6806372Y-18854174D02*
X6825420Y-18863698D01*
X6825420Y-18863698D02*
X6834944Y-18873222D01*
X6834944Y-18873222D02*
X6844467Y-18892270D01*
X6844467Y-18892270D02*
X6844467Y-18939889D01*
X6844467Y-18939889D02*
X6834944Y-18958936D01*
X6834944Y-18958936D02*
X6825420Y-18968460D01*
X6825420Y-18968460D02*
X6806372Y-18977984D01*
X6806372Y-18977984D02*
X6758753Y-18977984D01*
X6758753Y-18977984D02*
X6739706Y-18968460D01*
X6739706Y-18968460D02*
X6730182Y-18958936D01*
X6911134Y-18777984D02*
X7044467Y-18777984D01*
X7044467Y-18777984D02*
X6958753Y-18977984D01*
X7111134Y-18777984D02*
X7111134Y-18816079D01*
X7187325Y-18777984D02*
X7187325Y-18816079D01*
X7482563Y-19054174D02*
X7473039Y-19044650D01*
X7473039Y-19044650D02*
X7453991Y-19016079D01*
X7453991Y-19016079D02*
X7444468Y-18997031D01*
X7444468Y-18997031D02*
X7434944Y-18968460D01*
X7434944Y-18968460D02*
X7425420Y-18920841D01*
X7425420Y-18920841D02*
X7425420Y-18882746D01*
X7425420Y-18882746D02*
X7434944Y-18835127D01*
X7434944Y-18835127D02*
X7444468Y-18806555D01*
X7444468Y-18806555D02*
X7453991Y-18787508D01*
X7453991Y-18787508D02*
X7473039Y-18758936D01*
X7473039Y-18758936D02*
X7482563Y-18749412D01*
X7539706Y-18777984D02*
X7663515Y-18777984D01*
X7663515Y-18777984D02*
X7596848Y-18854174D01*
X7596848Y-18854174D02*
X7625420Y-18854174D01*
X7625420Y-18854174D02*
X7644468Y-18863698D01*
X7644468Y-18863698D02*
X7653991Y-18873222D01*
X7653991Y-18873222D02*
X7663515Y-18892270D01*
X7663515Y-18892270D02*
X7663515Y-18939889D01*
X7663515Y-18939889D02*
X7653991Y-18958936D01*
X7653991Y-18958936D02*
X7644468Y-18968460D01*
X7644468Y-18968460D02*
X7625420Y-18977984D01*
X7625420Y-18977984D02*
X7568277Y-18977984D01*
X7568277Y-18977984D02*
X7549229Y-18968460D01*
X7549229Y-18968460D02*
X7539706Y-18958936D01*
X7730182Y-18777984D02*
X7853991Y-18777984D01*
X7853991Y-18777984D02*
X7787325Y-18854174D01*
X7787325Y-18854174D02*
X7815896Y-18854174D01*
X7815896Y-18854174D02*
X7834944Y-18863698D01*
X7834944Y-18863698D02*
X7844468Y-18873222D01*
X7844468Y-18873222D02*
X7853991Y-18892270D01*
X7853991Y-18892270D02*
X7853991Y-18939889D01*
X7853991Y-18939889D02*
X7844468Y-18958936D01*
X7844468Y-18958936D02*
X7834944Y-18968460D01*
X7834944Y-18968460D02*
X7815896Y-18977984D01*
X7815896Y-18977984D02*
X7758753Y-18977984D01*
X7758753Y-18977984D02*
X7739706Y-18968460D01*
X7739706Y-18968460D02*
X7730182Y-18958936D01*
X8034944Y-18777984D02*
X7939706Y-18777984D01*
X7939706Y-18777984D02*
X7930182Y-18873222D01*
X7930182Y-18873222D02*
X7939706Y-18863698D01*
X7939706Y-18863698D02*
X7958753Y-18854174D01*
X7958753Y-18854174D02*
X8006372Y-18854174D01*
X8006372Y-18854174D02*
X8025420Y-18863698D01*
X8025420Y-18863698D02*
X8034944Y-18873222D01*
X8034944Y-18873222D02*
X8044468Y-18892270D01*
X8044468Y-18892270D02*
X8044468Y-18939889D01*
X8044468Y-18939889D02*
X8034944Y-18958936D01*
X8034944Y-18958936D02*
X8025420Y-18968460D01*
X8025420Y-18968460D02*
X8006372Y-18977984D01*
X8006372Y-18977984D02*
X7958753Y-18977984D01*
X7958753Y-18977984D02*
X7939706Y-18968460D01*
X7939706Y-18968460D02*
X7930182Y-18958936D01*
X8282563Y-18977984D02*
X8282563Y-18777984D01*
X8368277Y-18977984D02*
X8368277Y-18873222D01*
X8368277Y-18873222D02*
X8358753Y-18854174D01*
X8358753Y-18854174D02*
X8339706Y-18844650D01*
X8339706Y-18844650D02*
X8311134Y-18844650D01*
X8311134Y-18844650D02*
X8292087Y-18854174D01*
X8292087Y-18854174D02*
X8282563Y-18863698D01*
X8492087Y-18977984D02*
X8473039Y-18968460D01*
X8473039Y-18968460D02*
X8463515Y-18958936D01*
X8463515Y-18958936D02*
X8453992Y-18939889D01*
X8453992Y-18939889D02*
X8453992Y-18882746D01*
X8453992Y-18882746D02*
X8463515Y-18863698D01*
X8463515Y-18863698D02*
X8473039Y-18854174D01*
X8473039Y-18854174D02*
X8492087Y-18844650D01*
X8492087Y-18844650D02*
X8520658Y-18844650D01*
X8520658Y-18844650D02*
X8539706Y-18854174D01*
X8539706Y-18854174D02*
X8549230Y-18863698D01*
X8549230Y-18863698D02*
X8558753Y-18882746D01*
X8558753Y-18882746D02*
X8558753Y-18939889D01*
X8558753Y-18939889D02*
X8549230Y-18958936D01*
X8549230Y-18958936D02*
X8539706Y-18968460D01*
X8539706Y-18968460D02*
X8520658Y-18977984D01*
X8520658Y-18977984D02*
X8492087Y-18977984D01*
X8673039Y-18977984D02*
X8653992Y-18968460D01*
X8653992Y-18968460D02*
X8644468Y-18949412D01*
X8644468Y-18949412D02*
X8644468Y-18777984D01*
X8825420Y-18968460D02*
X8806373Y-18977984D01*
X8806373Y-18977984D02*
X8768277Y-18977984D01*
X8768277Y-18977984D02*
X8749230Y-18968460D01*
X8749230Y-18968460D02*
X8739706Y-18949412D01*
X8739706Y-18949412D02*
X8739706Y-18873222D01*
X8739706Y-18873222D02*
X8749230Y-18854174D01*
X8749230Y-18854174D02*
X8768277Y-18844650D01*
X8768277Y-18844650D02*
X8806373Y-18844650D01*
X8806373Y-18844650D02*
X8825420Y-18854174D01*
X8825420Y-18854174D02*
X8834944Y-18873222D01*
X8834944Y-18873222D02*
X8834944Y-18892270D01*
X8834944Y-18892270D02*
X8739706Y-18911317D01*
X8911134Y-18968460D02*
X8930182Y-18977984D01*
X8930182Y-18977984D02*
X8968277Y-18977984D01*
X8968277Y-18977984D02*
X8987325Y-18968460D01*
X8987325Y-18968460D02*
X8996849Y-18949412D01*
X8996849Y-18949412D02*
X8996849Y-18939889D01*
X8996849Y-18939889D02*
X8987325Y-18920841D01*
X8987325Y-18920841D02*
X8968277Y-18911317D01*
X8968277Y-18911317D02*
X8939706Y-18911317D01*
X8939706Y-18911317D02*
X8920658Y-18901793D01*
X8920658Y-18901793D02*
X8911134Y-18882746D01*
X8911134Y-18882746D02*
X8911134Y-18873222D01*
X8911134Y-18873222D02*
X8920658Y-18854174D01*
X8920658Y-18854174D02*
X8939706Y-18844650D01*
X8939706Y-18844650D02*
X8968277Y-18844650D01*
X8968277Y-18844650D02*
X8987325Y-18854174D01*
X9063515Y-19054174D02*
X9073039Y-19044650D01*
X9073039Y-19044650D02*
X9092087Y-19016079D01*
X9092087Y-19016079D02*
X9101611Y-18997031D01*
X9101611Y-18997031D02*
X9111134Y-18968460D01*
X9111134Y-18968460D02*
X9120658Y-18920841D01*
X9120658Y-18920841D02*
X9120658Y-18882746D01*
X9120658Y-18882746D02*
X9111134Y-18835127D01*
X9111134Y-18835127D02*
X9101611Y-18806555D01*
X9101611Y-18806555D02*
X9092087Y-18787508D01*
X9092087Y-18787508D02*
X9073039Y-18758936D01*
X9073039Y-18758936D02*
X9063515Y-18749412D01*
D12*
X3857500Y-19100500D02*
X3857500Y-19200500D01*
X3807500Y-19150500D02*
X3907500Y-19150500D01*
D11*
X4273039Y-19241984D02*
X4158753Y-19241984D01*
X4215896Y-19241984D02*
X4215896Y-19041984D01*
X4215896Y-19041984D02*
X4196848Y-19070555D01*
X4196848Y-19070555D02*
X4177801Y-19089603D01*
X4177801Y-19089603D02*
X4158753Y-19099127D01*
X4358753Y-19222936D02*
X4368277Y-19232460D01*
X4368277Y-19232460D02*
X4358753Y-19241984D01*
X4358753Y-19241984D02*
X4349229Y-19232460D01*
X4349229Y-19232460D02*
X4358753Y-19222936D01*
X4358753Y-19222936D02*
X4358753Y-19241984D01*
X4492086Y-19041984D02*
X4511134Y-19041984D01*
X4511134Y-19041984D02*
X4530182Y-19051508D01*
X4530182Y-19051508D02*
X4539705Y-19061031D01*
X4539705Y-19061031D02*
X4549229Y-19080079D01*
X4549229Y-19080079D02*
X4558753Y-19118174D01*
X4558753Y-19118174D02*
X4558753Y-19165793D01*
X4558753Y-19165793D02*
X4549229Y-19203889D01*
X4549229Y-19203889D02*
X4539705Y-19222936D01*
X4539705Y-19222936D02*
X4530182Y-19232460D01*
X4530182Y-19232460D02*
X4511134Y-19241984D01*
X4511134Y-19241984D02*
X4492086Y-19241984D01*
X4492086Y-19241984D02*
X4473039Y-19232460D01*
X4473039Y-19232460D02*
X4463515Y-19222936D01*
X4463515Y-19222936D02*
X4453991Y-19203889D01*
X4453991Y-19203889D02*
X4444467Y-19165793D01*
X4444467Y-19165793D02*
X4444467Y-19118174D01*
X4444467Y-19118174D02*
X4453991Y-19080079D01*
X4453991Y-19080079D02*
X4463515Y-19061031D01*
X4463515Y-19061031D02*
X4473039Y-19051508D01*
X4473039Y-19051508D02*
X4492086Y-19041984D01*
X4682563Y-19041984D02*
X4701610Y-19041984D01*
X4701610Y-19041984D02*
X4720658Y-19051508D01*
X4720658Y-19051508D02*
X4730182Y-19061031D01*
X4730182Y-19061031D02*
X4739705Y-19080079D01*
X4739705Y-19080079D02*
X4749229Y-19118174D01*
X4749229Y-19118174D02*
X4749229Y-19165793D01*
X4749229Y-19165793D02*
X4739705Y-19203889D01*
X4739705Y-19203889D02*
X4730182Y-19222936D01*
X4730182Y-19222936D02*
X4720658Y-19232460D01*
X4720658Y-19232460D02*
X4701610Y-19241984D01*
X4701610Y-19241984D02*
X4682563Y-19241984D01*
X4682563Y-19241984D02*
X4663515Y-19232460D01*
X4663515Y-19232460D02*
X4653991Y-19222936D01*
X4653991Y-19222936D02*
X4644467Y-19203889D01*
X4644467Y-19203889D02*
X4634944Y-19165793D01*
X4634944Y-19165793D02*
X4634944Y-19118174D01*
X4634944Y-19118174D02*
X4644467Y-19080079D01*
X4644467Y-19080079D02*
X4653991Y-19061031D01*
X4653991Y-19061031D02*
X4663515Y-19051508D01*
X4663515Y-19051508D02*
X4682563Y-19041984D01*
X4873039Y-19041984D02*
X4892086Y-19041984D01*
X4892086Y-19041984D02*
X4911134Y-19051508D01*
X4911134Y-19051508D02*
X4920658Y-19061031D01*
X4920658Y-19061031D02*
X4930182Y-19080079D01*
X4930182Y-19080079D02*
X4939705Y-19118174D01*
X4939705Y-19118174D02*
X4939705Y-19165793D01*
X4939705Y-19165793D02*
X4930182Y-19203889D01*
X4930182Y-19203889D02*
X4920658Y-19222936D01*
X4920658Y-19222936D02*
X4911134Y-19232460D01*
X4911134Y-19232460D02*
X4892086Y-19241984D01*
X4892086Y-19241984D02*
X4873039Y-19241984D01*
X4873039Y-19241984D02*
X4853991Y-19232460D01*
X4853991Y-19232460D02*
X4844467Y-19222936D01*
X4844467Y-19222936D02*
X4834944Y-19203889D01*
X4834944Y-19203889D02*
X4825420Y-19165793D01*
X4825420Y-19165793D02*
X4825420Y-19118174D01*
X4825420Y-19118174D02*
X4834944Y-19080079D01*
X4834944Y-19080079D02*
X4844467Y-19061031D01*
X4844467Y-19061031D02*
X4853991Y-19051508D01*
X4853991Y-19051508D02*
X4873039Y-19041984D01*
X5025420Y-19241984D02*
X5025420Y-19108650D01*
X5025420Y-19127698D02*
X5034944Y-19118174D01*
X5034944Y-19118174D02*
X5053991Y-19108650D01*
X5053991Y-19108650D02*
X5082563Y-19108650D01*
X5082563Y-19108650D02*
X5101610Y-19118174D01*
X5101610Y-19118174D02*
X5111134Y-19137222D01*
X5111134Y-19137222D02*
X5111134Y-19241984D01*
X5111134Y-19137222D02*
X5120658Y-19118174D01*
X5120658Y-19118174D02*
X5139705Y-19108650D01*
X5139705Y-19108650D02*
X5168277Y-19108650D01*
X5168277Y-19108650D02*
X5187325Y-19118174D01*
X5187325Y-19118174D02*
X5196848Y-19137222D01*
X5196848Y-19137222D02*
X5196848Y-19241984D01*
X5292086Y-19241984D02*
X5292086Y-19108650D01*
X5292086Y-19127698D02*
X5301610Y-19118174D01*
X5301610Y-19118174D02*
X5320658Y-19108650D01*
X5320658Y-19108650D02*
X5349229Y-19108650D01*
X5349229Y-19108650D02*
X5368277Y-19118174D01*
X5368277Y-19118174D02*
X5377801Y-19137222D01*
X5377801Y-19137222D02*
X5377801Y-19241984D01*
X5377801Y-19137222D02*
X5387325Y-19118174D01*
X5387325Y-19118174D02*
X5406372Y-19108650D01*
X5406372Y-19108650D02*
X5434944Y-19108650D01*
X5434944Y-19108650D02*
X5453991Y-19118174D01*
X5453991Y-19118174D02*
X5463515Y-19137222D01*
X5463515Y-19137222D02*
X5463515Y-19241984D01*
X5853991Y-19032460D02*
X5682563Y-19289603D01*
X6111134Y-19041984D02*
X6130182Y-19041984D01*
X6130182Y-19041984D02*
X6149229Y-19051508D01*
X6149229Y-19051508D02*
X6158753Y-19061031D01*
X6158753Y-19061031D02*
X6168277Y-19080079D01*
X6168277Y-19080079D02*
X6177801Y-19118174D01*
X6177801Y-19118174D02*
X6177801Y-19165793D01*
X6177801Y-19165793D02*
X6168277Y-19203889D01*
X6168277Y-19203889D02*
X6158753Y-19222936D01*
X6158753Y-19222936D02*
X6149229Y-19232460D01*
X6149229Y-19232460D02*
X6130182Y-19241984D01*
X6130182Y-19241984D02*
X6111134Y-19241984D01*
X6111134Y-19241984D02*
X6092086Y-19232460D01*
X6092086Y-19232460D02*
X6082563Y-19222936D01*
X6082563Y-19222936D02*
X6073039Y-19203889D01*
X6073039Y-19203889D02*
X6063515Y-19165793D01*
X6063515Y-19165793D02*
X6063515Y-19118174D01*
X6063515Y-19118174D02*
X6073039Y-19080079D01*
X6073039Y-19080079D02*
X6082563Y-19061031D01*
X6082563Y-19061031D02*
X6092086Y-19051508D01*
X6092086Y-19051508D02*
X6111134Y-19041984D01*
X6263515Y-19222936D02*
X6273039Y-19232460D01*
X6273039Y-19232460D02*
X6263515Y-19241984D01*
X6263515Y-19241984D02*
X6253991Y-19232460D01*
X6253991Y-19232460D02*
X6263515Y-19222936D01*
X6263515Y-19222936D02*
X6263515Y-19241984D01*
X6396848Y-19041984D02*
X6415896Y-19041984D01*
X6415896Y-19041984D02*
X6434944Y-19051508D01*
X6434944Y-19051508D02*
X6444467Y-19061031D01*
X6444467Y-19061031D02*
X6453991Y-19080079D01*
X6453991Y-19080079D02*
X6463515Y-19118174D01*
X6463515Y-19118174D02*
X6463515Y-19165793D01*
X6463515Y-19165793D02*
X6453991Y-19203889D01*
X6453991Y-19203889D02*
X6444467Y-19222936D01*
X6444467Y-19222936D02*
X6434944Y-19232460D01*
X6434944Y-19232460D02*
X6415896Y-19241984D01*
X6415896Y-19241984D02*
X6396848Y-19241984D01*
X6396848Y-19241984D02*
X6377801Y-19232460D01*
X6377801Y-19232460D02*
X6368277Y-19222936D01*
X6368277Y-19222936D02*
X6358753Y-19203889D01*
X6358753Y-19203889D02*
X6349229Y-19165793D01*
X6349229Y-19165793D02*
X6349229Y-19118174D01*
X6349229Y-19118174D02*
X6358753Y-19080079D01*
X6358753Y-19080079D02*
X6368277Y-19061031D01*
X6368277Y-19061031D02*
X6377801Y-19051508D01*
X6377801Y-19051508D02*
X6396848Y-19041984D01*
X6530182Y-19041984D02*
X6653991Y-19041984D01*
X6653991Y-19041984D02*
X6587325Y-19118174D01*
X6587325Y-19118174D02*
X6615896Y-19118174D01*
X6615896Y-19118174D02*
X6634944Y-19127698D01*
X6634944Y-19127698D02*
X6644467Y-19137222D01*
X6644467Y-19137222D02*
X6653991Y-19156270D01*
X6653991Y-19156270D02*
X6653991Y-19203889D01*
X6653991Y-19203889D02*
X6644467Y-19222936D01*
X6644467Y-19222936D02*
X6634944Y-19232460D01*
X6634944Y-19232460D02*
X6615896Y-19241984D01*
X6615896Y-19241984D02*
X6558753Y-19241984D01*
X6558753Y-19241984D02*
X6539706Y-19232460D01*
X6539706Y-19232460D02*
X6530182Y-19222936D01*
X6749229Y-19241984D02*
X6787325Y-19241984D01*
X6787325Y-19241984D02*
X6806372Y-19232460D01*
X6806372Y-19232460D02*
X6815896Y-19222936D01*
X6815896Y-19222936D02*
X6834944Y-19194365D01*
X6834944Y-19194365D02*
X6844467Y-19156270D01*
X6844467Y-19156270D02*
X6844467Y-19080079D01*
X6844467Y-19080079D02*
X6834944Y-19061031D01*
X6834944Y-19061031D02*
X6825420Y-19051508D01*
X6825420Y-19051508D02*
X6806372Y-19041984D01*
X6806372Y-19041984D02*
X6768277Y-19041984D01*
X6768277Y-19041984D02*
X6749229Y-19051508D01*
X6749229Y-19051508D02*
X6739706Y-19061031D01*
X6739706Y-19061031D02*
X6730182Y-19080079D01*
X6730182Y-19080079D02*
X6730182Y-19127698D01*
X6730182Y-19127698D02*
X6739706Y-19146746D01*
X6739706Y-19146746D02*
X6749229Y-19156270D01*
X6749229Y-19156270D02*
X6768277Y-19165793D01*
X6768277Y-19165793D02*
X6806372Y-19165793D01*
X6806372Y-19165793D02*
X6825420Y-19156270D01*
X6825420Y-19156270D02*
X6834944Y-19146746D01*
X6834944Y-19146746D02*
X6844467Y-19127698D01*
X7015896Y-19108650D02*
X7015896Y-19241984D01*
X6968277Y-19032460D02*
X6920658Y-19175317D01*
X6920658Y-19175317D02*
X7044467Y-19175317D01*
X7111134Y-19041984D02*
X7111134Y-19080079D01*
X7187325Y-19041984D02*
X7187325Y-19080079D01*
X7482563Y-19318174D02*
X7473039Y-19308650D01*
X7473039Y-19308650D02*
X7453991Y-19280079D01*
X7453991Y-19280079D02*
X7444468Y-19261031D01*
X7444468Y-19261031D02*
X7434944Y-19232460D01*
X7434944Y-19232460D02*
X7425420Y-19184841D01*
X7425420Y-19184841D02*
X7425420Y-19146746D01*
X7425420Y-19146746D02*
X7434944Y-19099127D01*
X7434944Y-19099127D02*
X7444468Y-19070555D01*
X7444468Y-19070555D02*
X7453991Y-19051508D01*
X7453991Y-19051508D02*
X7473039Y-19022936D01*
X7473039Y-19022936D02*
X7482563Y-19013412D01*
X7663515Y-19241984D02*
X7549229Y-19241984D01*
X7606372Y-19241984D02*
X7606372Y-19041984D01*
X7606372Y-19041984D02*
X7587325Y-19070555D01*
X7587325Y-19070555D02*
X7568277Y-19089603D01*
X7568277Y-19089603D02*
X7549229Y-19099127D01*
X7787325Y-19041984D02*
X7806372Y-19041984D01*
X7806372Y-19041984D02*
X7825420Y-19051508D01*
X7825420Y-19051508D02*
X7834944Y-19061031D01*
X7834944Y-19061031D02*
X7844468Y-19080079D01*
X7844468Y-19080079D02*
X7853991Y-19118174D01*
X7853991Y-19118174D02*
X7853991Y-19165793D01*
X7853991Y-19165793D02*
X7844468Y-19203889D01*
X7844468Y-19203889D02*
X7834944Y-19222936D01*
X7834944Y-19222936D02*
X7825420Y-19232460D01*
X7825420Y-19232460D02*
X7806372Y-19241984D01*
X7806372Y-19241984D02*
X7787325Y-19241984D01*
X7787325Y-19241984D02*
X7768277Y-19232460D01*
X7768277Y-19232460D02*
X7758753Y-19222936D01*
X7758753Y-19222936D02*
X7749229Y-19203889D01*
X7749229Y-19203889D02*
X7739706Y-19165793D01*
X7739706Y-19165793D02*
X7739706Y-19118174D01*
X7739706Y-19118174D02*
X7749229Y-19080079D01*
X7749229Y-19080079D02*
X7758753Y-19061031D01*
X7758753Y-19061031D02*
X7768277Y-19051508D01*
X7768277Y-19051508D02*
X7787325Y-19041984D01*
X8092087Y-19241984D02*
X8092087Y-19041984D01*
X8177801Y-19241984D02*
X8177801Y-19137222D01*
X8177801Y-19137222D02*
X8168277Y-19118174D01*
X8168277Y-19118174D02*
X8149230Y-19108650D01*
X8149230Y-19108650D02*
X8120658Y-19108650D01*
X8120658Y-19108650D02*
X8101610Y-19118174D01*
X8101610Y-19118174D02*
X8092087Y-19127698D01*
X8301610Y-19241984D02*
X8282563Y-19232460D01*
X8282563Y-19232460D02*
X8273039Y-19222936D01*
X8273039Y-19222936D02*
X8263515Y-19203889D01*
X8263515Y-19203889D02*
X8263515Y-19146746D01*
X8263515Y-19146746D02*
X8273039Y-19127698D01*
X8273039Y-19127698D02*
X8282563Y-19118174D01*
X8282563Y-19118174D02*
X8301610Y-19108650D01*
X8301610Y-19108650D02*
X8330182Y-19108650D01*
X8330182Y-19108650D02*
X8349230Y-19118174D01*
X8349230Y-19118174D02*
X8358753Y-19127698D01*
X8358753Y-19127698D02*
X8368277Y-19146746D01*
X8368277Y-19146746D02*
X8368277Y-19203889D01*
X8368277Y-19203889D02*
X8358753Y-19222936D01*
X8358753Y-19222936D02*
X8349230Y-19232460D01*
X8349230Y-19232460D02*
X8330182Y-19241984D01*
X8330182Y-19241984D02*
X8301610Y-19241984D01*
X8482563Y-19241984D02*
X8463515Y-19232460D01*
X8463515Y-19232460D02*
X8453992Y-19213412D01*
X8453992Y-19213412D02*
X8453992Y-19041984D01*
X8634944Y-19232460D02*
X8615896Y-19241984D01*
X8615896Y-19241984D02*
X8577801Y-19241984D01*
X8577801Y-19241984D02*
X8558753Y-19232460D01*
X8558753Y-19232460D02*
X8549230Y-19213412D01*
X8549230Y-19213412D02*
X8549230Y-19137222D01*
X8549230Y-19137222D02*
X8558753Y-19118174D01*
X8558753Y-19118174D02*
X8577801Y-19108650D01*
X8577801Y-19108650D02*
X8615896Y-19108650D01*
X8615896Y-19108650D02*
X8634944Y-19118174D01*
X8634944Y-19118174D02*
X8644468Y-19137222D01*
X8644468Y-19137222D02*
X8644468Y-19156270D01*
X8644468Y-19156270D02*
X8549230Y-19175317D01*
X8720658Y-19232460D02*
X8739706Y-19241984D01*
X8739706Y-19241984D02*
X8777801Y-19241984D01*
X8777801Y-19241984D02*
X8796849Y-19232460D01*
X8796849Y-19232460D02*
X8806373Y-19213412D01*
X8806373Y-19213412D02*
X8806373Y-19203889D01*
X8806373Y-19203889D02*
X8796849Y-19184841D01*
X8796849Y-19184841D02*
X8777801Y-19175317D01*
X8777801Y-19175317D02*
X8749230Y-19175317D01*
X8749230Y-19175317D02*
X8730182Y-19165793D01*
X8730182Y-19165793D02*
X8720658Y-19146746D01*
X8720658Y-19146746D02*
X8720658Y-19137222D01*
X8720658Y-19137222D02*
X8730182Y-19118174D01*
X8730182Y-19118174D02*
X8749230Y-19108650D01*
X8749230Y-19108650D02*
X8777801Y-19108650D01*
X8777801Y-19108650D02*
X8796849Y-19118174D01*
X8873039Y-19318174D02*
X8882563Y-19308650D01*
X8882563Y-19308650D02*
X8901611Y-19280079D01*
X8901611Y-19280079D02*
X8911134Y-19261031D01*
X8911134Y-19261031D02*
X8920658Y-19232460D01*
X8920658Y-19232460D02*
X8930182Y-19184841D01*
X8930182Y-19184841D02*
X8930182Y-19146746D01*
X8930182Y-19146746D02*
X8920658Y-19099127D01*
X8920658Y-19099127D02*
X8911134Y-19070555D01*
X8911134Y-19070555D02*
X8901611Y-19051508D01*
X8901611Y-19051508D02*
X8882563Y-19022936D01*
X8882563Y-19022936D02*
X8873039Y-19013412D01*
X3878211Y-19485211D02*
X3878211Y-19343789D01*
X3736789Y-19343789D01*
X3736789Y-19485211D01*
X3878211Y-19485211D01*
X4149229Y-19305984D02*
X4273039Y-19305984D01*
X4273039Y-19305984D02*
X4206372Y-19382174D01*
X4206372Y-19382174D02*
X4234944Y-19382174D01*
X4234944Y-19382174D02*
X4253991Y-19391698D01*
X4253991Y-19391698D02*
X4263515Y-19401222D01*
X4263515Y-19401222D02*
X4273039Y-19420270D01*
X4273039Y-19420270D02*
X4273039Y-19467889D01*
X4273039Y-19467889D02*
X4263515Y-19486936D01*
X4263515Y-19486936D02*
X4253991Y-19496460D01*
X4253991Y-19496460D02*
X4234944Y-19505984D01*
X4234944Y-19505984D02*
X4177801Y-19505984D01*
X4177801Y-19505984D02*
X4158753Y-19496460D01*
X4158753Y-19496460D02*
X4149229Y-19486936D01*
X4358753Y-19486936D02*
X4368277Y-19496460D01*
X4368277Y-19496460D02*
X4358753Y-19505984D01*
X4358753Y-19505984D02*
X4349229Y-19496460D01*
X4349229Y-19496460D02*
X4358753Y-19486936D01*
X4358753Y-19486936D02*
X4358753Y-19505984D01*
X4444467Y-19325031D02*
X4453991Y-19315508D01*
X4453991Y-19315508D02*
X4473039Y-19305984D01*
X4473039Y-19305984D02*
X4520658Y-19305984D01*
X4520658Y-19305984D02*
X4539705Y-19315508D01*
X4539705Y-19315508D02*
X4549229Y-19325031D01*
X4549229Y-19325031D02*
X4558753Y-19344079D01*
X4558753Y-19344079D02*
X4558753Y-19363127D01*
X4558753Y-19363127D02*
X4549229Y-19391698D01*
X4549229Y-19391698D02*
X4434944Y-19505984D01*
X4434944Y-19505984D02*
X4558753Y-19505984D01*
X4682563Y-19305984D02*
X4701610Y-19305984D01*
X4701610Y-19305984D02*
X4720658Y-19315508D01*
X4720658Y-19315508D02*
X4730182Y-19325031D01*
X4730182Y-19325031D02*
X4739705Y-19344079D01*
X4739705Y-19344079D02*
X4749229Y-19382174D01*
X4749229Y-19382174D02*
X4749229Y-19429793D01*
X4749229Y-19429793D02*
X4739705Y-19467889D01*
X4739705Y-19467889D02*
X4730182Y-19486936D01*
X4730182Y-19486936D02*
X4720658Y-19496460D01*
X4720658Y-19496460D02*
X4701610Y-19505984D01*
X4701610Y-19505984D02*
X4682563Y-19505984D01*
X4682563Y-19505984D02*
X4663515Y-19496460D01*
X4663515Y-19496460D02*
X4653991Y-19486936D01*
X4653991Y-19486936D02*
X4644467Y-19467889D01*
X4644467Y-19467889D02*
X4634944Y-19429793D01*
X4634944Y-19429793D02*
X4634944Y-19382174D01*
X4634944Y-19382174D02*
X4644467Y-19344079D01*
X4644467Y-19344079D02*
X4653991Y-19325031D01*
X4653991Y-19325031D02*
X4663515Y-19315508D01*
X4663515Y-19315508D02*
X4682563Y-19305984D01*
X4873039Y-19305984D02*
X4892086Y-19305984D01*
X4892086Y-19305984D02*
X4911134Y-19315508D01*
X4911134Y-19315508D02*
X4920658Y-19325031D01*
X4920658Y-19325031D02*
X4930182Y-19344079D01*
X4930182Y-19344079D02*
X4939705Y-19382174D01*
X4939705Y-19382174D02*
X4939705Y-19429793D01*
X4939705Y-19429793D02*
X4930182Y-19467889D01*
X4930182Y-19467889D02*
X4920658Y-19486936D01*
X4920658Y-19486936D02*
X4911134Y-19496460D01*
X4911134Y-19496460D02*
X4892086Y-19505984D01*
X4892086Y-19505984D02*
X4873039Y-19505984D01*
X4873039Y-19505984D02*
X4853991Y-19496460D01*
X4853991Y-19496460D02*
X4844467Y-19486936D01*
X4844467Y-19486936D02*
X4834944Y-19467889D01*
X4834944Y-19467889D02*
X4825420Y-19429793D01*
X4825420Y-19429793D02*
X4825420Y-19382174D01*
X4825420Y-19382174D02*
X4834944Y-19344079D01*
X4834944Y-19344079D02*
X4844467Y-19325031D01*
X4844467Y-19325031D02*
X4853991Y-19315508D01*
X4853991Y-19315508D02*
X4873039Y-19305984D01*
X5025420Y-19505984D02*
X5025420Y-19372650D01*
X5025420Y-19391698D02*
X5034944Y-19382174D01*
X5034944Y-19382174D02*
X5053991Y-19372650D01*
X5053991Y-19372650D02*
X5082563Y-19372650D01*
X5082563Y-19372650D02*
X5101610Y-19382174D01*
X5101610Y-19382174D02*
X5111134Y-19401222D01*
X5111134Y-19401222D02*
X5111134Y-19505984D01*
X5111134Y-19401222D02*
X5120658Y-19382174D01*
X5120658Y-19382174D02*
X5139705Y-19372650D01*
X5139705Y-19372650D02*
X5168277Y-19372650D01*
X5168277Y-19372650D02*
X5187325Y-19382174D01*
X5187325Y-19382174D02*
X5196848Y-19401222D01*
X5196848Y-19401222D02*
X5196848Y-19505984D01*
X5292086Y-19505984D02*
X5292086Y-19372650D01*
X5292086Y-19391698D02*
X5301610Y-19382174D01*
X5301610Y-19382174D02*
X5320658Y-19372650D01*
X5320658Y-19372650D02*
X5349229Y-19372650D01*
X5349229Y-19372650D02*
X5368277Y-19382174D01*
X5368277Y-19382174D02*
X5377801Y-19401222D01*
X5377801Y-19401222D02*
X5377801Y-19505984D01*
X5377801Y-19401222D02*
X5387325Y-19382174D01*
X5387325Y-19382174D02*
X5406372Y-19372650D01*
X5406372Y-19372650D02*
X5434944Y-19372650D01*
X5434944Y-19372650D02*
X5453991Y-19382174D01*
X5453991Y-19382174D02*
X5463515Y-19401222D01*
X5463515Y-19401222D02*
X5463515Y-19505984D01*
X5853991Y-19296460D02*
X5682563Y-19553603D01*
X6111134Y-19305984D02*
X6130182Y-19305984D01*
X6130182Y-19305984D02*
X6149229Y-19315508D01*
X6149229Y-19315508D02*
X6158753Y-19325031D01*
X6158753Y-19325031D02*
X6168277Y-19344079D01*
X6168277Y-19344079D02*
X6177801Y-19382174D01*
X6177801Y-19382174D02*
X6177801Y-19429793D01*
X6177801Y-19429793D02*
X6168277Y-19467889D01*
X6168277Y-19467889D02*
X6158753Y-19486936D01*
X6158753Y-19486936D02*
X6149229Y-19496460D01*
X6149229Y-19496460D02*
X6130182Y-19505984D01*
X6130182Y-19505984D02*
X6111134Y-19505984D01*
X6111134Y-19505984D02*
X6092086Y-19496460D01*
X6092086Y-19496460D02*
X6082563Y-19486936D01*
X6082563Y-19486936D02*
X6073039Y-19467889D01*
X6073039Y-19467889D02*
X6063515Y-19429793D01*
X6063515Y-19429793D02*
X6063515Y-19382174D01*
X6063515Y-19382174D02*
X6073039Y-19344079D01*
X6073039Y-19344079D02*
X6082563Y-19325031D01*
X6082563Y-19325031D02*
X6092086Y-19315508D01*
X6092086Y-19315508D02*
X6111134Y-19305984D01*
X6263515Y-19486936D02*
X6273039Y-19496460D01*
X6273039Y-19496460D02*
X6263515Y-19505984D01*
X6263515Y-19505984D02*
X6253991Y-19496460D01*
X6253991Y-19496460D02*
X6263515Y-19486936D01*
X6263515Y-19486936D02*
X6263515Y-19505984D01*
X6463515Y-19505984D02*
X6349229Y-19505984D01*
X6406372Y-19505984D02*
X6406372Y-19305984D01*
X6406372Y-19305984D02*
X6387325Y-19334555D01*
X6387325Y-19334555D02*
X6368277Y-19353603D01*
X6368277Y-19353603D02*
X6349229Y-19363127D01*
X6539706Y-19325031D02*
X6549229Y-19315508D01*
X6549229Y-19315508D02*
X6568277Y-19305984D01*
X6568277Y-19305984D02*
X6615896Y-19305984D01*
X6615896Y-19305984D02*
X6634944Y-19315508D01*
X6634944Y-19315508D02*
X6644467Y-19325031D01*
X6644467Y-19325031D02*
X6653991Y-19344079D01*
X6653991Y-19344079D02*
X6653991Y-19363127D01*
X6653991Y-19363127D02*
X6644467Y-19391698D01*
X6644467Y-19391698D02*
X6530182Y-19505984D01*
X6530182Y-19505984D02*
X6653991Y-19505984D01*
X6825420Y-19305984D02*
X6787325Y-19305984D01*
X6787325Y-19305984D02*
X6768277Y-19315508D01*
X6768277Y-19315508D02*
X6758753Y-19325031D01*
X6758753Y-19325031D02*
X6739706Y-19353603D01*
X6739706Y-19353603D02*
X6730182Y-19391698D01*
X6730182Y-19391698D02*
X6730182Y-19467889D01*
X6730182Y-19467889D02*
X6739706Y-19486936D01*
X6739706Y-19486936D02*
X6749229Y-19496460D01*
X6749229Y-19496460D02*
X6768277Y-19505984D01*
X6768277Y-19505984D02*
X6806372Y-19505984D01*
X6806372Y-19505984D02*
X6825420Y-19496460D01*
X6825420Y-19496460D02*
X6834944Y-19486936D01*
X6834944Y-19486936D02*
X6844467Y-19467889D01*
X6844467Y-19467889D02*
X6844467Y-19420270D01*
X6844467Y-19420270D02*
X6834944Y-19401222D01*
X6834944Y-19401222D02*
X6825420Y-19391698D01*
X6825420Y-19391698D02*
X6806372Y-19382174D01*
X6806372Y-19382174D02*
X6768277Y-19382174D01*
X6768277Y-19382174D02*
X6749229Y-19391698D01*
X6749229Y-19391698D02*
X6739706Y-19401222D01*
X6739706Y-19401222D02*
X6730182Y-19420270D01*
X6968277Y-19305984D02*
X6987325Y-19305984D01*
X6987325Y-19305984D02*
X7006372Y-19315508D01*
X7006372Y-19315508D02*
X7015896Y-19325031D01*
X7015896Y-19325031D02*
X7025420Y-19344079D01*
X7025420Y-19344079D02*
X7034944Y-19382174D01*
X7034944Y-19382174D02*
X7034944Y-19429793D01*
X7034944Y-19429793D02*
X7025420Y-19467889D01*
X7025420Y-19467889D02*
X7015896Y-19486936D01*
X7015896Y-19486936D02*
X7006372Y-19496460D01*
X7006372Y-19496460D02*
X6987325Y-19505984D01*
X6987325Y-19505984D02*
X6968277Y-19505984D01*
X6968277Y-19505984D02*
X6949229Y-19496460D01*
X6949229Y-19496460D02*
X6939706Y-19486936D01*
X6939706Y-19486936D02*
X6930182Y-19467889D01*
X6930182Y-19467889D02*
X6920658Y-19429793D01*
X6920658Y-19429793D02*
X6920658Y-19382174D01*
X6920658Y-19382174D02*
X6930182Y-19344079D01*
X6930182Y-19344079D02*
X6939706Y-19325031D01*
X6939706Y-19325031D02*
X6949229Y-19315508D01*
X6949229Y-19315508D02*
X6968277Y-19305984D01*
X7111134Y-19305984D02*
X7111134Y-19344079D01*
X7187325Y-19305984D02*
X7187325Y-19344079D01*
X7482563Y-19582174D02*
X7473039Y-19572650D01*
X7473039Y-19572650D02*
X7453991Y-19544079D01*
X7453991Y-19544079D02*
X7444468Y-19525031D01*
X7444468Y-19525031D02*
X7434944Y-19496460D01*
X7434944Y-19496460D02*
X7425420Y-19448841D01*
X7425420Y-19448841D02*
X7425420Y-19410746D01*
X7425420Y-19410746D02*
X7434944Y-19363127D01*
X7434944Y-19363127D02*
X7444468Y-19334555D01*
X7444468Y-19334555D02*
X7453991Y-19315508D01*
X7453991Y-19315508D02*
X7473039Y-19286936D01*
X7473039Y-19286936D02*
X7482563Y-19277412D01*
X7644468Y-19372650D02*
X7644468Y-19505984D01*
X7596848Y-19296460D02*
X7549229Y-19439317D01*
X7549229Y-19439317D02*
X7673039Y-19439317D01*
X7901610Y-19505984D02*
X7901610Y-19305984D01*
X7987325Y-19505984D02*
X7987325Y-19401222D01*
X7987325Y-19401222D02*
X7977801Y-19382174D01*
X7977801Y-19382174D02*
X7958753Y-19372650D01*
X7958753Y-19372650D02*
X7930182Y-19372650D01*
X7930182Y-19372650D02*
X7911134Y-19382174D01*
X7911134Y-19382174D02*
X7901610Y-19391698D01*
X8111134Y-19505984D02*
X8092087Y-19496460D01*
X8092087Y-19496460D02*
X8082563Y-19486936D01*
X8082563Y-19486936D02*
X8073039Y-19467889D01*
X8073039Y-19467889D02*
X8073039Y-19410746D01*
X8073039Y-19410746D02*
X8082563Y-19391698D01*
X8082563Y-19391698D02*
X8092087Y-19382174D01*
X8092087Y-19382174D02*
X8111134Y-19372650D01*
X8111134Y-19372650D02*
X8139706Y-19372650D01*
X8139706Y-19372650D02*
X8158753Y-19382174D01*
X8158753Y-19382174D02*
X8168277Y-19391698D01*
X8168277Y-19391698D02*
X8177801Y-19410746D01*
X8177801Y-19410746D02*
X8177801Y-19467889D01*
X8177801Y-19467889D02*
X8168277Y-19486936D01*
X8168277Y-19486936D02*
X8158753Y-19496460D01*
X8158753Y-19496460D02*
X8139706Y-19505984D01*
X8139706Y-19505984D02*
X8111134Y-19505984D01*
X8292087Y-19505984D02*
X8273039Y-19496460D01*
X8273039Y-19496460D02*
X8263515Y-19477412D01*
X8263515Y-19477412D02*
X8263515Y-19305984D01*
X8444468Y-19496460D02*
X8425420Y-19505984D01*
X8425420Y-19505984D02*
X8387325Y-19505984D01*
X8387325Y-19505984D02*
X8368277Y-19496460D01*
X8368277Y-19496460D02*
X8358753Y-19477412D01*
X8358753Y-19477412D02*
X8358753Y-19401222D01*
X8358753Y-19401222D02*
X8368277Y-19382174D01*
X8368277Y-19382174D02*
X8387325Y-19372650D01*
X8387325Y-19372650D02*
X8425420Y-19372650D01*
X8425420Y-19372650D02*
X8444468Y-19382174D01*
X8444468Y-19382174D02*
X8453992Y-19401222D01*
X8453992Y-19401222D02*
X8453992Y-19420270D01*
X8453992Y-19420270D02*
X8358753Y-19439317D01*
X8530182Y-19496460D02*
X8549230Y-19505984D01*
X8549230Y-19505984D02*
X8587325Y-19505984D01*
X8587325Y-19505984D02*
X8606373Y-19496460D01*
X8606373Y-19496460D02*
X8615896Y-19477412D01*
X8615896Y-19477412D02*
X8615896Y-19467889D01*
X8615896Y-19467889D02*
X8606373Y-19448841D01*
X8606373Y-19448841D02*
X8587325Y-19439317D01*
X8587325Y-19439317D02*
X8558753Y-19439317D01*
X8558753Y-19439317D02*
X8539706Y-19429793D01*
X8539706Y-19429793D02*
X8530182Y-19410746D01*
X8530182Y-19410746D02*
X8530182Y-19401222D01*
X8530182Y-19401222D02*
X8539706Y-19382174D01*
X8539706Y-19382174D02*
X8558753Y-19372650D01*
X8558753Y-19372650D02*
X8587325Y-19372650D01*
X8587325Y-19372650D02*
X8606373Y-19382174D01*
X8682563Y-19582174D02*
X8692087Y-19572650D01*
X8692087Y-19572650D02*
X8711134Y-19544079D01*
X8711134Y-19544079D02*
X8720658Y-19525031D01*
X8720658Y-19525031D02*
X8730182Y-19496460D01*
X8730182Y-19496460D02*
X8739706Y-19448841D01*
X8739706Y-19448841D02*
X8739706Y-19410746D01*
X8739706Y-19410746D02*
X8730182Y-19363127D01*
X8730182Y-19363127D02*
X8720658Y-19334555D01*
X8720658Y-19334555D02*
X8711134Y-19315508D01*
X8711134Y-19315508D02*
X8692087Y-19286936D01*
X8692087Y-19286936D02*
X8682563Y-19277412D01*
X9044468Y-19582174D02*
X9034944Y-19572650D01*
X9034944Y-19572650D02*
X9015896Y-19544079D01*
X9015896Y-19544079D02*
X9006373Y-19525031D01*
X9006373Y-19525031D02*
X8996849Y-19496460D01*
X8996849Y-19496460D02*
X8987325Y-19448841D01*
X8987325Y-19448841D02*
X8987325Y-19410746D01*
X8987325Y-19410746D02*
X8996849Y-19363127D01*
X8996849Y-19363127D02*
X9006373Y-19334555D01*
X9006373Y-19334555D02*
X9015896Y-19315508D01*
X9015896Y-19315508D02*
X9034944Y-19286936D01*
X9034944Y-19286936D02*
X9044468Y-19277412D01*
X9120658Y-19372650D02*
X9120658Y-19505984D01*
X9120658Y-19391698D02*
X9130182Y-19382174D01*
X9130182Y-19382174D02*
X9149230Y-19372650D01*
X9149230Y-19372650D02*
X9177801Y-19372650D01*
X9177801Y-19372650D02*
X9196849Y-19382174D01*
X9196849Y-19382174D02*
X9206373Y-19401222D01*
X9206373Y-19401222D02*
X9206373Y-19505984D01*
X9330182Y-19505984D02*
X9311134Y-19496460D01*
X9311134Y-19496460D02*
X9301611Y-19486936D01*
X9301611Y-19486936D02*
X9292087Y-19467889D01*
X9292087Y-19467889D02*
X9292087Y-19410746D01*
X9292087Y-19410746D02*
X9301611Y-19391698D01*
X9301611Y-19391698D02*
X9311134Y-19382174D01*
X9311134Y-19382174D02*
X9330182Y-19372650D01*
X9330182Y-19372650D02*
X9358754Y-19372650D01*
X9358754Y-19372650D02*
X9377801Y-19382174D01*
X9377801Y-19382174D02*
X9387325Y-19391698D01*
X9387325Y-19391698D02*
X9396849Y-19410746D01*
X9396849Y-19410746D02*
X9396849Y-19467889D01*
X9396849Y-19467889D02*
X9387325Y-19486936D01*
X9387325Y-19486936D02*
X9377801Y-19496460D01*
X9377801Y-19496460D02*
X9358754Y-19505984D01*
X9358754Y-19505984D02*
X9330182Y-19505984D01*
X9453992Y-19372650D02*
X9530182Y-19372650D01*
X9482563Y-19305984D02*
X9482563Y-19477412D01*
X9482563Y-19477412D02*
X9492087Y-19496460D01*
X9492087Y-19496460D02*
X9511134Y-19505984D01*
X9511134Y-19505984D02*
X9530182Y-19505984D01*
X9749230Y-19372650D02*
X9749230Y-19572650D01*
X9749230Y-19382174D02*
X9768277Y-19372650D01*
X9768277Y-19372650D02*
X9806373Y-19372650D01*
X9806373Y-19372650D02*
X9825420Y-19382174D01*
X9825420Y-19382174D02*
X9834944Y-19391698D01*
X9834944Y-19391698D02*
X9844468Y-19410746D01*
X9844468Y-19410746D02*
X9844468Y-19467889D01*
X9844468Y-19467889D02*
X9834944Y-19486936D01*
X9834944Y-19486936D02*
X9825420Y-19496460D01*
X9825420Y-19496460D02*
X9806373Y-19505984D01*
X9806373Y-19505984D02*
X9768277Y-19505984D01*
X9768277Y-19505984D02*
X9749230Y-19496460D01*
X9958754Y-19505984D02*
X9939706Y-19496460D01*
X9939706Y-19496460D02*
X9930182Y-19477412D01*
X9930182Y-19477412D02*
X9930182Y-19305984D01*
X10120658Y-19505984D02*
X10120658Y-19401222D01*
X10120658Y-19401222D02*
X10111135Y-19382174D01*
X10111135Y-19382174D02*
X10092087Y-19372650D01*
X10092087Y-19372650D02*
X10053992Y-19372650D01*
X10053992Y-19372650D02*
X10034944Y-19382174D01*
X10120658Y-19496460D02*
X10101611Y-19505984D01*
X10101611Y-19505984D02*
X10053992Y-19505984D01*
X10053992Y-19505984D02*
X10034944Y-19496460D01*
X10034944Y-19496460D02*
X10025420Y-19477412D01*
X10025420Y-19477412D02*
X10025420Y-19458365D01*
X10025420Y-19458365D02*
X10034944Y-19439317D01*
X10034944Y-19439317D02*
X10053992Y-19429793D01*
X10053992Y-19429793D02*
X10101611Y-19429793D01*
X10101611Y-19429793D02*
X10120658Y-19420270D01*
X10187325Y-19372650D02*
X10263515Y-19372650D01*
X10215896Y-19305984D02*
X10215896Y-19477412D01*
X10215896Y-19477412D02*
X10225420Y-19496460D01*
X10225420Y-19496460D02*
X10244468Y-19505984D01*
X10244468Y-19505984D02*
X10263515Y-19505984D01*
X10406373Y-19496460D02*
X10387325Y-19505984D01*
X10387325Y-19505984D02*
X10349230Y-19505984D01*
X10349230Y-19505984D02*
X10330182Y-19496460D01*
X10330182Y-19496460D02*
X10320658Y-19477412D01*
X10320658Y-19477412D02*
X10320658Y-19401222D01*
X10320658Y-19401222D02*
X10330182Y-19382174D01*
X10330182Y-19382174D02*
X10349230Y-19372650D01*
X10349230Y-19372650D02*
X10387325Y-19372650D01*
X10387325Y-19372650D02*
X10406373Y-19382174D01*
X10406373Y-19382174D02*
X10415896Y-19401222D01*
X10415896Y-19401222D02*
X10415896Y-19420270D01*
X10415896Y-19420270D02*
X10320658Y-19439317D01*
X10587325Y-19505984D02*
X10587325Y-19305984D01*
X10587325Y-19496460D02*
X10568277Y-19505984D01*
X10568277Y-19505984D02*
X10530182Y-19505984D01*
X10530182Y-19505984D02*
X10511135Y-19496460D01*
X10511135Y-19496460D02*
X10501611Y-19486936D01*
X10501611Y-19486936D02*
X10492087Y-19467889D01*
X10492087Y-19467889D02*
X10492087Y-19410746D01*
X10492087Y-19410746D02*
X10501611Y-19391698D01*
X10501611Y-19391698D02*
X10511135Y-19382174D01*
X10511135Y-19382174D02*
X10530182Y-19372650D01*
X10530182Y-19372650D02*
X10568277Y-19372650D01*
X10568277Y-19372650D02*
X10587325Y-19382174D01*
X10663516Y-19582174D02*
X10673039Y-19572650D01*
X10673039Y-19572650D02*
X10692087Y-19544079D01*
X10692087Y-19544079D02*
X10701611Y-19525031D01*
X10701611Y-19525031D02*
X10711135Y-19496460D01*
X10711135Y-19496460D02*
X10720658Y-19448841D01*
X10720658Y-19448841D02*
X10720658Y-19410746D01*
X10720658Y-19410746D02*
X10711135Y-19363127D01*
X10711135Y-19363127D02*
X10701611Y-19334555D01*
X10701611Y-19334555D02*
X10692087Y-19315508D01*
X10692087Y-19315508D02*
X10673039Y-19286936D01*
X10673039Y-19286936D02*
X10663516Y-19277412D01*
M02*
