%TF.GenerationSoftware,KiCad,Pcbnew,9.0.4*%
%TF.CreationDate,2026-08-03T03:57:56-04:00*%
%TF.ProjectId,analog_NN,616e616c-6f67-45f4-9e4e-2e6b69636164,rev?*%
%TF.SameCoordinates,Original*%
%TF.FileFunction,Soldermask,Top*%
%TF.FilePolarity,Negative*%
%FSLAX46Y46*%
G04 Gerber Fmt 4.6, Leading zero omitted, Abs format (unit mm)*
G04 Created by KiCad (PCBNEW 9.0.4) date 2026-08-03 03:57:56*
%MOMM*%
%LPD*%
G01*
G04 APERTURE LIST*
G04 Aperture macros list*
%AMRoundRect*
0 Rectangle with rounded corners*
0 $1 Rounding radius*
0 $2 $3 $4 $5 $6 $7 $8 $9 X,Y pos of 4 corners*
0 Add a 4 corners polygon primitive as box body*
4,1,4,$2,$3,$4,$5,$6,$7,$8,$9,$2,$3,0*
0 Add four circle primitives for the rounded corners*
1,1,$1+$1,$2,$3*
1,1,$1+$1,$4,$5*
1,1,$1+$1,$6,$7*
1,1,$1+$1,$8,$9*
0 Add four rect primitives between the rounded corners*
20,1,$1+$1,$2,$3,$4,$5,0*
20,1,$1+$1,$4,$5,$6,$7,0*
20,1,$1+$1,$6,$7,$8,$9,0*
20,1,$1+$1,$8,$9,$2,$3,0*%
G04 Aperture macros list end*
%ADD10RoundRect,0.125000X0.537500X0.125000X-0.537500X0.125000X-0.537500X-0.125000X0.537500X-0.125000X0*%
%ADD11RoundRect,0.250000X0.625000X-0.312500X0.625000X0.312500X-0.625000X0.312500X-0.625000X-0.312500X0*%
%ADD12RoundRect,0.250000X-0.650000X0.325000X-0.650000X-0.325000X0.650000X-0.325000X0.650000X0.325000X0*%
%ADD13RoundRect,0.150000X-0.512500X-0.150000X0.512500X-0.150000X0.512500X0.150000X-0.512500X0.150000X0*%
%ADD14RoundRect,0.150000X0.512500X0.150000X-0.512500X0.150000X-0.512500X-0.150000X0.512500X-0.150000X0*%
%ADD15RoundRect,0.250000X-0.625000X0.312500X-0.625000X-0.312500X0.625000X-0.312500X0.625000X0.312500X0*%
%ADD16RoundRect,0.250000X0.650000X-0.325000X0.650000X0.325000X-0.650000X0.325000X-0.650000X-0.325000X0*%
%ADD17RoundRect,0.250000X0.312500X0.625000X-0.312500X0.625000X-0.312500X-0.625000X0.312500X-0.625000X0*%
%ADD18RoundRect,0.250000X-0.312500X-0.625000X0.312500X-0.625000X0.312500X0.625000X-0.312500X0.625000X0*%
%ADD19RoundRect,0.150000X-0.825000X-0.150000X0.825000X-0.150000X0.825000X0.150000X-0.825000X0.150000X0*%
%ADD20RoundRect,0.250000X0.625000X-0.400000X0.625000X0.400000X-0.625000X0.400000X-0.625000X-0.400000X0*%
%ADD21C,2.400000*%
%ADD22RoundRect,0.250000X0.325000X0.650000X-0.325000X0.650000X-0.325000X-0.650000X0.325000X-0.650000X0*%
%ADD23RoundRect,0.125000X-0.537500X-0.125000X0.537500X-0.125000X0.537500X0.125000X-0.537500X0.125000X0*%
%ADD24RoundRect,0.250000X0.412500X0.650000X-0.412500X0.650000X-0.412500X-0.650000X0.412500X-0.650000X0*%
%ADD25C,3.200000*%
%ADD26RoundRect,0.250000X-0.650000X0.412500X-0.650000X-0.412500X0.650000X-0.412500X0.650000X0.412500X0*%
%ADD27RoundRect,0.250000X-0.400000X-0.625000X0.400000X-0.625000X0.400000X0.625000X-0.400000X0.625000X0*%
G04 APERTURE END LIST*
D10*
%TO.C,U131*%
X129475000Y-159700000D03*
X129475000Y-159050000D03*
X129475000Y-158400000D03*
X129475000Y-157750000D03*
X127200000Y-157750000D03*
X127200000Y-158400000D03*
X127200000Y-159050000D03*
X127200000Y-159700000D03*
%TD*%
D11*
%TO.C,R28*%
X175162500Y-144062500D03*
X175162500Y-141137500D03*
%TD*%
%TO.C,R15*%
X163762000Y-119112500D03*
X163762000Y-116187500D03*
%TD*%
D12*
%TO.C,C65*%
X186574302Y-92224000D03*
X186574302Y-95174000D03*
%TD*%
D13*
%TO.C,U13*%
X178224500Y-129800000D03*
X178224500Y-130750000D03*
X178224500Y-131700000D03*
X180499500Y-131700000D03*
X180499500Y-129800000D03*
%TD*%
D14*
%TO.C,U43*%
X64974000Y-43266818D03*
X64974000Y-42316818D03*
X64974000Y-41366818D03*
X62699000Y-41366818D03*
X62699000Y-43266818D03*
%TD*%
D13*
%TO.C,U8*%
X168262000Y-116700000D03*
X168262000Y-117650000D03*
X168262000Y-118600000D03*
X170537000Y-118600000D03*
X170537000Y-116700000D03*
%TD*%
D15*
%TO.C,R18*%
X183999500Y-116037500D03*
X183999500Y-118962500D03*
%TD*%
D16*
%TO.C,C8*%
X134000000Y-26575000D03*
X134000000Y-23625000D03*
%TD*%
D11*
%TO.C,R32*%
X164162500Y-157162500D03*
X164162500Y-154237500D03*
%TD*%
D17*
%TO.C,R40*%
X168374302Y-72899000D03*
X165449302Y-72899000D03*
%TD*%
D18*
%TO.C,R30*%
X186300000Y-155200000D03*
X189225000Y-155200000D03*
%TD*%
D19*
%TO.C,U93*%
X144600000Y-21350000D03*
X144600000Y-22620000D03*
X144600000Y-23890000D03*
X144600000Y-25160000D03*
X144600000Y-26430000D03*
X144600000Y-27700000D03*
X144600000Y-28970000D03*
X144600000Y-30240000D03*
X149550000Y-30240000D03*
X149550000Y-28970000D03*
X149550000Y-27700000D03*
X149550000Y-26430000D03*
X149550000Y-25160000D03*
X149550000Y-23890000D03*
X149550000Y-22620000D03*
X149550000Y-21350000D03*
%TD*%
D16*
%TO.C,C58*%
X103700000Y-160525000D03*
X103700000Y-157575000D03*
%TD*%
D13*
%TO.C,U15*%
X200124500Y-129100000D03*
X200124500Y-130050000D03*
X200124500Y-131000000D03*
X202399500Y-131000000D03*
X202399500Y-129100000D03*
%TD*%
D16*
%TO.C,C17*%
X133437500Y-56025000D03*
X133437500Y-53075000D03*
%TD*%
D15*
%TO.C,R21*%
X183999500Y-129037500D03*
X183999500Y-131962500D03*
%TD*%
D10*
%TO.C,U125*%
X100000000Y-149925000D03*
X100000000Y-149275000D03*
X100000000Y-148625000D03*
X100000000Y-147975000D03*
X97725000Y-147975000D03*
X97725000Y-148625000D03*
X97725000Y-149275000D03*
X97725000Y-149925000D03*
%TD*%
D12*
%TO.C,C67*%
X186449302Y-58424000D03*
X186449302Y-61374000D03*
%TD*%
D15*
%TO.C,R41*%
X163586802Y-77686500D03*
X163586802Y-80611500D03*
%TD*%
D10*
%TO.C,U64*%
X85000000Y-35350000D03*
X85000000Y-34700000D03*
X85000000Y-34050000D03*
X85000000Y-33400000D03*
X82725000Y-33400000D03*
X82725000Y-34050000D03*
X82725000Y-34700000D03*
X82725000Y-35350000D03*
%TD*%
D20*
%TO.C,R48*%
X59600000Y-76550000D03*
X59600000Y-73450000D03*
%TD*%
D14*
%TO.C,U7*%
X66000000Y-140550000D03*
X66000000Y-139600000D03*
X66000000Y-138650000D03*
X63725000Y-138650000D03*
X63725000Y-140550000D03*
%TD*%
D10*
%TO.C,U111*%
X129600000Y-110050000D03*
X129600000Y-109400000D03*
X129600000Y-108750000D03*
X129600000Y-108100000D03*
X127325000Y-108100000D03*
X127325000Y-108750000D03*
X127325000Y-109400000D03*
X127325000Y-110050000D03*
%TD*%
D16*
%TO.C,C7*%
X119200000Y-26775000D03*
X119200000Y-23825000D03*
%TD*%
D10*
%TO.C,U82*%
X114950000Y-75062500D03*
X114950000Y-74412500D03*
X114950000Y-73762500D03*
X114950000Y-73112500D03*
X112675000Y-73112500D03*
X112675000Y-73762500D03*
X112675000Y-74412500D03*
X112675000Y-75062500D03*
%TD*%
D16*
%TO.C,C38*%
X103725000Y-110625000D03*
X103725000Y-107675000D03*
%TD*%
%TO.C,C16*%
X133375000Y-46175000D03*
X133375000Y-43225000D03*
%TD*%
D13*
%TO.C,U23*%
X198887500Y-155500000D03*
X198887500Y-156450000D03*
X198887500Y-157400000D03*
X201162500Y-157400000D03*
X201162500Y-155500000D03*
%TD*%
D10*
%TO.C,U114*%
X114962500Y-120075000D03*
X114962500Y-119425000D03*
X114962500Y-118775000D03*
X114962500Y-118125000D03*
X112687500Y-118125000D03*
X112687500Y-118775000D03*
X112687500Y-119425000D03*
X112687500Y-120075000D03*
%TD*%
%TO.C,U66*%
X115362500Y-35537500D03*
X115362500Y-34887500D03*
X115362500Y-34237500D03*
X115362500Y-33587500D03*
X113087500Y-33587500D03*
X113087500Y-34237500D03*
X113087500Y-34887500D03*
X113087500Y-35537500D03*
%TD*%
D16*
%TO.C,C35*%
X119287500Y-100900000D03*
X119287500Y-97950000D03*
%TD*%
%TO.C,C19*%
X103937500Y-56225000D03*
X103937500Y-53275000D03*
%TD*%
D10*
%TO.C,U77*%
X99900000Y-65275000D03*
X99900000Y-64625000D03*
X99900000Y-63975000D03*
X99900000Y-63325000D03*
X97625000Y-63325000D03*
X97625000Y-63975000D03*
X97625000Y-64625000D03*
X97625000Y-65275000D03*
%TD*%
%TO.C,U73*%
X99975000Y-55525000D03*
X99975000Y-54875000D03*
X99975000Y-54225000D03*
X99975000Y-53575000D03*
X97700000Y-53575000D03*
X97700000Y-54225000D03*
X97700000Y-54875000D03*
X97700000Y-55525000D03*
%TD*%
D17*
%TO.C,R38*%
X168843052Y-60599000D03*
X165918052Y-60599000D03*
%TD*%
D16*
%TO.C,C25*%
X133275000Y-75487500D03*
X133275000Y-72537500D03*
%TD*%
D21*
%TO.C,J4*%
X48000000Y-93800000D03*
%TD*%
D16*
%TO.C,C12*%
X89125000Y-36075000D03*
X89125000Y-33125000D03*
%TD*%
D17*
%TO.C,R6*%
X58499000Y-65616818D03*
X55574000Y-65616818D03*
%TD*%
D16*
%TO.C,C36*%
X133675000Y-100875000D03*
X133675000Y-97925000D03*
%TD*%
%TO.C,C55*%
X118587500Y-150800000D03*
X118587500Y-147850000D03*
%TD*%
D21*
%TO.C,J1*%
X48500000Y-74900000D03*
%TD*%
%TO.C,J2*%
X48100000Y-87600000D03*
%TD*%
D10*
%TO.C,U110*%
X115275000Y-110000000D03*
X115275000Y-109350000D03*
X115275000Y-108700000D03*
X115275000Y-108050000D03*
X113000000Y-108050000D03*
X113000000Y-108700000D03*
X113000000Y-109350000D03*
X113000000Y-110000000D03*
%TD*%
D22*
%TO.C,C4*%
X195237500Y-158700000D03*
X192287500Y-158700000D03*
%TD*%
D16*
%TO.C,C37*%
X88300000Y-110775000D03*
X88300000Y-107825000D03*
%TD*%
D10*
%TO.C,U100*%
X84700000Y-90350000D03*
X84700000Y-89700000D03*
X84700000Y-89050000D03*
X84700000Y-88400000D03*
X82425000Y-88400000D03*
X82425000Y-89050000D03*
X82425000Y-89700000D03*
X82425000Y-90350000D03*
%TD*%
D16*
%TO.C,C33*%
X88525000Y-100775000D03*
X88525000Y-97825000D03*
%TD*%
D10*
%TO.C,U79*%
X129600000Y-65200000D03*
X129600000Y-64550000D03*
X129600000Y-63900000D03*
X129600000Y-63250000D03*
X127325000Y-63250000D03*
X127325000Y-63900000D03*
X127325000Y-64550000D03*
X127325000Y-65200000D03*
%TD*%
D14*
%TO.C,U1*%
X64936500Y-55516818D03*
X64936500Y-54566818D03*
X64936500Y-53616818D03*
X62661500Y-53616818D03*
X62661500Y-55516818D03*
%TD*%
D21*
%TO.C,J5*%
X49200000Y-29800000D03*
%TD*%
D10*
%TO.C,U69*%
X99975000Y-45300000D03*
X99975000Y-44650000D03*
X99975000Y-44000000D03*
X99975000Y-43350000D03*
X97700000Y-43350000D03*
X97700000Y-44000000D03*
X97700000Y-44650000D03*
X97700000Y-45300000D03*
%TD*%
D13*
%TO.C,U22*%
X192562500Y-154600000D03*
X192562500Y-155550000D03*
X192562500Y-156500000D03*
X194837500Y-156500000D03*
X194837500Y-154600000D03*
%TD*%
%TO.C,U17*%
X178687500Y-141700000D03*
X178687500Y-142650000D03*
X178687500Y-143600000D03*
X180962500Y-143600000D03*
X180962500Y-141700000D03*
%TD*%
D12*
%TO.C,C66*%
X186374302Y-75024000D03*
X186374302Y-77974000D03*
%TD*%
D16*
%TO.C,C49*%
X88300000Y-140475000D03*
X88300000Y-137525000D03*
%TD*%
D14*
%TO.C,U6*%
X65525000Y-128800000D03*
X65525000Y-127850000D03*
X65525000Y-126900000D03*
X63250000Y-126900000D03*
X63250000Y-128800000D03*
%TD*%
D10*
%TO.C,U72*%
X84675000Y-55275000D03*
X84675000Y-54625000D03*
X84675000Y-53975000D03*
X84675000Y-53325000D03*
X82400000Y-53325000D03*
X82400000Y-53975000D03*
X82400000Y-54625000D03*
X82400000Y-55275000D03*
%TD*%
%TO.C,U123*%
X129400000Y-139650000D03*
X129400000Y-139000000D03*
X129400000Y-138350000D03*
X129400000Y-137700000D03*
X127125000Y-137700000D03*
X127125000Y-138350000D03*
X127125000Y-139000000D03*
X127125000Y-139650000D03*
%TD*%
D16*
%TO.C,C23*%
X118925000Y-66200000D03*
X118925000Y-63250000D03*
%TD*%
%TO.C,C9*%
X133225000Y-36375000D03*
X133225000Y-33425000D03*
%TD*%
D15*
%TO.C,R35*%
X163643052Y-44780250D03*
X163643052Y-47705250D03*
%TD*%
D10*
%TO.C,U109*%
X100000000Y-109800000D03*
X100000000Y-109150000D03*
X100000000Y-108500000D03*
X100000000Y-107850000D03*
X97725000Y-107850000D03*
X97725000Y-108500000D03*
X97725000Y-109150000D03*
X97725000Y-109800000D03*
%TD*%
D17*
%TO.C,R46*%
X195425000Y-149350000D03*
X192500000Y-149350000D03*
%TD*%
D10*
%TO.C,U102*%
X115275000Y-90500000D03*
X115275000Y-89850000D03*
X115275000Y-89200000D03*
X115275000Y-88550000D03*
X113000000Y-88550000D03*
X113000000Y-89200000D03*
X113000000Y-89850000D03*
X113000000Y-90500000D03*
%TD*%
D13*
%TO.C,U10*%
X192962000Y-115750000D03*
X192962000Y-116700000D03*
X192962000Y-117650000D03*
X195237000Y-117650000D03*
X195237000Y-115750000D03*
%TD*%
D10*
%TO.C,U113*%
X99875000Y-119950000D03*
X99875000Y-119300000D03*
X99875000Y-118650000D03*
X99875000Y-118000000D03*
X97600000Y-118000000D03*
X97600000Y-118650000D03*
X97600000Y-119300000D03*
X97600000Y-119950000D03*
%TD*%
D17*
%TO.C,R5*%
X65161500Y-60816818D03*
X62236500Y-60816818D03*
%TD*%
D10*
%TO.C,U119*%
X129575000Y-129900000D03*
X129575000Y-129250000D03*
X129575000Y-128600000D03*
X129575000Y-127950000D03*
X127300000Y-127950000D03*
X127300000Y-128600000D03*
X127300000Y-129250000D03*
X127300000Y-129900000D03*
%TD*%
D11*
%TO.C,R33*%
X174462500Y-157462500D03*
X174462500Y-154537500D03*
%TD*%
D16*
%TO.C,C39*%
X119100000Y-111025000D03*
X119100000Y-108075000D03*
%TD*%
D10*
%TO.C,U127*%
X129600000Y-150050000D03*
X129600000Y-149400000D03*
X129600000Y-148750000D03*
X129600000Y-148100000D03*
X127325000Y-148100000D03*
X127325000Y-148750000D03*
X127325000Y-149400000D03*
X127325000Y-150050000D03*
%TD*%
D16*
%TO.C,C42*%
X103500000Y-120900000D03*
X103500000Y-117950000D03*
%TD*%
D12*
%TO.C,C68*%
X186099302Y-41874000D03*
X186099302Y-44824000D03*
%TD*%
D22*
%TO.C,C2*%
X195499500Y-133000000D03*
X192549500Y-133000000D03*
%TD*%
D13*
%TO.C,U12*%
X168462000Y-129400000D03*
X168462000Y-130350000D03*
X168462000Y-131300000D03*
X170737000Y-131300000D03*
X170737000Y-129400000D03*
%TD*%
D16*
%TO.C,C34*%
X104100000Y-100675000D03*
X104100000Y-97725000D03*
%TD*%
D10*
%TO.C,U61*%
X100175000Y-25750000D03*
X100175000Y-25100000D03*
X100175000Y-24450000D03*
X100175000Y-23800000D03*
X97900000Y-23800000D03*
X97900000Y-24450000D03*
X97900000Y-25100000D03*
X97900000Y-25750000D03*
%TD*%
D13*
%TO.C,U11*%
X199862000Y-115850000D03*
X199862000Y-116800000D03*
X199862000Y-117750000D03*
X202137000Y-117750000D03*
X202137000Y-115850000D03*
%TD*%
D16*
%TO.C,C59*%
X119200000Y-160475000D03*
X119200000Y-157525000D03*
%TD*%
%TO.C,C20*%
X88600000Y-55850000D03*
X88600000Y-52900000D03*
%TD*%
D15*
%TO.C,R31*%
X184062500Y-154875000D03*
X184062500Y-157800000D03*
%TD*%
D22*
%TO.C,C3*%
X195437500Y-145550000D03*
X192487500Y-145550000D03*
%TD*%
D10*
%TO.C,U107*%
X129675000Y-100150000D03*
X129675000Y-99500000D03*
X129675000Y-98850000D03*
X129675000Y-98200000D03*
X127400000Y-98200000D03*
X127400000Y-98850000D03*
X127400000Y-99500000D03*
X127400000Y-100150000D03*
%TD*%
D13*
%TO.C,U24*%
X167943052Y-44892750D03*
X167943052Y-45842750D03*
X167943052Y-46792750D03*
X170218052Y-46792750D03*
X170218052Y-44892750D03*
%TD*%
%TO.C,U14*%
X192787000Y-128750000D03*
X192787000Y-129700000D03*
X192787000Y-130650000D03*
X195062000Y-130650000D03*
X195062000Y-128750000D03*
%TD*%
D14*
%TO.C,U3*%
X65611500Y-67216818D03*
X65611500Y-66266818D03*
X65611500Y-65316818D03*
X63336500Y-65316818D03*
X63336500Y-67216818D03*
%TD*%
D15*
%TO.C,R37*%
X163580552Y-55036500D03*
X163580552Y-57961500D03*
%TD*%
D23*
%TO.C,U34*%
X188974302Y-83949000D03*
X188974302Y-84599000D03*
X188974302Y-85249000D03*
X188974302Y-85899000D03*
X191249302Y-85899000D03*
X191249302Y-85249000D03*
X191249302Y-84599000D03*
X191249302Y-83949000D03*
%TD*%
D16*
%TO.C,C30*%
X103837500Y-91250000D03*
X103837500Y-88300000D03*
%TD*%
D12*
%TO.C,C62*%
X186311802Y-49949000D03*
X186311802Y-52899000D03*
%TD*%
D16*
%TO.C,C28*%
X88187500Y-75687500D03*
X88187500Y-72737500D03*
%TD*%
D13*
%TO.C,U20*%
X168662500Y-154550000D03*
X168662500Y-155500000D03*
X168662500Y-156450000D03*
X170937500Y-156450000D03*
X170937500Y-154550000D03*
%TD*%
%TO.C,U18*%
X192787500Y-141550000D03*
X192787500Y-142500000D03*
X192787500Y-143450000D03*
X195062500Y-143450000D03*
X195062500Y-141550000D03*
%TD*%
D18*
%TO.C,R34*%
X174200000Y-159800000D03*
X177125000Y-159800000D03*
%TD*%
D16*
%TO.C,C32*%
X133437500Y-91100000D03*
X133437500Y-88150000D03*
%TD*%
D23*
%TO.C,U30*%
X188811802Y-50324000D03*
X188811802Y-50974000D03*
X188811802Y-51624000D03*
X188811802Y-52274000D03*
X191086802Y-52274000D03*
X191086802Y-51624000D03*
X191086802Y-50974000D03*
X191086802Y-50324000D03*
%TD*%
D17*
%TO.C,R9*%
X65850000Y-112125000D03*
X62925000Y-112125000D03*
%TD*%
D12*
%TO.C,C61*%
X186199302Y-33974000D03*
X186199302Y-36924000D03*
%TD*%
D19*
%TO.C,U39*%
X143925000Y-150660000D03*
X143925000Y-151930000D03*
X143925000Y-153200000D03*
X143925000Y-154470000D03*
X143925000Y-155740000D03*
X143925000Y-157010000D03*
X143925000Y-158280000D03*
X143925000Y-159550000D03*
X148875000Y-159550000D03*
X148875000Y-158280000D03*
X148875000Y-157010000D03*
X148875000Y-155740000D03*
X148875000Y-154470000D03*
X148875000Y-153200000D03*
X148875000Y-151930000D03*
X148875000Y-150660000D03*
%TD*%
D23*
%TO.C,U31*%
X189049302Y-58949000D03*
X189049302Y-59599000D03*
X189049302Y-60249000D03*
X189049302Y-60899000D03*
X191324302Y-60899000D03*
X191324302Y-60249000D03*
X191324302Y-59599000D03*
X191324302Y-58949000D03*
%TD*%
D16*
%TO.C,C44*%
X133087500Y-120800000D03*
X133087500Y-117850000D03*
%TD*%
%TO.C,C15*%
X119062500Y-46000000D03*
X119062500Y-43050000D03*
%TD*%
%TO.C,C56*%
X133025000Y-150875000D03*
X133025000Y-147925000D03*
%TD*%
D14*
%TO.C,U132*%
X65437500Y-75750000D03*
X65437500Y-74800000D03*
X65437500Y-73850000D03*
X63162500Y-73850000D03*
X63162500Y-75750000D03*
%TD*%
D18*
%TO.C,R20*%
X186537000Y-129300000D03*
X189462000Y-129300000D03*
%TD*%
D10*
%TO.C,U78*%
X115100000Y-65475000D03*
X115100000Y-64825000D03*
X115100000Y-64175000D03*
X115100000Y-63525000D03*
X112825000Y-63525000D03*
X112825000Y-64175000D03*
X112825000Y-64825000D03*
X112825000Y-65475000D03*
%TD*%
D13*
%TO.C,U19*%
X198925000Y-141750000D03*
X198925000Y-142700000D03*
X198925000Y-143650000D03*
X201200000Y-143650000D03*
X201200000Y-141750000D03*
%TD*%
D10*
%TO.C,U70*%
X115237500Y-45325000D03*
X115237500Y-44675000D03*
X115237500Y-44025000D03*
X115237500Y-43375000D03*
X112962500Y-43375000D03*
X112962500Y-44025000D03*
X112962500Y-44675000D03*
X112962500Y-45325000D03*
%TD*%
D14*
%TO.C,U5*%
X65425000Y-117675000D03*
X65425000Y-116725000D03*
X65425000Y-115775000D03*
X63150000Y-115775000D03*
X63150000Y-117675000D03*
%TD*%
D10*
%TO.C,U117*%
X99800000Y-129950000D03*
X99800000Y-129300000D03*
X99800000Y-128650000D03*
X99800000Y-128000000D03*
X97525000Y-128000000D03*
X97525000Y-128650000D03*
X97525000Y-129300000D03*
X97525000Y-129950000D03*
%TD*%
D16*
%TO.C,C10*%
X119287500Y-36462500D03*
X119287500Y-33512500D03*
%TD*%
D18*
%TO.C,R25*%
X186600000Y-142000000D03*
X189525000Y-142000000D03*
%TD*%
D24*
%TO.C,C70*%
X59862500Y-80300000D03*
X56737500Y-80300000D03*
%TD*%
D10*
%TO.C,U62*%
X115337500Y-25775000D03*
X115337500Y-25125000D03*
X115337500Y-24475000D03*
X115337500Y-23825000D03*
X113062500Y-23825000D03*
X113062500Y-24475000D03*
X113062500Y-25125000D03*
X113062500Y-25775000D03*
%TD*%
%TO.C,U67*%
X129700000Y-35550000D03*
X129700000Y-34900000D03*
X129700000Y-34250000D03*
X129700000Y-33600000D03*
X127425000Y-33600000D03*
X127425000Y-34250000D03*
X127425000Y-34900000D03*
X127425000Y-35550000D03*
%TD*%
D13*
%TO.C,U9*%
X178262000Y-116550000D03*
X178262000Y-117500000D03*
X178262000Y-118450000D03*
X180537000Y-118450000D03*
X180537000Y-116550000D03*
%TD*%
D19*
%TO.C,U94*%
X144750000Y-57680000D03*
X144750000Y-58950000D03*
X144750000Y-60220000D03*
X144750000Y-61490000D03*
X144750000Y-62760000D03*
X144750000Y-64030000D03*
X144750000Y-65300000D03*
X144750000Y-66570000D03*
X149700000Y-66570000D03*
X149700000Y-65300000D03*
X149700000Y-64030000D03*
X149700000Y-62760000D03*
X149700000Y-61490000D03*
X149700000Y-60220000D03*
X149700000Y-58950000D03*
X149700000Y-57680000D03*
%TD*%
D16*
%TO.C,C6*%
X103900000Y-26475000D03*
X103900000Y-23525000D03*
%TD*%
D25*
%TO.C,H4*%
X211935533Y-174335534D03*
%TD*%
D23*
%TO.C,U32*%
X189149302Y-66949000D03*
X189149302Y-67599000D03*
X189149302Y-68249000D03*
X189149302Y-68899000D03*
X191424302Y-68899000D03*
X191424302Y-68249000D03*
X191424302Y-67599000D03*
X191424302Y-66949000D03*
%TD*%
D16*
%TO.C,C18*%
X118800000Y-56150000D03*
X118800000Y-53200000D03*
%TD*%
%TO.C,C50*%
X103225000Y-140400000D03*
X103225000Y-137450000D03*
%TD*%
D14*
%TO.C,U92*%
X206686802Y-64724000D03*
X206686802Y-63774000D03*
X206686802Y-62824000D03*
X204411802Y-62824000D03*
X204411802Y-64724000D03*
%TD*%
D11*
%TO.C,R16*%
X174799500Y-118962500D03*
X174799500Y-116037500D03*
%TD*%
D10*
%TO.C,U106*%
X115262500Y-100075000D03*
X115262500Y-99425000D03*
X115262500Y-98775000D03*
X115262500Y-98125000D03*
X112987500Y-98125000D03*
X112987500Y-98775000D03*
X112987500Y-99425000D03*
X112987500Y-100075000D03*
%TD*%
D16*
%TO.C,C47*%
X118637500Y-130850000D03*
X118637500Y-127900000D03*
%TD*%
%TO.C,C48*%
X132937500Y-130600000D03*
X132937500Y-127650000D03*
%TD*%
D17*
%TO.C,R14*%
X59125000Y-139700000D03*
X56200000Y-139700000D03*
%TD*%
D16*
%TO.C,C27*%
X103575000Y-75737500D03*
X103575000Y-72787500D03*
%TD*%
%TO.C,C29*%
X88300000Y-91075000D03*
X88300000Y-88125000D03*
%TD*%
D10*
%TO.C,U130*%
X115175000Y-159700000D03*
X115175000Y-159050000D03*
X115175000Y-158400000D03*
X115175000Y-157750000D03*
X112900000Y-157750000D03*
X112900000Y-158400000D03*
X112900000Y-159050000D03*
X112900000Y-159700000D03*
%TD*%
D12*
%TO.C,C63*%
X186549302Y-66774000D03*
X186549302Y-69724000D03*
%TD*%
D11*
%TO.C,R23*%
X174799500Y-132025000D03*
X174799500Y-129100000D03*
%TD*%
D16*
%TO.C,C45*%
X88200000Y-130500000D03*
X88200000Y-127550000D03*
%TD*%
%TO.C,C14*%
X104000000Y-46275000D03*
X104000000Y-43325000D03*
%TD*%
D19*
%TO.C,U36*%
X144600000Y-32260000D03*
X144600000Y-33530000D03*
X144600000Y-34800000D03*
X144600000Y-36070000D03*
X144600000Y-37340000D03*
X144600000Y-38610000D03*
X144600000Y-39880000D03*
X144600000Y-41150000D03*
X149550000Y-41150000D03*
X149550000Y-39880000D03*
X149550000Y-38610000D03*
X149550000Y-37340000D03*
X149550000Y-36070000D03*
X149550000Y-34800000D03*
X149550000Y-33530000D03*
X149550000Y-32260000D03*
%TD*%
D10*
%TO.C,U129*%
X99875000Y-159850000D03*
X99875000Y-159200000D03*
X99875000Y-158550000D03*
X99875000Y-157900000D03*
X97600000Y-157900000D03*
X97600000Y-158550000D03*
X97600000Y-159200000D03*
X97600000Y-159850000D03*
%TD*%
D16*
%TO.C,C51*%
X118325000Y-140500000D03*
X118325000Y-137550000D03*
%TD*%
%TO.C,C5*%
X88750000Y-26600000D03*
X88750000Y-23650000D03*
%TD*%
D12*
%TO.C,C64*%
X186474302Y-83624000D03*
X186474302Y-86574000D03*
%TD*%
D17*
%TO.C,R47*%
X195225000Y-162300000D03*
X192300000Y-162300000D03*
%TD*%
D10*
%TO.C,U112*%
X84575000Y-120000000D03*
X84575000Y-119350000D03*
X84575000Y-118700000D03*
X84575000Y-118050000D03*
X82300000Y-118050000D03*
X82300000Y-118700000D03*
X82300000Y-119350000D03*
X82300000Y-120000000D03*
%TD*%
D16*
%TO.C,C46*%
X103225000Y-130625000D03*
X103225000Y-127675000D03*
%TD*%
D17*
%TO.C,R1*%
X65324000Y-49666818D03*
X62399000Y-49666818D03*
%TD*%
D15*
%TO.C,R43*%
X210311802Y-62161500D03*
X210311802Y-65086500D03*
%TD*%
D17*
%TO.C,R7*%
X65775000Y-101400000D03*
X62850000Y-101400000D03*
%TD*%
D21*
%TO.C,J9*%
X49036500Y-42416818D03*
%TD*%
D10*
%TO.C,U121*%
X99800000Y-139625000D03*
X99800000Y-138975000D03*
X99800000Y-138325000D03*
X99800000Y-137675000D03*
X97525000Y-137675000D03*
X97525000Y-138325000D03*
X97525000Y-138975000D03*
X97525000Y-139625000D03*
%TD*%
%TO.C,U75*%
X129575000Y-55225000D03*
X129575000Y-54575000D03*
X129575000Y-53925000D03*
X129575000Y-53275000D03*
X127300000Y-53275000D03*
X127300000Y-53925000D03*
X127300000Y-54575000D03*
X127300000Y-55225000D03*
%TD*%
D18*
%TO.C,R24*%
X174437000Y-134300000D03*
X177362000Y-134300000D03*
%TD*%
D15*
%TO.C,R26*%
X184362500Y-141637500D03*
X184362500Y-144562500D03*
%TD*%
D16*
%TO.C,C43*%
X118487500Y-120800000D03*
X118487500Y-117850000D03*
%TD*%
D25*
%TO.C,H2*%
X211935533Y-15164466D03*
%TD*%
D13*
%TO.C,U27*%
X166986802Y-78049000D03*
X166986802Y-78999000D03*
X166986802Y-79949000D03*
X169261802Y-79949000D03*
X169261802Y-78049000D03*
%TD*%
D16*
%TO.C,C41*%
X88300000Y-120775000D03*
X88300000Y-117825000D03*
%TD*%
D10*
%TO.C,U83*%
X129512500Y-74787500D03*
X129512500Y-74137500D03*
X129512500Y-73487500D03*
X129512500Y-72837500D03*
X127237500Y-72837500D03*
X127237500Y-73487500D03*
X127237500Y-74137500D03*
X127237500Y-74787500D03*
%TD*%
D18*
%TO.C,R19*%
X186637000Y-116300000D03*
X189562000Y-116300000D03*
%TD*%
D16*
%TO.C,C52*%
X133062500Y-140450000D03*
X133062500Y-137500000D03*
%TD*%
D19*
%TO.C,U38*%
X144100000Y-106960000D03*
X144100000Y-108230000D03*
X144100000Y-109500000D03*
X144100000Y-110770000D03*
X144100000Y-112040000D03*
X144100000Y-113310000D03*
X144100000Y-114580000D03*
X144100000Y-115850000D03*
X149050000Y-115850000D03*
X149050000Y-114580000D03*
X149050000Y-113310000D03*
X149050000Y-112040000D03*
X149050000Y-110770000D03*
X149050000Y-109500000D03*
X149050000Y-108230000D03*
X149050000Y-106960000D03*
%TD*%
D16*
%TO.C,C22*%
X103725000Y-66000000D03*
X103725000Y-63050000D03*
%TD*%
D10*
%TO.C,U115*%
X129362500Y-120025000D03*
X129362500Y-119375000D03*
X129362500Y-118725000D03*
X129362500Y-118075000D03*
X127087500Y-118075000D03*
X127087500Y-118725000D03*
X127087500Y-119375000D03*
X127087500Y-120025000D03*
%TD*%
D17*
%TO.C,R10*%
X58812500Y-115925000D03*
X55887500Y-115925000D03*
%TD*%
D16*
%TO.C,C54*%
X103425000Y-150700000D03*
X103425000Y-147750000D03*
%TD*%
D10*
%TO.C,U80*%
X84662500Y-74812500D03*
X84662500Y-74162500D03*
X84662500Y-73512500D03*
X84662500Y-72862500D03*
X82387500Y-72862500D03*
X82387500Y-73512500D03*
X82387500Y-74162500D03*
X82387500Y-74812500D03*
%TD*%
D17*
%TO.C,R2*%
X58561500Y-53166818D03*
X55636500Y-53166818D03*
%TD*%
D15*
%TO.C,R39*%
X163611802Y-66636500D03*
X163611802Y-69561500D03*
%TD*%
D17*
%TO.C,R12*%
X58750000Y-127150000D03*
X55825000Y-127150000D03*
%TD*%
D23*
%TO.C,U33*%
X188836802Y-75424000D03*
X188836802Y-76074000D03*
X188836802Y-76724000D03*
X188836802Y-77374000D03*
X191111802Y-77374000D03*
X191111802Y-76724000D03*
X191111802Y-76074000D03*
X191111802Y-75424000D03*
%TD*%
D21*
%TO.C,J7*%
X205400000Y-74100000D03*
%TD*%
D25*
%TO.C,H1*%
X44564466Y-15164467D03*
%TD*%
D10*
%TO.C,U128*%
X84675000Y-159650000D03*
X84675000Y-159000000D03*
X84675000Y-158350000D03*
X84675000Y-157700000D03*
X82400000Y-157700000D03*
X82400000Y-158350000D03*
X82400000Y-159000000D03*
X82400000Y-159650000D03*
%TD*%
%TO.C,U116*%
X84600000Y-129850000D03*
X84600000Y-129200000D03*
X84600000Y-128550000D03*
X84600000Y-127900000D03*
X82325000Y-127900000D03*
X82325000Y-128550000D03*
X82325000Y-129200000D03*
X82325000Y-129850000D03*
%TD*%
D19*
%TO.C,U37*%
X144725000Y-68255000D03*
X144725000Y-69525000D03*
X144725000Y-70795000D03*
X144725000Y-72065000D03*
X144725000Y-73335000D03*
X144725000Y-74605000D03*
X144725000Y-75875000D03*
X144725000Y-77145000D03*
X149675000Y-77145000D03*
X149675000Y-75875000D03*
X149675000Y-74605000D03*
X149675000Y-73335000D03*
X149675000Y-72065000D03*
X149675000Y-70795000D03*
X149675000Y-69525000D03*
X149675000Y-68255000D03*
%TD*%
D10*
%TO.C,U68*%
X84775000Y-45300000D03*
X84775000Y-44650000D03*
X84775000Y-44000000D03*
X84775000Y-43350000D03*
X82500000Y-43350000D03*
X82500000Y-44000000D03*
X82500000Y-44650000D03*
X82500000Y-45300000D03*
%TD*%
%TO.C,U74*%
X115037500Y-55450000D03*
X115037500Y-54800000D03*
X115037500Y-54150000D03*
X115037500Y-53500000D03*
X112762500Y-53500000D03*
X112762500Y-54150000D03*
X112762500Y-54800000D03*
X112762500Y-55450000D03*
%TD*%
D14*
%TO.C,U4*%
X65312500Y-107000000D03*
X65312500Y-106050000D03*
X65312500Y-105100000D03*
X63037500Y-105100000D03*
X63037500Y-107000000D03*
%TD*%
D11*
%TO.C,R22*%
X163924500Y-131762500D03*
X163924500Y-128837500D03*
%TD*%
D19*
%TO.C,U96*%
X143925000Y-139855000D03*
X143925000Y-141125000D03*
X143925000Y-142395000D03*
X143925000Y-143665000D03*
X143925000Y-144935000D03*
X143925000Y-146205000D03*
X143925000Y-147475000D03*
X143925000Y-148745000D03*
X148875000Y-148745000D03*
X148875000Y-147475000D03*
X148875000Y-146205000D03*
X148875000Y-144935000D03*
X148875000Y-143665000D03*
X148875000Y-142395000D03*
X148875000Y-141125000D03*
X148875000Y-139855000D03*
%TD*%
D25*
%TO.C,H3*%
X44564466Y-174335533D03*
%TD*%
D16*
%TO.C,C11*%
X104037500Y-36200000D03*
X104037500Y-33250000D03*
%TD*%
D10*
%TO.C,U120*%
X84575000Y-139650000D03*
X84575000Y-139000000D03*
X84575000Y-138350000D03*
X84575000Y-137700000D03*
X82300000Y-137700000D03*
X82300000Y-138350000D03*
X82300000Y-139000000D03*
X82300000Y-139650000D03*
%TD*%
%TO.C,U76*%
X84762500Y-65150000D03*
X84762500Y-64500000D03*
X84762500Y-63850000D03*
X84762500Y-63200000D03*
X82487500Y-63200000D03*
X82487500Y-63850000D03*
X82487500Y-64500000D03*
X82487500Y-65150000D03*
%TD*%
D16*
%TO.C,C57*%
X88300000Y-160475000D03*
X88300000Y-157525000D03*
%TD*%
D10*
%TO.C,U122*%
X115000000Y-139725000D03*
X115000000Y-139075000D03*
X115000000Y-138425000D03*
X115000000Y-137775000D03*
X112725000Y-137775000D03*
X112725000Y-138425000D03*
X112725000Y-139075000D03*
X112725000Y-139725000D03*
%TD*%
%TO.C,U60*%
X85025000Y-25775000D03*
X85025000Y-25125000D03*
X85025000Y-24475000D03*
X85025000Y-23825000D03*
X82750000Y-23825000D03*
X82750000Y-24475000D03*
X82750000Y-25125000D03*
X82750000Y-25775000D03*
%TD*%
D21*
%TO.C,J11*%
X49499000Y-53266818D03*
%TD*%
D11*
%TO.C,R27*%
X163662500Y-144562500D03*
X163662500Y-141637500D03*
%TD*%
D16*
%TO.C,C13*%
X88700000Y-46225000D03*
X88700000Y-43275000D03*
%TD*%
D17*
%TO.C,R45*%
X195387000Y-136600000D03*
X192462000Y-136600000D03*
%TD*%
D10*
%TO.C,U104*%
X84800000Y-100150000D03*
X84800000Y-99500000D03*
X84800000Y-98850000D03*
X84800000Y-98200000D03*
X82525000Y-98200000D03*
X82525000Y-98850000D03*
X82525000Y-99500000D03*
X82525000Y-100150000D03*
%TD*%
%TO.C,U63*%
X129837500Y-25775000D03*
X129837500Y-25125000D03*
X129837500Y-24475000D03*
X129837500Y-23825000D03*
X127562500Y-23825000D03*
X127562500Y-24475000D03*
X127562500Y-25125000D03*
X127562500Y-25775000D03*
%TD*%
D21*
%TO.C,J13*%
X49436500Y-65616818D03*
%TD*%
D23*
%TO.C,U28*%
X188586802Y-34474000D03*
X188586802Y-35124000D03*
X188586802Y-35774000D03*
X188586802Y-36424000D03*
X190861802Y-36424000D03*
X190861802Y-35774000D03*
X190861802Y-35124000D03*
X190861802Y-34474000D03*
%TD*%
D10*
%TO.C,U108*%
X84775000Y-109950000D03*
X84775000Y-109300000D03*
X84775000Y-108650000D03*
X84775000Y-108000000D03*
X82500000Y-108000000D03*
X82500000Y-108650000D03*
X82500000Y-109300000D03*
X82500000Y-109950000D03*
%TD*%
%TO.C,U101*%
X100137500Y-90500000D03*
X100137500Y-89850000D03*
X100137500Y-89200000D03*
X100137500Y-88550000D03*
X97862500Y-88550000D03*
X97862500Y-89200000D03*
X97862500Y-89850000D03*
X97862500Y-90500000D03*
%TD*%
D13*
%TO.C,U25*%
X167480552Y-55349000D03*
X167480552Y-56299000D03*
X167480552Y-57249000D03*
X169755552Y-57249000D03*
X169755552Y-55349000D03*
%TD*%
D16*
%TO.C,C31*%
X119000000Y-91275000D03*
X119000000Y-88325000D03*
%TD*%
%TO.C,C21*%
X88387500Y-66075000D03*
X88387500Y-63125000D03*
%TD*%
%TO.C,C40*%
X133525000Y-110775000D03*
X133525000Y-107825000D03*
%TD*%
D26*
%TO.C,C69*%
X56900000Y-73437500D03*
X56900000Y-76562500D03*
%TD*%
D21*
%TO.C,J6*%
X49100000Y-24400000D03*
%TD*%
D10*
%TO.C,U103*%
X129775000Y-90400000D03*
X129775000Y-89750000D03*
X129775000Y-89100000D03*
X129775000Y-88450000D03*
X127500000Y-88450000D03*
X127500000Y-89100000D03*
X127500000Y-89750000D03*
X127500000Y-90400000D03*
%TD*%
%TO.C,U81*%
X99850000Y-74912500D03*
X99850000Y-74262500D03*
X99850000Y-73612500D03*
X99850000Y-72962500D03*
X97575000Y-72962500D03*
X97575000Y-73612500D03*
X97575000Y-74262500D03*
X97575000Y-74912500D03*
%TD*%
D16*
%TO.C,C53*%
X88500000Y-150725000D03*
X88500000Y-147775000D03*
%TD*%
%TO.C,C26*%
X118775000Y-75937500D03*
X118775000Y-72987500D03*
%TD*%
D21*
%TO.C,J3*%
X48000000Y-81100000D03*
%TD*%
D17*
%TO.C,R42*%
X168249302Y-83249000D03*
X165324302Y-83249000D03*
%TD*%
%TO.C,R3*%
X65199000Y-36916818D03*
X62274000Y-36916818D03*
%TD*%
D18*
%TO.C,R29*%
X174800000Y-146300000D03*
X177725000Y-146300000D03*
%TD*%
D10*
%TO.C,U124*%
X84675000Y-149950000D03*
X84675000Y-149300000D03*
X84675000Y-148650000D03*
X84675000Y-148000000D03*
X82400000Y-148000000D03*
X82400000Y-148650000D03*
X82400000Y-149300000D03*
X82400000Y-149950000D03*
%TD*%
D13*
%TO.C,U26*%
X167111802Y-67249000D03*
X167111802Y-68199000D03*
X167111802Y-69149000D03*
X169386802Y-69149000D03*
X169386802Y-67249000D03*
%TD*%
D17*
%TO.C,R11*%
X65850000Y-123050000D03*
X62925000Y-123050000D03*
%TD*%
D10*
%TO.C,U118*%
X115075000Y-130050000D03*
X115075000Y-129400000D03*
X115075000Y-128750000D03*
X115075000Y-128100000D03*
X112800000Y-128100000D03*
X112800000Y-128750000D03*
X112800000Y-129400000D03*
X112800000Y-130050000D03*
%TD*%
D19*
%TO.C,U95*%
X144100000Y-96210000D03*
X144100000Y-97480000D03*
X144100000Y-98750000D03*
X144100000Y-100020000D03*
X144100000Y-101290000D03*
X144100000Y-102560000D03*
X144100000Y-103830000D03*
X144100000Y-105100000D03*
X149050000Y-105100000D03*
X149050000Y-103830000D03*
X149050000Y-102560000D03*
X149050000Y-101290000D03*
X149050000Y-100020000D03*
X149050000Y-98750000D03*
X149050000Y-97480000D03*
X149050000Y-96210000D03*
%TD*%
D23*
%TO.C,U35*%
X189174302Y-92499000D03*
X189174302Y-93149000D03*
X189174302Y-93799000D03*
X189174302Y-94449000D03*
X191449302Y-94449000D03*
X191449302Y-93799000D03*
X191449302Y-93149000D03*
X191449302Y-92499000D03*
%TD*%
%TO.C,U29*%
X188761802Y-42074000D03*
X188761802Y-42724000D03*
X188761802Y-43374000D03*
X188761802Y-44024000D03*
X191036802Y-44024000D03*
X191036802Y-43374000D03*
X191036802Y-42724000D03*
X191036802Y-42074000D03*
%TD*%
D27*
%TO.C,R49*%
X62050000Y-78100000D03*
X65150000Y-78100000D03*
%TD*%
D16*
%TO.C,C60*%
X133000000Y-160475000D03*
X133000000Y-157525000D03*
%TD*%
D10*
%TO.C,U71*%
X129775000Y-45350000D03*
X129775000Y-44700000D03*
X129775000Y-44050000D03*
X129775000Y-43400000D03*
X127500000Y-43400000D03*
X127500000Y-44050000D03*
X127500000Y-44700000D03*
X127500000Y-45350000D03*
%TD*%
%TO.C,U105*%
X100175000Y-100100000D03*
X100175000Y-99450000D03*
X100175000Y-98800000D03*
X100175000Y-98150000D03*
X97900000Y-98150000D03*
X97900000Y-98800000D03*
X97900000Y-99450000D03*
X97900000Y-100100000D03*
%TD*%
D13*
%TO.C,U16*%
X168162500Y-141900000D03*
X168162500Y-142850000D03*
X168162500Y-143800000D03*
X170437500Y-143800000D03*
X170437500Y-141900000D03*
%TD*%
D17*
%TO.C,R36*%
X168805552Y-49942750D03*
X165880552Y-49942750D03*
%TD*%
D10*
%TO.C,U126*%
X115162500Y-150025000D03*
X115162500Y-149375000D03*
X115162500Y-148725000D03*
X115162500Y-148075000D03*
X112887500Y-148075000D03*
X112887500Y-148725000D03*
X112887500Y-149375000D03*
X112887500Y-150025000D03*
%TD*%
D17*
%TO.C,R44*%
X195149500Y-123800000D03*
X192224500Y-123800000D03*
%TD*%
D10*
%TO.C,U65*%
X100075000Y-35400000D03*
X100075000Y-34750000D03*
X100075000Y-34100000D03*
X100075000Y-33450000D03*
X97800000Y-33450000D03*
X97800000Y-34100000D03*
X97800000Y-34750000D03*
X97800000Y-35400000D03*
%TD*%
D17*
%TO.C,R4*%
X58099000Y-42316818D03*
X55174000Y-42316818D03*
%TD*%
%TO.C,R8*%
X58237500Y-105000000D03*
X55312500Y-105000000D03*
%TD*%
D18*
%TO.C,R17*%
X174437000Y-121300000D03*
X177362000Y-121300000D03*
%TD*%
D13*
%TO.C,U21*%
X177962500Y-155050000D03*
X177962500Y-156000000D03*
X177962500Y-156950000D03*
X180237500Y-156950000D03*
X180237500Y-155050000D03*
%TD*%
D17*
%TO.C,R13*%
X65825000Y-134900000D03*
X62900000Y-134900000D03*
%TD*%
D16*
%TO.C,C24*%
X133325000Y-65975000D03*
X133325000Y-63025000D03*
%TD*%
D22*
%TO.C,C1*%
X195174500Y-120000000D03*
X192224500Y-120000000D03*
%TD*%
M02*
